<svg width="70" height="70" viewBox="0 0 70 70" fill="none" xmlns="http://www.w3.org/2000/svg">
<g id="profile">
<path id="Vector" d="M35 70C54.33 70 70 54.33 70 35C70 15.67 54.33 0 35 0C15.67 0 0 15.67 0 35C0 54.33 15.67 70 35 70Z" fill="url(#paint0_linear_4595_36)"/>
<g id="Clip path group">
<mask id="mask0_4595_36" style="mask-type:luminance" maskUnits="userSpaceOnUse" x="1" y="1" width="68" height="68">
<g id="clippath">
<path id="Vector_2" d="M34.9737 68.3523C53.3788 68.3523 68.2991 53.4321 68.2991 35.027C68.2991 16.622 53.3788 1.70172 34.9737 1.70172C16.5687 1.70172 1.64844 16.622 1.64844 35.027C1.64844 53.4321 16.5687 68.3523 34.9737 68.3523Z" fill="white"/>
</g>
</mask>
<g mask="url(#mask0_4595_36)">
<g id="Group">
<path id="Vector_3" d="M76.1755 76.992L-3.40321 79.5902C-4.19682 79.616 -4.86567 78.9883 -4.89268 78.1959L-7.76486 -9.7613C-7.79059 -10.5549 -7.1629 -11.2238 -6.37057 -11.2508L73.2094 -13.849C74.003 -13.8747 74.6718 -13.247 74.6988 -12.4547L77.5697 75.5013C77.5955 76.2949 76.9678 76.9637 76.1755 76.9907V76.992Z" fill="url(#paint1_linear_4595_36)"/>
<g id="Group_2">
<path id="Vector_4" d="M17.8266 39.1237C17.8266 39.1237 38.0154 35.2573 54.1745 39.0067L53.6472 55.5966C53.6472 55.5966 50.1242 78.6989 47.252 88.9502C47.252 88.9502 35.0391 91.4867 29.0606 88.4743C29.0606 88.4743 23.3137 59.7937 20.5032 55.6095C20.5032 55.6095 17.4664 44.4822 17.8266 39.125V39.1237Z" fill="url(#paint2_linear_4595_36)"/>
<path id="Vector_5" d="M31.4428 24.0721L29.8672 37.8092C29.8672 37.8092 35.6 40.2196 39.4664 37.3847L38.2998 27.7649L31.4428 24.0734V24.0721Z" fill="url(#paint3_linear_4595_36)"/>
<g id="Group_3">
<path id="Vector_6" d="M39.861 14.8857C39.9278 14.9989 41.3723 21.8533 42.2611 26.0953C42.629 27.8485 41.3864 29.5283 39.6024 29.6929L37.9689 29.8434C34.9681 30.12 32.2502 28.0658 31.6972 25.1023L30.2617 17.4106C30.2617 17.4106 38.2236 12.1319 39.861 14.8844V14.8857Z" fill="url(#paint4_linear_4595_36)"/>
<path id="Vector_7" d="M28.4993 17.4878C27.8459 16.7276 27.2581 15.4838 28.5508 14.114C29.8589 12.7261 31.405 13.0117 32.3928 13.4297C32.8301 13.6149 33.3588 13.5094 33.6533 13.1364C33.7845 12.9705 33.9826 12.8547 34.2849 12.8792C34.8534 12.9242 35.346 12.5345 35.3949 11.9659C35.4785 10.9922 35.957 9.83463 37.6613 9.44747C40.7855 8.73746 42.4564 11.8322 42.4718 14.0458C42.4885 16.2594 39.0568 16.8369 37.0902 16.5334C35.6457 16.3109 34.4444 17.6125 33.9093 18.32C33.715 18.5772 33.6495 18.9065 33.7331 19.2178L34.3003 21.3375C33.9774 22.0128 33.6623 22.7022 33.1967 23.2849C32.8623 23.7042 32.488 23.9422 32.0854 24.0502C31.4641 22.9788 29.8177 22.8463 29.055 22.8476C28.763 22.8476 28.4865 22.7279 28.2884 22.5144C27.6916 21.8739 26.7449 20.4333 28.4196 18.9322C28.8363 18.5592 28.8633 17.911 28.4993 17.4878Z" fill="url(#paint5_linear_4595_36)"/>
<path id="Vector_8" d="M32.7299 26.3191C32.7299 26.3191 32.5357 22.4643 30.9626 22.153C29.3896 21.8417 27.7419 23.0251 29.1529 25.2914C30.9073 28.1096 32.7299 26.3191 32.7299 26.3191Z" fill="url(#paint6_linear_4595_36)"/>
</g>
<path id="Vector_9" d="M17.8251 39.1237C17.8251 39.1237 -12.5663 74.3295 24.9754 86.2015L24.8879 83.5313C24.8879 83.5313 10.6196 72.2355 20.7771 55.8668C20.7771 55.8668 18.9454 40.6903 17.8251 39.1237Z" fill="url(#paint7_linear_4595_36)"/>
<path id="Vector_10" d="M54.1719 39.0067C54.1719 39.0067 88.0953 71.0444 51.4078 85.3385L51.3203 82.6682C51.3203 82.6682 64.822 70.4669 53.6175 54.794C53.6175 54.794 52.1229 41.7451 54.1719 39.0054V39.0067Z" fill="url(#paint8_linear_4595_36)"/>
</g>
</g>
</g>
</g>
</g>
<defs>
<linearGradient id="paint0_linear_4595_36" x1="61.5712" y1="4.73852" x2="84.9423" y2="-21.879" gradientUnits="userSpaceOnUse">
<stop stop-color="#4F52FF"/>
<stop offset="1" stop-color="#4042E2"/>
</linearGradient>
<linearGradient id="paint1_linear_4595_36" x1="-7.76486" y1="32.8713" x2="77.571" y2="32.8713" gradientUnits="userSpaceOnUse">
<stop stop-color="#DAE3FE"/>
<stop offset="1" stop-color="#E9EFFD"/>
</linearGradient>
<linearGradient id="paint2_linear_4595_36" x1="49.7973" y1="48.5832" x2="92.7089" y2="10.1598" gradientUnits="userSpaceOnUse">
<stop stop-color="#FE7062"/>
<stop offset="1" stop-color="#FF928E"/>
</linearGradient>
<linearGradient id="paint3_linear_4595_36" x1="35.4315" y1="50.6896" x2="33.9163" y2="24.7216" gradientUnits="userSpaceOnUse">
<stop stop-color="#FEBBBA"/>
<stop offset="1" stop-color="#FF928E"/>
</linearGradient>
<linearGradient id="paint4_linear_4595_36" x1="810.728" y1="-736.196" x2="823.1" y2="-748.32" gradientUnits="userSpaceOnUse">
<stop stop-color="#FEBBBA"/>
<stop offset="1" stop-color="#FF928E"/>
</linearGradient>
<linearGradient id="paint5_linear_4595_36" x1="27.2181" y1="20.8858" x2="42.1183" y2="12.0247" gradientUnits="userSpaceOnUse">
<stop stop-color="#09005D"/>
<stop offset="1" stop-color="#1A0F91"/>
</linearGradient>
<linearGradient id="paint6_linear_4595_36" x1="808.974" y1="-737.985" x2="821.346" y2="-750.109" gradientUnits="userSpaceOnUse">
<stop stop-color="#FEBBBA"/>
<stop offset="1" stop-color="#FF928E"/>
</linearGradient>
<linearGradient id="paint7_linear_4595_36" x1="44.1569" y1="42.2863" x2="87.0673" y2="3.86421" gradientUnits="userSpaceOnUse">
<stop stop-color="#FE7062"/>
<stop offset="1" stop-color="#FF928E"/>
</linearGradient>
<linearGradient id="paint8_linear_4595_36" x1="58.7354" y1="58.5687" x2="101.646" y2="20.1466" gradientUnits="userSpaceOnUse">
<stop stop-color="#FE7062"/>
<stop offset="1" stop-color="#FF928E"/>
</linearGradient>
</defs>
</svg>
