<svg width="18" height="19" viewBox="0 0 18 19" fill="none" xmlns="http://www.w3.org/2000/svg">
<path d="M16.95 18.5C14.8 18.5 12.7043 18.0207 10.663 17.062C8.62167 16.1033 6.81333 14.8367 5.238 13.262C3.66267 11.6873 2.396 9.879 1.438 7.837C0.48 5.795 0.000666667 3.69933 0 1.55C0 1.25 0.0999999 1 0.3 0.8C0.5 0.6 0.75 0.5 1.05 0.5H5.1C5.33333 0.5 5.54167 0.575 5.725 0.725C5.90833 0.875 6.01667 1.06667 6.05 1.3L6.7 4.8C6.73333 5.03333 6.729 5.246 6.687 5.438C6.645 5.63 6.54933 5.80067 6.4 5.95L4 8.4C4.7 9.6 5.575 10.725 6.625 11.775C7.675 12.825 8.83333 13.7333 10.1 14.5L12.45 12.15C12.6 12 12.796 11.8877 13.038 11.813C13.28 11.7383 13.5173 11.7173 13.75 11.75L17.2 12.45C17.4333 12.5 17.625 12.6127 17.775 12.788C17.925 12.9633 18 13.1673 18 13.4V17.45C18 17.75 17.9 18 17.7 18.2C17.5 18.4 17.25 18.5 16.95 18.5Z" fill="white"/>
</svg>
