<svg width="25" height="24" viewBox="0 0 25 24" fill="none" xmlns="http://www.w3.org/2000/svg">
<path d="M12.5 14.25C11.6337 14.2507 10.7807 14.0368 10.0172 13.6272C9.25381 13.2177 8.60378 12.6254 8.12525 11.9032L9.37475 11.073C9.7168 11.5887 10.1812 12.0119 10.7265 12.3046C11.2718 12.5973 11.8811 12.7504 12.5 12.7504C13.1189 12.7504 13.7282 12.5973 14.2735 12.3046C14.8188 12.0119 15.2832 11.5887 15.6253 11.073L16.8748 11.9032C16.3962 12.6254 15.7462 13.2177 14.9828 13.6272C14.2193 14.0368 13.3663 14.2507 12.5 14.25ZM15.5 5.99995C15.2033 5.99995 14.9133 6.08793 14.6666 6.25275C14.42 6.41757 14.2277 6.65184 14.1142 6.92593C14.0006 7.20002 13.9709 7.50162 14.0288 7.79259C14.0867 8.08356 14.2296 8.35084 14.4393 8.56061C14.6491 8.77039 14.9164 8.91325 15.2074 8.97113C15.4983 9.02901 15.7999 8.99931 16.074 8.88577C16.3481 8.77224 16.5824 8.57998 16.7472 8.33331C16.912 8.08664 17 7.79663 17 7.49995C17.002 7.30241 16.9646 7.10646 16.8899 6.92356C16.8152 6.74067 16.7048 6.57451 16.5651 6.43482C16.4254 6.29513 16.2593 6.18472 16.0764 6.11005C15.8935 6.03538 15.6975 5.99795 15.5 5.99995ZM9.5 5.99995C9.20333 5.99995 8.91332 6.08793 8.66665 6.25275C8.41997 6.41757 8.22771 6.65184 8.11418 6.92593C8.00065 7.20002 7.97094 7.50162 8.02882 7.79259C8.0867 8.08356 8.22956 8.35084 8.43934 8.56061C8.64912 8.77039 8.91639 8.91325 9.20737 8.97113C9.49834 9.02901 9.79994 8.99931 10.074 8.88577C10.3481 8.77224 10.5824 8.57998 10.7472 8.33331C10.912 8.08664 11 7.79663 11 7.49995C11.002 7.30241 10.9646 7.10646 10.8899 6.92356C10.8152 6.74067 10.7048 6.57451 10.5651 6.43482C10.4254 6.29513 10.2593 6.18472 10.0764 6.11005C9.8935 6.03538 9.69754 5.99795 9.5 5.99995Z" fill="white"/>
<path d="M13.802 22.5L12.5 21.75L15.5 16.5H20C20.1971 16.5003 20.3923 16.4617 20.5744 16.3864C20.7565 16.3111 20.922 16.2007 21.0613 16.0613C21.2007 15.922 21.3111 15.7565 21.3864 15.5744C21.4617 15.3923 21.5003 15.1971 21.5 15V4.5C21.5003 4.30293 21.4617 4.10775 21.3864 3.92562C21.3111 3.7435 21.2007 3.57803 21.0613 3.43868C20.922 3.29933 20.7565 3.18885 20.5744 3.11358C20.3923 3.0383 20.1971 2.9997 20 3H5C4.80293 2.9997 4.60775 3.0383 4.42562 3.11358C4.2435 3.18885 4.07803 3.29933 3.93868 3.43868C3.79933 3.57803 3.68885 3.7435 3.61358 3.92562C3.5383 4.10775 3.4997 4.30293 3.5 4.5V15C3.4997 15.1971 3.5383 15.3923 3.61358 15.5744C3.68885 15.7565 3.79933 15.922 3.93868 16.0613C4.07803 16.2007 4.2435 16.3111 4.42562 16.3864C4.60775 16.4617 4.80293 16.5003 5 16.5H11.75V18H5C4.20435 18 3.44129 17.6839 2.87868 17.1213C2.31607 16.5587 2 15.7956 2 15V4.5C1.9999 4.10601 2.07743 3.71585 2.22816 3.35183C2.37889 2.98781 2.59986 2.65706 2.87846 2.37846C3.15706 2.09986 3.48781 1.87889 3.85183 1.72816C4.21585 1.57743 4.60601 1.4999 5 1.5H20C20.394 1.4999 20.7841 1.57743 21.1482 1.72816C21.5122 1.87889 21.8429 2.09986 22.1215 2.37846C22.4001 2.65706 22.6211 2.98781 22.7718 3.35183C22.9226 3.71585 23.0001 4.10601 23 4.5V15C23 15.7956 22.6839 16.5587 22.1213 17.1213C21.5587 17.6839 20.7956 18 20 18H16.3738L13.802 22.5Z" fill="white"/>
</svg>
