<svg width="28" height="34" viewBox="0 0 28 34" fill="none" xmlns="http://www.w3.org/2000/svg">
<g id="Isolation_Mode" clipPath="url(#clip0_5004_3113)">
<path id="Vector" d="M27.9399 12.785C27.7875 11.0069 27.3046 9.27335 26.5164 7.67448C25.215 5.00225 23.067 2.84139 20.4108 1.53219C18.0021 0.276409 15.2732 -0.22022 12.5798 0.107041C10.5089 0.343553 8.5093 1.00978 6.70746 2.0636C1.68234 5.05884 -0.965697 11.277 0.324025 17.1398C1.04092 20.3732 3.06812 23.0647 5.33199 25.3905C7.83254 27.9648 10.4086 30.4493 12.9503 32.9821C13.2624 33.2996 13.5883 33.5929 14.0136 33.9966C14.4081 33.6239 14.6996 33.3617 14.9843 33.0856C20.6063 27.4886 28.7837 21.7465 27.9399 12.785ZM21.625 18.4925C21.6245 18.9323 21.5092 19.3642 21.2907 19.7451C21.0722 20.126 20.7581 20.4425 20.3799 20.663C19.941 20.9371 19.4316 21.0751 18.9152 21.0599H9.10511C8.53614 21.0753 7.97682 20.9099 7.50668 20.5871C7.01218 20.244 6.6491 19.7411 6.47765 19.162C6.39704 18.8653 6.35891 18.5585 6.36445 18.251C6.36445 16.0586 6.36445 13.8731 6.36445 11.6946C6.3588 11.5189 6.39365 11.3444 6.46625 11.1845C6.53885 11.0247 6.64723 10.8839 6.78292 10.7732C7.66789 10.0175 8.5563 9.25837 9.43783 8.49576C10.3194 7.73315 11.2558 6.93603 12.1648 6.15271L13.3447 5.14855C13.526 4.993 13.7565 4.90754 13.9947 4.90754C14.233 4.90754 14.4635 4.993 14.6447 5.14855C15.4771 5.8387 16.3049 6.54379 17.1281 7.26385L19.5052 9.29978L21.2992 10.8388C21.409 10.9308 21.4968 11.0466 21.5562 11.1774C21.6156 11.3082 21.645 11.4507 21.6422 11.5945C21.6319 13.8858 21.649 16.1874 21.625 18.4925Z" fill="#004439"/>
<path id="Vector_2" d="M17.1478 10.3488L15.4328 8.88568L14.1122 7.75384C14.0641 7.70898 14.0196 7.65377 13.9372 7.72279C13.4502 8.14723 12.9562 8.56131 12.4657 8.97885L10.3425 10.8077C9.85539 11.2253 9.36831 11.6463 8.88124 12.0604C8.8504 12.0866 8.82577 12.1194 8.80915 12.1564C8.79254 12.1934 8.78435 12.2337 8.78519 12.2743C8.78519 14.1837 8.78519 16.0931 8.78519 18.0025C8.77524 18.0856 8.78419 18.1698 8.81135 18.2489C8.83852 18.328 8.88319 18.3998 8.942 18.459C9.00081 18.5182 9.07222 18.5631 9.15083 18.5904C9.22943 18.6177 9.31318 18.6267 9.39575 18.6167H18.6159C18.6977 18.6259 18.7805 18.6165 18.8582 18.5893C18.936 18.5622 19.0067 18.5178 19.0652 18.4596C19.1238 18.4014 19.1686 18.3308 19.1965 18.2529C19.2244 18.175 19.2346 18.0918 19.2265 18.0094C19.2265 16.0908 19.2265 14.1733 19.2265 12.257C19.222 12.1898 19.194 12.1262 19.1476 12.0776L17.1478 10.3488Z" fill="#004439"/>
</g>
<defs>
<clipPath id="clip0_5004_3113">
<rect width="28" height="34" fill="white"/>
</clipPath>
</defs>
</svg>
