<svg width="57" height="30" viewBox="0 0 57 30" fill="none" xmlns="http://www.w3.org/2000/svg">
<g clipPath="url(#clip0_1082_2)">
<path d="M54.4266 0.547375C54.858 0.77534 55.5331 1.14187 55.99 1.9427C56.2661 2.38653 56.4124 2.89879 56.4124 3.4215C56.4124 3.94422 56.2661 4.4565 55.99 4.90033C55.5331 5.70018 54.858 6.06767 54.4266 6.29465C53.5366 6.74963 52.5311 6.92857 51.5388 6.80855V0.0285552C52.5316 -0.089955 53.5372 0.0907047 54.4266 0.547375Z" fill="#774D10"/>
<path d="M0 6.80843H51.5348C52.5272 6.92845 53.5327 6.74951 54.4227 6.29453C54.8541 6.06755 55.5291 5.70006 55.986 4.90022C56.2415 4.44748 56.3863 3.94075 56.4086 3.42139V26.5775C56.3856 27.0952 56.2409 27.6002 55.986 28.0515C55.5291 28.8523 54.8541 29.2198 54.4227 29.4467C53.6024 29.8691 52.6805 30.0539 51.7608 29.9803V29.9941H0L9.93122 18.3993L0 6.80843Z" fill="url(#paint0_linear_1082_2)"/>
<path d="M17.4383 15.1872V18.2627H19.1481C19.5909 18.2627 19.8873 18.1972 20.0373 18.0662C20.2339 17.8907 20.3449 17.5811 20.3704 17.1377H20.5827V19.8447H20.3704C20.3164 19.4664 20.2633 19.2237 20.2093 19.1166C20.1343 18.9772 20.0155 18.8664 19.8713 18.8012C19.7141 18.7246 19.473 18.6862 19.1481 18.6862H17.4383V21.2509C17.4383 21.5948 17.4537 21.8041 17.4845 21.8787C17.516 21.9546 17.5725 22.0174 17.6447 22.0566C17.7832 22.1116 17.9324 22.1341 18.081 22.1224H19.4036C19.7256 22.135 20.0478 22.1043 20.3616 22.031C20.5791 21.9583 20.7759 21.8343 20.9354 21.6695C21.2301 21.3481 21.4755 20.9848 21.6636 20.5915H21.8935L21.2224 22.542H15.2285V22.3298H15.5046C15.6868 22.3306 15.8663 22.2853 16.0263 22.1981C16.1427 22.1431 16.2325 22.0441 16.2759 21.9229C16.3205 21.8004 16.3424 21.5499 16.3417 21.1713V16.1167C16.3417 15.6235 16.292 15.3195 16.1924 15.2049C16.0548 15.0516 15.8256 14.9749 15.5046 14.9749H15.2285V14.7627H21.2224L21.3079 16.4665H21.0848C21.0042 16.0578 20.9151 15.7767 20.8175 15.6235C20.713 15.4646 20.5616 15.3423 20.3842 15.2736C20.2319 15.2167 19.9617 15.1872 19.5755 15.1872H17.4383Z" fill="black"/>
<path d="M28.8966 20.3911L29.0852 20.4314L28.42 22.542H22.3966V22.3298H22.6914C23.0189 22.3298 23.2541 22.2227 23.3969 22.0084C23.4775 21.8866 23.5178 21.6036 23.5178 21.1595V16.1393C23.5178 15.6539 23.4644 15.35 23.3576 15.2275C23.2082 15.0591 22.9862 14.9749 22.6914 14.9749H22.3966V14.7627H25.9183V14.9749C25.5056 14.971 25.216 15.0093 25.0496 15.0899C24.9054 15.1507 24.7852 15.2574 24.7077 15.3935C24.6468 15.5167 24.6163 15.8095 24.6163 16.272V21.1595C24.6163 21.4765 24.6468 21.6947 24.7077 21.8139C24.7559 21.8962 24.8313 21.9591 24.9209 21.9917C25.0166 22.0297 25.3146 22.0487 25.8151 22.0487H26.3801C26.9775 22.0487 27.3964 22.0048 27.6369 21.917C27.8923 21.8187 28.119 21.6579 28.2962 21.4493C28.4979 21.2253 28.6981 20.8726 28.8966 20.3911Z" fill="black"/>
<path d="M32.9636 22.3298V22.542H29.6306V22.3298H29.9057C30.2267 22.3298 30.4599 22.2361 30.6053 22.0487C30.6977 21.9269 30.7439 21.6321 30.7439 21.1644V16.1384C30.7439 15.7453 30.7183 15.4849 30.6692 15.3581C30.6207 15.2516 30.5376 15.1647 30.4333 15.1115C30.272 15.0217 30.0904 14.9743 29.9057 14.974H29.6306V14.7617H32.9636V14.974H32.6825C32.3652 14.974 32.1333 15.0722 31.9888 15.255C31.8906 15.3778 31.8454 15.6726 31.8454 16.1393V21.1654C31.8454 21.5584 31.8702 21.8185 31.92 21.9456C31.9691 22.0533 32.0542 22.1405 32.1608 22.1922C32.3197 22.2829 32.4996 22.3303 32.6825 22.3298H32.9636Z" fill="black"/>
<path d="M40.0492 14.7627L40.1346 16.5874H39.9165C39.8971 16.3503 39.839 16.118 39.7446 15.8996C39.6402 15.6919 39.4754 15.5206 39.2719 15.4083C39.0292 15.2932 38.7621 15.2389 38.4937 15.2501H37.3981V21.1939C37.3981 21.6724 37.4502 21.9701 37.5533 22.089C37.6988 22.2502 37.9228 22.3298 38.2245 22.3298H38.4937V22.542H35.1951V22.3298H35.4712C35.7994 22.3298 36.0332 22.2315 36.1708 22.035C36.2547 21.9125 36.2966 21.6331 36.2966 21.1968V15.2462H35.3621C35.1011 15.2343 34.8398 15.2615 34.5868 15.3267C34.3768 15.4087 34.1982 15.5553 34.0769 15.7453C33.9209 15.9979 33.8339 16.2868 33.8243 16.5835H33.6062L33.6976 14.7588L40.0492 14.7627Z" fill="black"/>
<path d="M42.8879 15.1872V18.2627H44.5976C45.0404 18.2627 45.3352 18.1972 45.482 18.0662C45.6785 17.8906 45.7892 17.5811 45.8141 17.1376H46.0263V19.8447H45.8141C45.761 19.4664 45.707 19.2237 45.6539 19.1166C45.5788 18.977 45.4596 18.8661 45.3149 18.8012C45.159 18.7245 44.9183 18.6862 44.5927 18.6862H42.8879V21.2508C42.8879 21.5948 42.9026 21.804 42.9341 21.8787C42.9655 21.9546 43.0221 22.0174 43.0942 22.0566C43.2327 22.1116 43.382 22.1341 43.5305 22.1224H44.8501C45.1721 22.135 45.4944 22.1043 45.8082 22.031C46.0257 21.9583 46.2225 21.8343 46.382 21.6694C46.6763 21.3496 46.9216 20.988 47.1101 20.5964H47.3401L46.669 22.5469H40.675V22.3346H40.9512C41.1334 22.3351 41.3128 22.2898 41.4729 22.203C41.5893 22.148 41.6791 22.049 41.7225 21.9279C41.7671 21.8054 41.789 21.5548 41.7883 21.1762V16.1216C41.7883 15.6283 41.7386 15.3244 41.639 15.2098C41.5014 15.0565 41.2715 14.9798 40.9512 14.9798H40.675V14.7676H46.669L46.7544 16.4714H46.5235C46.4439 16.0627 46.3545 15.7836 46.2572 15.6283C46.1528 15.4695 46.0013 15.3472 45.8239 15.2786C45.6706 15.2216 45.4014 15.1921 45.0152 15.1921L42.8879 15.1872Z" fill="black"/>
</g>
<defs>
<linearGradient id="paint0_linear_1082_2" x1="37.6742" y1="16.7102" x2="59.4134" y2="16.7102" gradientUnits="userSpaceOnUse">
<stop stop-color="#F4C87F"/>
<stop offset="1" stop-color="#C19143"/>
</linearGradient>
<clipPath id="clip0_1082_2">
<rect width="56.4125" height="30" fill="white"/>
</clipPath>
</defs>
</svg>
