<svg width="11" height="11" viewBox="0 0 11 11" fill="none" xmlns="http://www.w3.org/2000/svg">
<path d="M9.33333 3.00033L1.9375 10.417C1.77083 10.5837 1.57278 10.667 1.34333 10.667C1.11444 10.667 0.916666 10.5837 0.75 10.417C0.583333 10.2503 0.5 10.0523 0.5 9.82283C0.5 9.59394 0.583333 9.39616 0.75 9.22949L8.16667 1.83366H1.83333C1.59722 1.83366 1.39917 1.75394 1.23917 1.59449C1.07972 1.43449 1 1.23644 1 1.00033C1 0.764214 1.07972 0.566159 1.23917 0.406159C1.39917 0.246715 1.59722 0.166992 1.83333 0.166992H10.1667C10.4028 0.166992 10.6006 0.246715 10.76 0.406159C10.92 0.566159 11 0.764214 11 1.00033V9.33366C11 9.56977 10.92 9.76755 10.76 9.92699C10.6006 10.087 10.4028 10.167 10.1667 10.167C9.93056 10.167 9.73278 10.087 9.57333 9.92699C9.41333 9.76755 9.33333 9.56977 9.33333 9.33366V3.00033Z" fill="#004439"/>
</svg>
