<svg width="24" height="24" viewBox="0 0 24 24" fill="none" xmlns="http://www.w3.org/2000/svg">
<path d="M9 11C9 11.7956 9.31607 12.5587 9.87868 13.1213C10.4413 13.6839 11.2044 14 12 14C12.7956 14 13.5587 13.6839 14.1213 13.1213C14.6839 12.5587 15 11.7956 15 11C15 10.2044 14.6839 9.44129 14.1213 8.87868C13.5587 8.31607 12.7956 8 12 8C11.2044 8 10.4413 8.31607 9.87868 8.87868C9.31607 9.44129 9 10.2044 9 11Z" stroke="white" strokeWidth="2" strokeLinecap="round" strokeLinejoin="round"/>
<path d="M12.7941 21.322C12.4263 21.4808 12.0193 21.5255 11.6257 21.4502C11.2322 21.375 10.8704 21.1833 10.5871 20.9L6.34311 16.657C5.38184 15.6954 4.68153 14.5046 4.30829 13.1972C3.93505 11.8897 3.90121 10.5087 4.20995 9.18458C4.5187 7.86041 5.15985 6.63679 6.07286 5.62925C6.98587 4.62171 8.14061 3.86349 9.42805 3.4262C10.7155 2.9889 12.0931 2.88696 13.4309 3.13C14.7687 3.37303 16.0225 3.95302 17.0738 4.81521C18.1252 5.67739 18.9395 6.79332 19.4398 8.05761C19.94 9.32191 20.1098 10.6929 19.9331 12.041M16.0001 19H22.0001M19.0001 16V22" stroke="white" strokeWidth="2" strokeLinecap="round" strokeLinejoin="round"/>
</svg>
