<svg width="30" height="31" viewBox="0 0 30 31" fill="none" xmlns="http://www.w3.org/2000/svg">
<g filter="url(#filter0_d_2541_35)">
<path d="M8.92848 8.88049L8.74521 9.0221C8.63726 9.11646 8.49673 9.16491 8.35356 9.15713C8.21039 9.14935 8.07593 9.08595 7.97884 8.98045C7.9358 8.92564 7.9049 8.86231 7.8882 8.79465C7.87151 8.72699 7.8694 8.65656 7.882 8.58802C7.89461 8.51948 7.92165 8.4544 7.96132 8.39711C8.00099 8.33982 8.0524 8.29162 8.11212 8.25571L15.6095 2.15789C15.7163 2.05652 15.8579 2 16.0051 2C16.1524 2 16.294 2.05652 16.4008 2.15789L21.0658 5.95653C22.0072 6.7146 22.9485 7.48099 23.8732 8.24738C23.9861 8.33792 24.0701 8.45955 24.1148 8.59726C24.1383 8.68711 24.1305 8.7823 24.0926 8.86712C24.0548 8.95193 23.9891 9.0213 23.9065 9.06376C23.8198 9.12039 23.7185 9.15055 23.6149 9.15055C23.5114 9.15055 23.4101 9.12039 23.3234 9.06376C23.2401 9.01378 23.1734 8.94714 23.0735 8.87216V14.8034C23.3051 14.8052 23.5362 14.8247 23.7649 14.8617C24.0541 14.9118 24.323 15.0435 24.5399 15.2413C24.7569 15.439 24.9128 15.6946 24.9894 15.978C25.0718 16.2449 25.0739 16.5301 24.9954 16.7982C24.9169 17.0663 24.7613 17.3054 24.5479 17.4858C22.5619 19.481 20.0852 20.9176 17.3672 21.6509C16.697 21.8187 16.0145 21.9329 15.3262 21.9925C14.4465 22.0388 13.5687 21.8701 12.7688 21.501C12.094 21.2344 11.4359 20.9179 10.7862 20.6097C10.6735 20.5358 10.5418 20.4965 10.4071 20.4965C10.2725 20.4965 10.1407 20.5358 10.0281 20.6097C9.46996 20.9679 8.91183 21.3094 8.36203 21.6509C8.30346 21.7175 8.22769 21.7667 8.14304 21.7931C8.05838 21.8195 7.9681 21.8221 7.88208 21.8006C7.79605 21.7791 7.71759 21.7343 7.65531 21.6712C7.59303 21.608 7.54934 21.529 7.52899 21.4427L5.12984 16.9609C5.07118 16.8955 5.03049 16.816 5.01173 16.7302C4.99296 16.6444 4.99677 16.5551 5.02278 16.4712C5.0488 16.3873 5.09612 16.3116 5.16014 16.2514C5.22417 16.1912 5.3027 16.1487 5.38808 16.1279L6.00454 15.8114C6.58987 15.5374 7.14775 15.2082 7.67062 14.8284C8.02528 14.5923 8.39232 14.3754 8.77021 14.1786C8.80655 14.1571 8.83796 14.1282 8.86236 14.0938C8.88676 14.0593 8.90363 14.0201 8.91183 13.9787C8.91183 12.3126 8.91183 10.6465 8.91183 8.98045C8.91183 8.98045 8.93681 8.97212 8.92848 8.88049ZM18.9832 17.1359L19.0749 17.0776C20.0246 16.5028 20.9659 15.928 21.9239 15.3615C21.9841 15.3327 22.034 15.2861 22.0668 15.228C22.0996 15.1699 22.1137 15.1031 22.1071 15.0366V8.33068C22.1134 8.25392 22.0998 8.17684 22.0677 8.10682C22.0356 8.03681 21.9861 7.97621 21.9239 7.93083L17.6837 4.48205L16.0176 3.1242L15.9427 3.17418L9.97812 7.99747C9.90644 8.06805 9.86467 8.1635 9.86148 8.26404V13.5955C9.86148 13.6538 9.86148 13.7204 9.86148 13.8037C11.0611 13.4547 12.348 13.5677 13.4685 14.1203V13.8537C13.4685 13.0207 13.4685 12.1876 13.5102 11.3546C13.6369 10.7706 13.9686 10.2513 14.4453 9.89095C14.922 9.53055 15.512 9.35288 16.1084 9.39015C16.7048 9.42743 17.2681 9.67719 17.6962 10.0941C18.1243 10.5111 18.3888 11.0676 18.4418 11.6628C18.4418 12.9624 18.4418 14.2702 18.4418 15.5698C18.4336 15.6456 18.4463 15.7221 18.4786 15.7912C18.511 15.8602 18.5616 15.9191 18.625 15.9613C18.7858 16.0679 18.9076 16.2238 18.9722 16.4056C19.0368 16.5873 19.0406 16.7851 18.9832 16.9693C19.0082 17.0109 18.9999 17.0609 18.9832 17.1359ZM8.07046 15.7447C8.73689 17.0026 9.395 18.2438 10.0614 19.4517C10.083 19.4767 10.1099 19.4965 10.1402 19.5095C10.1705 19.5225 10.2034 19.5284 10.2364 19.5267C10.5788 19.5055 10.9201 19.5836 11.2193 19.7516C11.7441 20.0099 12.2773 20.2598 12.8104 20.493C13.9123 21.0087 15.1521 21.152 16.3425 20.9012C18.296 20.484 20.144 19.6734 21.7739 18.5187C22.5346 17.9899 23.2481 17.3962 23.9065 16.7444C23.9734 16.6846 24.0249 16.6095 24.0566 16.5256C24.0883 16.4416 24.0994 16.3513 24.0887 16.2622C24.0781 16.1731 24.0461 16.0878 23.9956 16.0137C23.945 15.9396 23.8773 15.8787 23.7982 15.8364C23.6801 15.7606 23.5428 15.7204 23.4025 15.7204C23.2622 15.7204 23.1249 15.7606 23.0068 15.8364C21.8906 16.5111 20.7743 17.1942 19.6747 17.844C19.3009 18.0662 18.9043 18.2478 18.4918 18.3854C17.1797 18.7746 15.8012 18.888 14.4432 18.7187C14.0596 18.6589 13.6829 18.5612 13.3186 18.4271C13.2193 18.3862 13.1387 18.3098 13.0926 18.2128C13.0464 18.1159 13.0379 18.0052 13.0687 17.9023C13.0959 17.7952 13.1603 17.7013 13.2503 17.6372C13.3403 17.5731 13.4501 17.5431 13.5602 17.5524C13.6454 17.557 13.7296 17.5738 13.8101 17.6024C14.6553 17.8779 15.5595 17.9182 16.4258 17.719C16.9871 17.6129 17.5102 17.36 17.942 16.9859C18.0336 16.8873 18.1172 16.7815 18.1919 16.6694C17.9253 16.6194 17.717 16.5528 17.5004 16.5278C16.6776 16.4832 15.8606 16.3633 15.0597 16.1696C14.6137 16.0888 14.2019 15.8771 13.8767 15.5615C13.4819 15.1354 12.9632 14.844 12.3939 14.7284C11.643 14.5674 10.8656 14.575 10.118 14.7507C9.37034 14.9265 8.67101 15.266 8.07046 15.7447ZM17.5088 15.5615C17.5133 15.5395 17.5133 15.5168 17.5088 15.4948C17.5088 14.1786 17.5088 12.8707 17.5088 11.5545C17.5019 11.3293 17.4446 11.1084 17.341 10.9082C17.2375 10.708 17.0905 10.5336 16.9106 10.3977C16.7308 10.2619 16.5228 10.1681 16.302 10.1232C16.0811 10.0783 15.853 10.0835 15.6344 10.1384C15.285 10.2339 14.978 10.4446 14.7633 10.7365C14.5486 11.0283 14.4387 11.3841 14.4515 11.7461C14.4515 12.7125 14.4515 13.6871 14.4515 14.6534C14.4458 14.723 14.4609 14.7927 14.4951 14.8535C14.5292 14.9144 14.5808 14.9636 14.6431 14.995C14.7147 15.0378 14.79 15.074 14.868 15.1033C15.7104 15.3814 16.5887 15.5357 17.4755 15.5615H17.5088ZM7.22911 16.3029L6.17113 16.8443L8.19541 20.643L9.2367 19.9849L7.22911 16.3029Z" fill="white" stroke="white" strokeWidth="0.5"/>
</g>
<defs>
<filter id="filter0_d_2541_35" x="-1" y="0" width="32" height="32" filterUnits="userSpaceOnUse" color-interpolation-filters="sRGB">
<feFlood flood-opacity="0" result="BackgroundImageFix"/>
<feColorMatrix in="SourceAlpha" type="matrix" values="0 0 0 0 0 0 0 0 0 0 0 0 0 0 0 0 0 0 127 0" result="hardAlpha"/>
<feOffset dy="4"/>
<feGaussianBlur stdDeviation="2"/>
<feComposite in2="hardAlpha" operator="out"/>
<feColorMatrix type="matrix" values="0 0 0 0 0 0 0 0 0 0 0 0 0 0 0 0 0 0 0.25 0"/>
<feBlend mode="normal" in2="BackgroundImageFix" result="effect1_dropShadow_2541_35"/>
<feBlend mode="normal" in="SourceGraphic" in2="effect1_dropShadow_2541_35" result="shape"/>
</filter>
</defs>
</svg>
