<svg width="19" height="5" viewBox="0 0 19 5" fill="none" xmlns="http://www.w3.org/2000/svg">
<path opacity="0.5" d="M2.90641 4.16003C2.30641 4.16003 1.81307 3.9867 1.42641 3.64003C1.05307 3.28003 0.866406 2.84003 0.866406 2.32003C0.866406 1.7867 1.05307 1.34003 1.42641 0.98003C1.81307 0.62003 2.30641 0.44003 2.90641 0.44003C3.49307 0.44003 3.97307 0.62003 4.34641 0.98003C4.73307 1.34003 4.92641 1.7867 4.92641 2.32003C4.92641 2.84003 4.73307 3.28003 4.34641 3.64003C3.97307 3.9867 3.49307 4.16003 2.90641 4.16003ZM9.55094 4.16003C8.95094 4.16003 8.4576 3.9867 8.07094 3.64003C7.6976 3.28003 7.51094 2.84003 7.51094 2.32003C7.51094 1.7867 7.6976 1.34003 8.07094 0.98003C8.4576 0.62003 8.95094 0.44003 9.55094 0.44003C10.1376 0.44003 10.6176 0.62003 10.9909 0.98003C11.3776 1.34003 11.5709 1.7867 11.5709 2.32003C11.5709 2.84003 11.3776 3.28003 10.9909 3.64003C10.6176 3.9867 10.1376 4.16003 9.55094 4.16003ZM16.1955 4.16003C15.5955 4.16003 15.1021 3.9867 14.7155 3.64003C14.3421 3.28003 14.1555 2.84003 14.1555 2.32003C14.1555 1.7867 14.3421 1.34003 14.7155 0.98003C15.1021 0.62003 15.5955 0.44003 16.1955 0.44003C16.7821 0.44003 17.2621 0.62003 17.6355 0.98003C18.0221 1.34003 18.2155 1.7867 18.2155 2.32003C18.2155 2.84003 18.0221 3.28003 17.6355 3.64003C17.2621 3.9867 16.7821 4.16003 16.1955 4.16003Z" fill="#151515"/>
</svg>
