<svg width="184" height="31" viewBox="0 0 184 31" fill="none" xmlns="http://www.w3.org/2000/svg">
<path d="M24.8122 11.2802C24.6807 9.7115 24.2541 8.18171 23.5548 6.77131C22.3979 4.41494 20.492 2.50898 18.1356 1.35216C15.9959 0.244275 13.5723 -0.193884 11.1802 0.0947038C9.34294 0.302109 7.56906 0.88982 5.97146 1.82041C3.76331 3.17507 2.03145 5.18333 1.0161 7.56662C0.000744842 9.94992 -0.24777 12.5901 0.305021 15.121C0.941639 17.9779 2.74627 20.3508 4.75083 22.4027C6.96584 24.6756 9.25451 26.8695 11.5116 29.1056C11.7852 29.3844 12.0746 29.6317 12.4534 30C12.8059 29.6738 13.069 29.4423 13.3162 29.195C18.2882 24.2546 25.5488 19.209 24.8122 11.2802ZM19.2089 16.3153C19.2096 16.7042 19.1078 17.0865 18.9138 17.4236C18.7199 17.7607 18.4406 18.0408 18.104 18.2357C17.7139 18.4755 17.2622 18.5962 16.8045 18.583H8.08124C7.57725 18.5986 7.08141 18.453 6.66594 18.1673C6.22707 17.8664 5.90411 17.4246 5.75048 16.9151C5.67818 16.6513 5.64451 16.3784 5.65052 16.1049C5.65052 14.1757 5.65052 12.2466 5.65052 10.3174C5.64578 10.1627 5.67706 10.0089 5.74188 9.86833C5.80671 9.72772 5.9033 9.60409 6.02406 9.50719C6.808 8.839 7.60246 8.17082 8.37587 7.49737L10.8013 5.42967L11.8536 4.54578C12.0139 4.40799 12.2183 4.33223 12.4297 4.33223C12.6411 4.33223 12.8455 4.40799 13.0058 4.54578C13.7477 5.16661 14.479 5.78744 15.2103 6.41354L17.3148 8.21291C17.841 8.66012 18.3671 9.11259 18.8932 9.57032C18.9909 9.65059 19.0691 9.75194 19.1219 9.86676C19.1748 9.98158 19.2009 10.1069 19.1984 10.2333C19.2037 12.2536 19.2142 14.2845 19.1931 16.3153H19.2089Z" fill="white"/>
<path d="M15.221 9.13364L13.6952 7.83935L12.522 6.8397C12.4799 6.80287 12.4378 6.75552 12.3641 6.8397L11.0593 7.94457L9.17578 9.5598L7.87624 10.6647C7.84876 10.6878 7.8269 10.7169 7.81232 10.7497C7.79773 10.7825 7.7908 10.8182 7.79205 10.8541C7.79205 12.5377 7.79205 14.2213 7.79205 15.9049C7.78558 15.9757 7.79475 16.0469 7.81891 16.1137C7.84306 16.1805 7.8816 16.2411 7.93181 16.2913C7.98202 16.3415 8.04266 16.3801 8.10944 16.4042C8.17621 16.4284 8.24747 16.4375 8.31818 16.4311H16.4995C16.57 16.4366 16.6409 16.4268 16.7072 16.4023C16.7736 16.3778 16.8338 16.3393 16.8838 16.2893C16.9339 16.2393 16.9724 16.179 16.9969 16.1127C17.0214 16.0463 17.0312 15.9754 17.0257 15.9049V10.833C17.024 10.7736 16.9995 10.7171 16.9573 10.6752L15.221 9.13364Z" fill="white"/>
<path d="M34.856 20.64H42.104V24H30.2V20.88L37.4 10.512H30.2V7.152H42.104V10.272L34.856 20.64ZM46.8489 9.216C46.1289 9.216 45.5369 9.008 45.0729 8.592C44.6249 8.16 44.4009 7.632 44.4009 7.008C44.4009 6.368 44.6249 5.84 45.0729 5.424C45.5369 4.992 46.1289 4.776 46.8489 4.776C47.5529 4.776 48.1289 4.992 48.5769 5.424C49.0409 5.84 49.2729 6.368 49.2729 7.008C49.2729 7.632 49.0409 8.16 48.5769 8.592C48.1289 9.008 47.5529 9.216 46.8489 9.216ZM48.8889 10.608V24H44.7849V10.608H48.8889ZM55.967 6.24V24H51.863V6.24H55.967ZM58.1251 17.28C58.1251 15.904 58.3811 14.696 58.8931 13.656C59.4211 12.616 60.1331 11.816 61.0291 11.256C61.9251 10.696 62.9251 10.416 64.0291 10.416C64.9731 10.416 65.7971 10.608 66.5011 10.992C67.2211 11.376 67.7731 11.88 68.1571 12.504V10.608H72.2611V24H68.1571V22.104C67.7571 22.728 67.1971 23.232 66.4771 23.616C65.7731 24 64.9491 24.192 64.0051 24.192C62.9171 24.192 61.9251 23.912 61.0291 23.352C60.1331 22.776 59.4211 21.968 58.8931 20.928C58.3811 19.872 58.1251 18.656 58.1251 17.28ZM68.1571 17.304C68.1571 16.28 67.8691 15.472 67.2931 14.88C66.7331 14.288 66.0451 13.992 65.2291 13.992C64.4131 13.992 63.7171 14.288 63.1411 14.88C62.5811 15.456 62.3011 16.256 62.3011 17.28C62.3011 18.304 62.5811 19.12 63.1411 19.728C63.7171 20.32 64.4131 20.616 65.2291 20.616C66.0451 20.616 66.7331 20.32 67.2931 19.728C67.8691 19.136 68.1571 18.328 68.1571 17.304ZM74.4142 17.28C74.4142 15.904 74.6702 14.696 75.1822 13.656C75.7102 12.616 76.4222 11.816 77.3182 11.256C78.2142 10.696 79.2142 10.416 80.3182 10.416C81.2622 10.416 82.0862 10.608 82.7902 10.992C83.5102 11.376 84.0622 11.88 84.4462 12.504V10.608H88.5502V24H84.4462V22.104C84.0462 22.728 83.4862 23.232 82.7662 23.616C82.0622 24 81.2382 24.192 80.2942 24.192C79.2062 24.192 78.2142 23.912 77.3182 23.352C76.4222 22.776 75.7102 21.968 75.1822 20.928C74.6702 19.872 74.4142 18.656 74.4142 17.28ZM84.4462 17.304C84.4462 16.28 84.1582 15.472 83.5822 14.88C83.0222 14.288 82.3342 13.992 81.5182 13.992C80.7022 13.992 80.0062 14.288 79.4302 14.88C78.8702 15.456 78.5902 16.256 78.5902 17.28C78.5902 18.304 78.8702 19.12 79.4302 19.728C80.0062 20.32 80.7022 20.616 81.5182 20.616C82.3342 20.616 83.0222 20.32 83.5822 19.728C84.1582 19.136 84.4462 18.328 84.4462 17.304ZM105.199 10.608L96.7993 30.36H92.3833L95.4553 23.544L90.0072 10.608H94.5913L97.6873 18.984L100.759 10.608H105.199ZM112.995 7.152C114.771 7.152 116.323 7.504 117.651 8.208C118.979 8.912 120.003 9.904 120.723 11.184C121.459 12.448 121.827 13.912 121.827 15.576C121.827 17.224 121.459 18.688 120.723 19.968C120.003 21.248 118.971 22.24 117.627 22.944C116.299 23.648 114.755 24 112.995 24H106.683V7.152H112.995ZM112.731 20.448C114.283 20.448 115.491 20.024 116.355 19.176C117.219 18.328 117.651 17.128 117.651 15.576C117.651 14.024 117.219 12.816 116.355 11.952C115.491 11.088 114.283 10.656 112.731 10.656H110.787V20.448H112.731ZM123.305 17.28C123.305 15.904 123.561 14.696 124.073 13.656C124.601 12.616 125.313 11.816 126.209 11.256C127.105 10.696 128.105 10.416 129.209 10.416C130.153 10.416 130.977 10.608 131.681 10.992C132.401 11.376 132.953 11.88 133.337 12.504V10.608H137.441V24H133.337V22.104C132.937 22.728 132.377 23.232 131.657 23.616C130.953 24 130.129 24.192 129.185 24.192C128.097 24.192 127.105 23.912 126.209 23.352C125.313 22.776 124.601 21.968 124.073 20.928C123.561 19.872 123.305 18.656 123.305 17.28ZM133.337 17.304C133.337 16.28 133.049 15.472 132.473 14.88C131.913 14.288 131.225 13.992 130.409 13.992C129.593 13.992 128.897 14.288 128.321 14.88C127.761 15.456 127.481 16.256 127.481 17.28C127.481 18.304 127.761 19.12 128.321 19.728C128.897 20.32 129.593 20.616 130.409 20.616C131.225 20.616 131.913 20.32 132.473 19.728C133.049 19.136 133.337 18.328 133.337 17.304ZM147.13 14.016H144.922V24H140.818V14.016H139.33V10.608H140.818V10.224C140.818 8.576 141.29 7.328 142.234 6.48C143.178 5.616 144.562 5.184 146.386 5.184C146.69 5.184 146.914 5.192 147.058 5.208V8.688C146.274 8.64 145.722 8.752 145.402 9.024C145.082 9.296 144.922 9.784 144.922 10.488V10.608H147.13V14.016ZM156.522 20.52V24H154.434C152.946 24 151.786 23.64 150.954 22.92C150.122 22.184 149.706 20.992 149.706 19.344V14.016H148.074V10.608H149.706V7.344H153.81V10.608H156.498V14.016H153.81V19.392C153.81 19.792 153.906 20.08 154.098 20.256C154.29 20.432 154.61 20.52 155.058 20.52H156.522ZM157.992 17.28C157.992 15.904 158.248 14.696 158.76 13.656C159.288 12.616 160 11.816 160.896 11.256C161.792 10.696 162.792 10.416 163.896 10.416C164.84 10.416 165.664 10.608 166.368 10.992C167.088 11.376 167.64 11.88 168.024 12.504V10.608H172.128V24H168.024V22.104C167.624 22.728 167.064 23.232 166.344 23.616C165.64 24 164.816 24.192 163.872 24.192C162.784 24.192 161.792 23.912 160.896 23.352C160 22.776 159.288 21.968 158.76 20.928C158.248 19.872 157.992 18.656 157.992 17.28ZM168.024 17.304C168.024 16.28 167.736 15.472 167.16 14.88C166.6 14.288 165.912 13.992 165.096 13.992C164.28 13.992 163.584 14.288 163.008 14.88C162.448 15.456 162.168 16.256 162.168 17.28C162.168 18.304 162.448 19.12 163.008 19.728C163.584 20.32 164.28 20.616 165.096 20.616C165.912 20.616 166.6 20.32 167.16 19.728C167.736 19.136 168.024 18.328 168.024 17.304ZM179.201 12.84C179.681 12.104 180.281 11.528 181.001 11.112C181.721 10.68 182.521 10.464 183.401 10.464V14.808H182.273C181.249 14.808 180.481 15.032 179.969 15.48C179.457 15.912 179.201 16.68 179.201 17.784V24H175.097V10.608H179.201V12.84Z" fill="white"/>
</svg>
