<svg width="24" height="25" viewBox="0 0 24 25" fill="none" xmlns="http://www.w3.org/2000/svg">
<g opacity="0.5">
<path d="M21 10.5H7V7.5C7 6.397 7.897 5.5 9 5.5C10.103 5.5 11 6.397 11 7.5H13C13 5.294 11.206 3.5 9 3.5C6.794 3.5 5 5.294 5 7.5V10.5H3C2.73478 10.5 2.48043 10.6054 2.29289 10.7929C2.10536 10.9804 2 11.2348 2 11.5V13.5C2 16.106 3.674 18.323 6 19.15V22.5H8V19.5H16V22.5H18V19.15C20.326 18.323 22 16.106 22 13.5V11.5C22 11.2348 21.8946 10.9804 21.7071 10.7929C21.5196 10.6054 21.2652 10.5 21 10.5ZM20 13.5C20 15.706 18.206 17.5 16 17.5H8C5.794 17.5 4 15.706 4 13.5V12.5H20V13.5Z" fill="#151515"/>
</g>
</svg>
