<svg width="24" height="25" viewBox="0 0 24 25" fill="none" xmlns="http://www.w3.org/2000/svg">
<g opacity="0.5">
<path d="M7 13C7.59334 13 8.17336 12.8241 8.66671 12.4944C9.16006 12.1648 9.54458 11.6962 9.77164 11.1481C9.9987 10.5999 10.0581 9.99667 9.94236 9.41473C9.8266 8.83279 9.54088 8.29824 9.12132 7.87868C8.70176 7.45912 8.16721 7.1734 7.58527 7.05764C7.00333 6.94189 6.40013 7.0013 5.85195 7.22836C5.30377 7.45542 4.83524 7.83994 4.50559 8.33329C4.17595 8.82664 4 9.40666 4 10C4 10.7956 4.31607 11.5587 4.87868 12.1213C5.44129 12.6839 6.20435 13 7 13ZM7 9C7.19778 9 7.39112 9.05865 7.55557 9.16853C7.72002 9.27841 7.84819 9.43459 7.92388 9.61732C7.99957 9.80004 8.01937 10.0011 7.98079 10.1951C7.9422 10.3891 7.84696 10.5673 7.70711 10.7071C7.56725 10.847 7.38907 10.9422 7.19509 10.9808C7.00111 11.0194 6.80004 10.9996 6.61732 10.9239C6.43459 10.8482 6.27841 10.72 6.16853 10.5556C6.05865 10.3911 6 10.1978 6 10C6 9.73478 6.10536 9.48043 6.29289 9.29289C6.48043 9.10536 6.73478 9 7 9ZM20 7H12C11.7348 7 11.4804 7.10536 11.2929 7.29289C11.1054 7.48043 11 7.73478 11 8V14H3V6C3 5.73478 2.89464 5.48043 2.70711 5.29289C2.51957 5.10536 2.26522 5 2 5C1.73478 5 1.48043 5.10536 1.29289 5.29289C1.10536 5.48043 1 5.73478 1 6V19C1 19.2652 1.10536 19.5196 1.29289 19.7071C1.48043 19.8946 1.73478 20 2 20C2.26522 20 2.51957 19.8946 2.70711 19.7071C2.89464 19.5196 3 19.2652 3 19V16H21V19C21 19.2652 21.1054 19.5196 21.2929 19.7071C21.4804 19.8946 21.7348 20 22 20C22.2652 20 22.5196 19.8946 22.7071 19.7071C22.8946 19.5196 23 19.2652 23 19V10C23 9.20435 22.6839 8.44129 22.1213 7.87868C21.5587 7.31607 20.7956 7 20 7ZM21 14H13V9H20C20.2652 9 20.5196 9.10536 20.7071 9.29289C20.8946 9.48043 21 9.73478 21 10V14Z" fill="#151515"/>
</g>
</svg>
