<svg width="24" height="25" viewBox="0 0 24 25" fill="none" xmlns="http://www.w3.org/2000/svg">
<g opacity="0.5" clipPath="url(#clip0_303_2577)">
<path d="M9.396 1.70683L9.31512 1.77499L8.34576 2.75131L9.19704 3.59683L9.9372 2.85211L10.6202 2.99515L10.8662 1.82083L9.864 1.61035L9.396 1.70683ZM11.7948 3.24115L14.1437 3.73387L14.3899 2.55907L12.041 2.06707L11.7948 3.24115ZM15.318 3.97987L17.6669 4.47187L17.9129 3.29779L15.564 2.80507L15.318 3.97987ZM5.80848 5.30515L6.65976 6.15067L8.35152 4.44811L7.50024 3.60259L5.80848 5.30515ZM3.27168 7.85923L4.12272 8.70499L5.814 7.00243L4.96272 6.15667L3.27168 7.85923ZM0.734162 10.4136L1.58616 11.2591L3.2772 9.55603L2.42592 8.71051L0.734162 10.4136ZM17.7686 11.38L18.707 12.1276L19.5326 11.0748L19.2643 9.50275L17.7686 11.38ZM0.594482 12.0967L1.94256 14.0824L2.93544 13.4083L1.58736 11.4228L0.594482 12.0967ZM15.5251 14.1952L16.4635 14.9431L17.9594 13.0663L17.021 12.3184L15.5251 14.1952ZM2.61672 15.0753L3.96552 17.0606L4.95768 16.3864L3.6096 14.4014L2.61672 15.0753ZM13.2818 17.0114L14.2202 17.759L15.7159 15.8822L14.7775 15.1341L13.2818 17.0114ZM4.6392 18.0532L5.98728 20.0388L6.98016 19.3648L5.63208 17.3791L4.6392 18.0532ZM11.0381 19.8264L11.9765 20.5742L13.4722 18.6974L12.5338 17.9496L11.0381 19.8264ZM6.66144 21.0316L8.00952 23.0172L9.00216 22.3428L7.65408 20.3575L6.66144 21.0316ZM8.79456 22.6418L9.73296 23.3899L11.2289 21.5126L10.2905 20.765L8.79456 22.6418Z" fill="black"/>
<path d="M5.80851 5.30495C5.69679 5.30424 5.58606 5.32582 5.48278 5.36843C5.37951 5.41104 5.28578 5.47383 5.20707 5.55311L0.243867 10.5494C0.10643 10.6878 0.0214011 10.8696 0.00336002 11.0638C-0.0146811 11.2579 0.0353899 11.4523 0.144987 11.6136L4.68723 18.3024C4.76117 18.4113 4.85968 18.5014 4.97483 18.5652C5.08997 18.6291 5.21851 18.665 5.35008 18.6701C5.48165 18.6751 5.61257 18.6491 5.73226 18.5943C5.85196 18.5394 5.95708 18.4572 6.03915 18.3542L14.0777 8.26511C14.1669 8.15301 14.226 8.01994 14.2493 7.87856C14.2726 7.73719 14.2594 7.5922 14.2109 7.45738C14.1623 7.32257 14.0801 7.20241 13.972 7.10833C13.864 7.01426 13.7336 6.94939 13.5934 6.91991L5.97531 5.32295C5.92044 5.31148 5.86456 5.30529 5.80851 5.30495ZM6.07755 7.06103L11.9143 8.28455L5.43627 16.415L1.92339 11.2423L6.07755 7.06103Z" fill="black"/>
<path fillRule="evenodd" clipRule="evenodd" d="M18.8962 2.34033L19.5226 5.07537L15.1678 6.07233L15.817 8.90817L20.172 7.91121L20.7982 10.6463L24 5.54265L18.8962 2.34033Z" fill="black"/>
</g>
<defs>
<clipPath id="clip0_303_2577">
<rect width="24" height="24" fill="white" transform="translate(0 0.5)"/>
</clipPath>
</defs>
</svg>
