<svg id="SvgjsSvg1001" width="288" height="288" xmlns="http://www.w3.org/2000/svg" version="1.1" xmlns:xlink="http://www.w3.org/1999/xlink" xmlns:svgjs="http://svgjs.com/svgjs"><defs id="SvgjsDefs1002"></defs><g id="SvgjsG1008"><svg xmlns="http://www.w3.org/2000/svg" fill="none" viewBox="0 0 25 24" width="288" height="288"><g clipPath="url(#a)" fill="#004439" class="color000 svgShape"><path fill="#004439" d="M12.8171 22.8533C13.2371 22.8437 13.6401 22.6858 13.9549 22.4076 14.2696 22.1294 14.4759 21.7489 14.5371 21.3333H11.0305C11.0934 21.7602 11.3093 22.1497 11.638 22.4293 11.9666 22.7089 12.3857 22.8596 12.8171 22.8533zM22.4905 18.5533C21.8476 17.9802 21.2848 17.3232 20.8171 16.6 20.3066 15.6017 20.0006 14.5115 19.9171 13.3933V10.1C19.9144 9.69997 19.8787 9.30084 19.8105 8.90667 19.2857 8.80178 18.7814 8.61266 18.3171 8.34667 18.4941 8.91656 18.584 9.50992 18.5838 10.1067V13.4C18.6655 14.764 19.0407 16.0943 19.6838 17.3 20.1441 18.0293 20.6902 18.7008 21.3105 19.3H4.23713C4.8574 18.7008 5.40353 18.0293 5.8638 17.3 6.50687 16.0943 6.88208 14.764 6.9638 13.4V10.1C6.96029 9.32846 7.109 8.5638 7.40142 7.84981 7.69385 7.13583 8.12423 6.48653 8.66794 5.93911 9.21165 5.39169 9.858 4.95689 10.57 4.65961 11.282 4.36233 12.0456 4.20841 12.8171 4.20667 13.9463 4.20757 15.0501 4.5415 15.9905 5.16667 15.8868 4.78599 15.8286 4.39437 15.8171 4V3.58C15.121 3.23757 14.3732 3.01233 13.6038 2.91333V2.07333C13.6038 1.83729 13.51 1.61091 13.3431 1.44401 13.1762 1.2771 12.9498 1.18333 12.7138 1.18333 12.4778 1.18333 12.2514 1.2771 12.0845 1.44401 11.9176 1.61091 11.8238 1.83729 11.8238 2.07333V2.94667C10.1009 3.1897 8.52418 4.04783 7.38461 5.36262 6.24504 6.67741 5.61962 8.36009 5.6238 10.1V13.3933C5.5403 14.5115 5.23432 15.6017 4.7238 16.6 4.26439 17.3216 3.71059 17.9785 3.07713 18.5533 3.00602 18.6158 2.94902 18.6927 2.90994 18.7789 2.87086 18.8651 2.85058 18.9587 2.85046 19.0533V19.96C2.85046 20.1368 2.9207 20.3064 3.04573 20.4314 3.17075 20.5564 3.34032 20.6267 3.51713 20.6267H22.0505C22.2273 20.6267 22.3968 20.5564 22.5219 20.4314 22.6469 20.3064 22.7171 20.1368 22.7171 19.96V19.0533C22.717 18.9587 22.6967 18.8651 22.6577 18.7789 22.6186 18.6927 22.5616 18.6158 22.4905 18.5533z" class="colorfff svgShape"></path><path fill="#f31e1e" d="M20.8172 7.33333C22.6581 7.33333 24.1505 5.84095 24.1505 4C24.1505 2.15905 22.6581 0.666666 20.8172 0.666666C18.9762 0.666666 17.4838 2.15905 17.4838 4C17.4838 5.84095 18.9762 7.33333 20.8172 7.33333Z" class="colorF31E1E svgShape"></path></g><defs><clipPath id="a"><rect width="24" height="24" fill="#004439" transform="translate(.817)" class="colorfff svgShape"></rect></clipPath></defs></svg></g></svg>