<svg width="198" height="35" viewBox="0 0 198 35" fill="none" xmlns="http://www.w3.org/2000/svg">
<g clipPath="url(#clip0_285_9)">
<path d="M28.9477 13.1603C28.7943 11.3301 28.2966 9.54532 27.4807 7.89986C26.1311 5.15076 23.9075 2.92715 21.1584 1.57752C18.6621 0.284986 15.8345 -0.226199 13.0437 0.110486C10.9003 0.352459 8.83073 1.03812 6.96686 2.12381C4.39068 3.70425 2.37018 6.04722 1.18561 8.82773C0.0010292 11.6082 -0.288904 14.6885 0.356018 17.6412C1.09874 20.9742 3.20414 23.7425 5.54279 26.1364C8.12697 28.7881 10.7971 31.3478 13.4304 33.9565C13.7496 34.2818 14.0872 34.5703 14.5291 35C14.9404 34.6194 15.2473 34.3493 15.5358 34.0609C21.3364 28.2971 29.8071 22.4106 28.9477 13.1603ZM22.4106 19.0345C22.4113 19.4883 22.2926 19.9342 22.0663 20.3275C21.84 20.7208 21.5142 21.0476 21.1215 21.275C20.6664 21.5548 20.1394 21.6956 19.6054 21.6801H9.42827C8.84029 21.6984 8.26181 21.5285 7.77709 21.1952C7.26508 20.8441 6.88828 20.3287 6.70905 19.7343C6.62471 19.4265 6.58542 19.1081 6.59243 18.789C6.59243 16.5384 6.59243 14.2877 6.59243 12.037C6.5869 11.8565 6.62339 11.6771 6.69902 11.513C6.77465 11.349 6.88735 11.2048 7.02823 11.0917C7.94283 10.3122 8.86969 9.53262 9.77201 8.74693L12.6017 6.33462L13.8294 5.30341C14.0164 5.14266 14.2549 5.05427 14.5015 5.05427C14.7481 5.05427 14.9866 5.14266 15.1736 5.30341C16.0391 6.02771 16.8923 6.75201 17.7455 7.48246L20.2008 9.58173C20.8146 10.1035 21.4284 10.6314 22.0423 11.1654C22.1562 11.259 22.2474 11.3773 22.3091 11.5112C22.3707 11.6452 22.4012 11.7914 22.3983 11.9388C22.4044 14.2959 22.4167 16.6652 22.3921 19.0345H22.4106Z" fill="white"/>
<path d="M17.7578 10.6559L15.9777 9.14591L14.6089 7.97966C14.5598 7.93669 14.5107 7.88144 14.4248 7.97966L12.9025 9.26867L10.705 11.1531L9.18888 12.4421C9.15682 12.4691 9.13132 12.503 9.11431 12.5413C9.09729 12.5796 9.08921 12.6212 9.09067 12.6631C9.09067 14.6273 9.09067 16.5915 9.09067 18.5558C9.08312 18.6383 9.09382 18.7214 9.122 18.7993C9.15017 18.8772 9.19514 18.948 9.25372 19.0065C9.3123 19.0651 9.38305 19.1101 9.46095 19.1383C9.53885 19.1664 9.62199 19.1771 9.70449 19.1696H19.2494C19.3316 19.1761 19.4143 19.1646 19.4917 19.136C19.5691 19.1075 19.6394 19.0625 19.6978 19.0041C19.7561 18.9458 19.8011 18.8755 19.8297 18.7981C19.8582 18.7207 19.8697 18.638 19.8632 18.5558V12.6385C19.8612 12.5692 19.8327 12.5033 19.7834 12.4544L17.7578 10.6559Z" fill="white"/>
<path d="M53.0647 28.2725H34.0363L44.9071 11.3925H36.1724V6.72746H54.3046L43.4584 23.5768H53.0647V28.2725Z" fill="white"/>
<path d="M56.1706 28.2725V13.412H61.4065V28.2725H56.1706ZM56.8336 9.58173C56.8258 9.3288 56.8727 9.07717 56.9713 8.84408C57.0698 8.611 57.2176 8.40197 57.4044 8.23132C57.5834 8.04649 57.7982 7.90003 58.0356 7.80083C58.2731 7.70164 58.5282 7.6518 58.7855 7.65434C59.0445 7.64588 59.3026 7.68991 59.5442 7.7838C59.7857 7.87768 60.0058 8.01948 60.1912 8.20064C60.3742 8.37977 60.5179 8.59511 60.613 8.83292C60.7082 9.07072 60.7526 9.32576 60.7436 9.58173C60.7516 9.8447 60.7051 10.1065 60.6068 10.3505C60.5085 10.5946 60.3607 10.8156 60.1727 10.9997C59.9945 11.1868 59.7789 11.3344 59.5399 11.4327C59.3009 11.5311 59.0438 11.578 58.7855 11.5705C58.5203 11.5729 58.2575 11.5195 58.0143 11.4138C57.7711 11.308 57.5528 11.1523 57.3737 10.9567C57.1936 10.7772 57.0527 10.5624 56.9597 10.3257C56.8668 10.0891 56.8238 9.83579 56.8336 9.58173Z" fill="white"/>
<path d="M65.8199 28.2725V5.463H71.0926V28.2725H65.8199Z" fill="white"/>
<path d="M91.0295 13.412V28.2725H86.1987V25.8602C85.608 26.7843 84.8119 27.5595 83.8723 28.1252C82.9486 28.6202 81.9124 28.8676 80.8646 28.8434C79.9582 28.8783 79.0563 28.6992 78.2319 28.3206C77.4076 27.942 76.684 27.3746 76.1198 26.6643C75.5227 25.9122 75.0729 25.0542 74.7939 24.1354C74.4782 23.0698 74.3251 21.9627 74.3397 20.8515C74.3397 18.4207 74.9535 16.4954 76.1812 15.0754C76.802 14.3693 77.5729 13.811 78.4374 13.4414C79.302 13.0718 80.2382 12.9002 81.1776 12.9393C82.1876 12.9106 83.186 13.1612 84.0626 13.6636C84.9407 14.1963 85.6594 14.9553 86.1434 15.8611V13.4058L91.0295 13.412ZM86.4074 20.833C86.4675 19.8401 86.1346 18.8633 85.4805 18.1138C84.8051 17.4663 83.9057 17.1048 82.97 17.1048C82.0344 17.1048 81.1349 17.4663 80.4595 18.1138C79.8051 18.8808 79.4691 19.8691 79.5203 20.876C79.4623 21.8783 79.7995 22.8633 80.4595 23.6198C80.7796 23.9555 81.1687 24.2178 81.6 24.3884C82.0314 24.559 82.4946 24.634 82.9577 24.608C83.4232 24.6302 83.8881 24.5536 84.3218 24.3833C84.7556 24.2129 85.1484 23.9527 85.4744 23.6198C86.1424 22.8512 86.4779 21.8489 86.4074 20.833Z" fill="white"/>
<path d="M110.917 13.412V28.2725H106.093V25.8602C105.502 26.7843 104.706 27.5595 103.766 28.1252C102.842 28.6202 101.806 28.8676 100.758 28.8434C99.8521 28.8783 98.9502 28.6992 98.1258 28.3206C97.3015 27.942 96.5779 27.3746 96.0137 26.6643C95.4144 25.9137 94.9643 25.0553 94.6878 24.1354C94.3721 23.0698 94.219 21.9627 94.2336 20.8515C94.2336 18.4207 94.8474 16.4954 96.075 15.0754C96.6959 14.3693 97.4668 13.811 98.3313 13.4414C99.1959 13.0718 100.132 12.9002 101.072 12.9393C102.08 12.9104 103.076 13.1611 103.95 13.6636C104.832 14.1942 105.553 14.9536 106.037 15.8611V13.4058L110.917 13.412ZM106.289 20.833C106.35 19.8363 106.017 18.8555 105.362 18.1015C105.04 17.7574 104.647 17.4875 104.211 17.3105C103.774 17.1334 103.304 17.0536 102.833 17.0765C102.371 17.0526 101.908 17.1292 101.478 17.3008C101.048 17.4725 100.66 17.7351 100.341 18.0708C99.6868 18.8378 99.3507 19.8262 99.402 20.833C99.3439 21.8353 99.6811 22.8203 100.341 23.5768C100.66 23.9121 101.048 24.1741 101.479 24.3447C101.909 24.5153 102.371 24.5905 102.833 24.5651C103.3 24.5881 103.766 24.5119 104.201 24.3416C104.636 24.1712 105.029 23.9106 105.356 23.5768C106.013 22.8191 106.348 21.8343 106.289 20.833Z" fill="white"/>
<path d="M114.066 34.8343L118.246 26.0014L112.255 13.412H118.068L120.143 18.7767C120.323 19.187 120.466 19.6122 120.573 20.0473C120.677 20.4095 120.775 20.7717 120.849 21.1338C120.914 20.7558 121.004 20.3826 121.119 20.0167C121.221 19.5951 121.363 19.184 121.542 18.789L123.648 13.4242H129.252L119.91 34.8465L114.066 34.8343Z" fill="white"/>
<path d="M130.737 25.8664C130.729 25.4774 130.799 25.0908 130.944 24.7296C131.089 24.3684 131.305 24.0402 131.579 23.7645C131.854 23.4888 132.181 23.2714 132.542 23.1252C132.902 22.9791 133.289 22.9072 133.678 22.9139C134.076 22.9017 134.473 22.971 134.843 23.1178C135.214 23.2645 135.55 23.4855 135.832 23.7671C136.369 24.3366 136.668 25.0898 136.668 25.8725C136.668 26.6552 136.369 27.4084 135.832 27.9779C135.549 28.258 135.212 28.4788 134.842 28.6274C134.472 28.776 134.076 28.8494 133.678 28.8434C133.288 28.8469 132.901 28.7721 132.54 28.6234C132.18 28.4747 131.853 28.2552 131.578 27.9779C131.302 27.7019 131.084 27.3722 130.94 27.009C130.795 26.6459 130.726 26.2571 130.737 25.8664Z" fill="white"/>
<path d="M150.987 18.298C150.55 17.8947 150.053 17.5613 149.514 17.3097C149.05 17.0923 148.541 16.9851 148.029 16.9967C147.569 16.9757 147.11 17.0574 146.685 17.2358C146.26 17.4141 145.881 17.6847 145.573 18.0279C144.918 18.8083 144.587 19.8098 144.647 20.8269C144.595 21.8204 144.939 22.7939 145.604 23.5338C145.931 23.8835 146.331 24.157 146.776 24.3352C147.22 24.5134 147.698 24.5918 148.176 24.5651C148.695 24.5637 149.207 24.4528 149.68 24.2397C150.178 24.0014 150.628 23.6725 151.006 23.2699V27.8122C150.399 28.1387 149.761 28.4059 149.103 28.6101C148.471 28.7593 147.825 28.8375 147.176 28.8434C146.152 28.8837 145.131 28.7084 144.179 28.3288C143.227 27.9492 142.366 27.3737 141.651 26.6398C141.177 26.1622 140.778 25.6159 140.467 25.0193C140.149 24.4135 139.91 23.77 139.754 23.1042C139.589 22.3648 139.509 21.609 139.515 20.8515C139.473 19.8031 139.642 18.757 140.012 17.7753C140.382 16.7936 140.946 15.8963 141.67 15.1368C142.398 14.4038 143.27 13.8301 144.232 13.4518C145.193 13.0736 146.223 12.899 147.255 12.9393C147.93 12.9503 148.602 13.0388 149.256 13.2033C149.861 13.3518 150.442 13.5854 150.981 13.8969L150.987 18.298Z" fill="white"/>
<path d="M169.967 20.8821C169.981 21.9371 169.772 22.9831 169.353 23.9512C168.926 24.9237 168.31 25.802 167.542 26.5354C166.766 27.2809 165.859 27.8761 164.866 28.2909C162.804 29.0537 160.538 29.0537 158.476 28.2909C157.478 27.8885 156.567 27.2965 155.794 26.5477C155.014 25.827 154.408 24.9394 154.02 23.9512C153.592 22.9858 153.382 21.9379 153.406 20.8821C153.394 19.8275 153.603 18.782 154.02 17.813C154.42 16.8316 155.027 15.948 155.8 15.2227C156.573 14.4826 157.481 13.899 158.476 13.504C159.496 13.1204 160.578 12.9309 161.668 12.9455C162.759 12.9326 163.843 13.122 164.866 13.504C165.86 13.9005 166.768 14.484 167.542 15.2227C168.337 15.9353 168.957 16.8218 169.353 17.813C169.766 18.7829 169.975 19.8278 169.967 20.8821ZM164.755 20.8821C164.81 19.9373 164.512 19.0058 163.921 18.2673C163.634 17.9522 163.283 17.7032 162.891 17.5379C162.498 17.3725 162.075 17.2946 161.649 17.3097C161.224 17.2895 160.8 17.3651 160.408 17.5308C160.016 17.6966 159.666 17.9482 159.384 18.2673C158.786 19.0024 158.488 19.9364 158.55 20.8821C158.493 21.8147 158.779 22.7357 159.354 23.4725C159.652 23.7791 160.009 24.0228 160.404 24.1892C160.798 24.3556 161.221 24.4413 161.649 24.4413C162.077 24.4413 162.501 24.3556 162.895 24.1892C163.29 24.0228 163.647 23.7791 163.945 23.4725C164.516 22.7337 164.804 21.8147 164.755 20.8821Z" fill="white"/>
<path d="M192.61 28.2725V20.164C192.681 19.2573 192.53 18.347 192.169 17.5123C191.981 17.2547 191.729 17.0502 191.439 16.919C191.148 16.7877 190.829 16.7341 190.511 16.7634C190.11 16.7198 189.704 16.7927 189.343 16.9734C188.981 17.1541 188.679 17.4349 188.473 17.7824C188.093 18.4453 187.902 19.8427 187.902 21.9747V28.2725H182.838V20.164C182.838 18.8381 182.679 17.9481 182.354 17.4877C182.171 17.2319 181.923 17.0298 181.636 16.9024C181.349 16.775 181.033 16.727 180.721 16.7634C180.318 16.7227 179.911 16.7933 179.545 16.9676C179.18 17.1418 178.868 17.413 178.646 17.7517C178.266 18.4146 178.069 19.8264 178.069 21.9747V28.2725H172.981V13.412H178.106V16.0023C178.629 15.0719 179.365 14.2789 180.254 13.6882C181.114 13.1697 182.105 12.9098 183.109 12.9393C184.149 12.9007 185.181 13.1401 186.098 13.6329C186.863 14.129 187.438 14.8686 187.731 15.7322C188.232 14.8507 188.967 14.1245 189.854 13.6329C190.754 13.1512 191.763 12.9121 192.782 12.9393C193.584 12.9216 194.381 13.0721 195.121 13.3813C195.787 13.6896 196.37 14.1526 196.821 14.7317C197.199 15.2114 197.465 15.7691 197.601 16.3644C197.784 17.3767 197.858 18.4055 197.822 19.4335V28.2664L192.61 28.2725Z" fill="white"/>
</g>
<defs>
<clipPath id="clip0_285_9">
<rect width="197.846" height="35" fill="white"/>
</clipPath>
</defs>
</svg>
