<svg width="16" height="16" viewBox="0 0 16 16" fill="none" xmlns="http://www.w3.org/2000/svg">
<path d="M15.2825 14.2175L12.5 11.4575C13.5801 10.1108 14.1031 8.40147 13.9616 6.68098C13.8201 4.96048 13.0247 3.35959 11.7391 2.20748C10.4535 1.05538 8.77534 0.439633 7.04968 0.486854C5.32402 0.534074 3.68203 1.24067 2.46135 2.46136C1.24066 3.68204 0.534062 5.32403 0.486842 7.04969C0.439622 8.77536 1.05537 10.4535 2.20747 11.7391C3.35958 13.0248 4.96047 13.8201 6.68096 13.9616C8.40146 14.1031 10.1108 13.5801 11.4575 12.5L14.2175 15.26C14.2872 15.3303 14.3702 15.3861 14.4616 15.4242C14.553 15.4622 14.651 15.4818 14.75 15.4818C14.849 15.4818 14.947 15.4622 15.0384 15.4242C15.1298 15.3861 15.2128 15.3303 15.2825 15.26C15.4177 15.1202 15.4932 14.9333 15.4932 14.7388C15.4932 14.5442 15.4177 14.3574 15.2825 14.2175ZM7.24999 12.5C6.21164 12.5 5.1966 12.1921 4.33325 11.6152C3.46989 11.0383 2.79698 10.2184 2.39962 9.25909C2.00226 8.29978 1.89829 7.24418 2.10087 6.22578C2.30344 5.20738 2.80345 4.27192 3.53768 3.53769C4.2719 2.80346 5.20737 2.30345 6.22577 2.10088C7.24417 1.89831 8.29977 2.00227 9.25908 2.39963C10.2184 2.79699 11.0383 3.4699 11.6152 4.33326C12.1921 5.19662 12.5 6.21165 12.5 7.25C12.5 8.64239 11.9469 9.97775 10.9623 10.9623C9.97773 11.9469 8.64238 12.5 7.24999 12.5Z" fill="white"/>
</svg>
