<svg width="16" height="16" viewBox="0 0 16 16" fill="none" xmlns="http://www.w3.org/2000/svg">
<path d="M15.4256 14.2175L12.6431 11.4575C13.7231 10.1108 14.2462 8.40147 14.1047 6.68098C13.9631 4.96048 13.1678 3.35959 11.8822 2.20748C10.5966 1.05538 8.91841 0.439633 7.19275 0.486854C5.46708 0.534074 3.8251 1.24067 2.60441 2.46136C1.38373 3.68204 0.677129 5.32403 0.629909 7.04969C0.582688 8.77536 1.19844 10.4535 2.35054 11.7391C3.50264 13.0248 5.10353 13.8201 6.82403 13.9616C8.54453 14.1031 10.2539 13.5801 11.6006 12.5L14.3606 15.26C14.4303 15.3303 14.5132 15.3861 14.6046 15.4242C14.696 15.4622 14.794 15.4818 14.8931 15.4818C14.9921 15.4818 15.0901 15.4622 15.1815 15.4242C15.2729 15.3861 15.3558 15.3303 15.4256 15.26C15.5607 15.1202 15.6363 14.9333 15.6363 14.7388C15.6363 14.5442 15.5607 14.3574 15.4256 14.2175ZM7.39306 12.5C6.3547 12.5 5.33967 12.1921 4.47631 11.6152C3.61295 11.0383 2.94005 10.2184 2.54269 9.25909C2.14533 8.29978 2.04136 7.24418 2.24393 6.22578C2.44651 5.20738 2.94652 4.27192 3.68075 3.53769C4.41497 2.80346 5.35043 2.30345 6.36883 2.10088C7.38723 1.89831 8.44283 2.00227 9.40214 2.39963C10.3615 2.79699 11.1814 3.4699 11.7583 4.33326C12.3351 5.19662 12.6431 6.21165 12.6431 7.25C12.6431 8.64239 12.0899 9.97775 11.1054 10.9623C10.1208 11.9469 8.78544 12.5 7.39306 12.5Z" fill="#004439"/>
</svg>
