<svg width="25" height="24" viewBox="0 0 25 24" fill="none" xmlns="http://www.w3.org/2000/svg">
<g clipPath="url(#clip0_96_34)">
<path d="M14.1108 2.82823e-07C14.4636 2.82823e-07 14.7792 0.2196 14.898 0.5484L15.7452 2.8968C16.0488 2.9724 16.3092 3.048 16.53 3.1272C16.7712 3.2136 17.082 3.3444 17.466 3.5232L19.4388 2.4792C19.5998 2.39389 19.7842 2.36309 19.9642 2.39144C20.1442 2.41978 20.3102 2.50573 20.4372 2.6364L22.1724 4.4304C22.4028 4.6692 22.4676 5.0184 22.338 5.3232L21.4128 7.4916C21.5664 7.7736 21.6888 8.0148 21.7824 8.2164C21.8832 8.436 22.008 8.7384 22.1568 9.1284L24.3132 10.0524C24.6372 10.1904 24.8376 10.5144 24.816 10.8612L24.6576 13.3512C24.6468 13.513 24.5887 13.668 24.4906 13.797C24.3925 13.9261 24.2586 14.0235 24.1056 14.0772L22.0632 14.8032C22.0044 15.0852 21.9432 15.3264 21.8784 15.5304C21.7739 15.8455 21.6546 16.1554 21.5208 16.4592L22.5468 18.7272C22.6192 18.8866 22.6387 19.0649 22.6024 19.2361C22.5662 19.4074 22.476 19.5625 22.3452 19.6788L20.394 21.4212C20.2655 21.5355 20.1052 21.6077 19.9344 21.6283C19.7637 21.6489 19.5908 21.6168 19.4388 21.5364L17.4276 20.4708C17.113 20.6374 16.7883 20.7845 16.4556 20.9112L15.5772 21.24L14.7972 23.4C14.7394 23.5582 14.6351 23.6952 14.4981 23.7931C14.361 23.8909 14.1976 23.9451 14.0292 23.9484L11.7492 24C11.5764 24.0045 11.4064 23.9554 11.2626 23.8593C11.1188 23.7633 11.0084 23.625 10.9464 23.4636L10.0272 21.0312C9.71359 20.924 9.40306 20.808 9.09601 20.6832C8.84487 20.5745 8.59753 20.4572 8.35441 20.3316L6.07441 21.306C5.92418 21.3701 5.75856 21.3891 5.5977 21.3608C5.43685 21.3325 5.2877 21.258 5.16841 21.1464L3.48121 19.5636C3.3556 19.4463 3.27005 19.2924 3.23667 19.1238C3.20329 18.9552 3.22377 18.7803 3.29521 18.624L4.27561 16.488C4.14523 16.235 4.02434 15.9772 3.91321 15.7152C3.78349 15.3945 3.66344 15.0699 3.55321 14.742L1.40521 14.088C1.23061 14.0352 1.07833 13.9263 0.972001 13.7781C0.865676 13.6299 0.811263 13.4507 0.817213 13.2684L0.901213 10.9632C0.907193 10.8128 0.954177 10.6669 1.03709 10.5413C1.12 10.4156 1.23568 10.315 1.37161 10.2504L3.62521 9.168C3.72961 8.7852 3.82081 8.4876 3.90121 8.2704C4.01442 7.9803 4.14014 7.69523 4.27801 7.416L3.30121 5.352C3.22708 5.19526 3.20457 5.01905 3.23692 4.8487C3.26926 4.67836 3.35479 4.52266 3.48121 4.404L5.16601 2.8128C5.28412 2.70141 5.4319 2.62652 5.59157 2.59714C5.75124 2.56776 5.91599 2.58514 6.06601 2.6472L8.34361 3.588C8.59561 3.42 8.82361 3.2844 9.03001 3.1752C9.27601 3.0444 9.60481 2.9076 10.0188 2.76L10.8108 0.5508C10.8694 0.389122 10.9764 0.249458 11.1173 0.150878C11.2582 0.0522973 11.4261 -0.000393408 11.598 2.82823e-07H14.1108ZM13.5228 1.6524H12.1872L11.4612 3.6852C11.4185 3.80373 11.3495 3.91102 11.2592 3.99895C11.169 4.08688 11.06 4.15317 10.9404 4.1928C10.4172 4.3668 10.0392 4.5168 9.81841 4.6332C9.58441 4.7568 9.28561 4.9452 8.93041 5.1972C8.81416 5.27879 8.67918 5.3297 8.53801 5.34523C8.39683 5.36075 8.25402 5.34038 8.12281 5.286L5.92681 4.38L5.07121 5.1888L5.96281 7.0728C6.01619 7.18489 6.04329 7.30769 6.04204 7.43183C6.04079 7.55598 6.01123 7.6782 5.95561 7.7892C5.71561 8.2704 5.55361 8.6256 5.47201 8.844C5.34688 9.20756 5.23876 9.57677 5.14801 9.9504C5.11786 10.0673 5.0625 10.1763 4.9858 10.2696C4.9091 10.3628 4.81292 10.4382 4.70401 10.4904L2.55601 11.5212L2.51281 12.6972L4.45681 13.2876C4.71481 13.3656 4.91881 13.5636 5.00401 13.818C5.19601 14.394 5.34961 14.8188 5.46001 15.0852C5.6063 15.4233 5.76807 15.7544 5.94481 16.0776C6.00461 16.1888 6.03779 16.3123 6.04175 16.4385C6.0457 16.5647 6.02033 16.6901 5.96761 16.8048L5.06641 18.7704L5.91961 19.572L8.05801 18.6576C8.1732 18.6084 8.2979 18.5854 8.42306 18.5904C8.54822 18.5954 8.6707 18.6282 8.78161 18.6864C9.21961 18.9168 9.54601 19.0764 9.75241 19.164C9.96241 19.2516 10.3644 19.398 10.9476 19.5972C11.0634 19.6367 11.169 19.7013 11.257 19.7864C11.3449 19.8714 11.413 19.9748 11.4564 20.0892L12.306 22.3344L13.4172 22.3104L14.1336 20.3256C14.1746 20.2123 14.2397 20.1093 14.3245 20.0238C14.4092 19.9382 14.5116 19.8721 14.6244 19.83L15.8688 19.3644C16.1832 19.248 16.5648 19.0644 17.01 18.8124C17.1332 18.7432 17.2719 18.706 17.4132 18.7043C17.5545 18.7027 17.694 18.7365 17.8188 18.8028L19.7112 19.8048L20.7756 18.8556L19.8444 16.8C19.7966 16.6945 19.7717 16.58 19.7715 16.4641C19.7713 16.3483 19.7958 16.2337 19.8432 16.128C20.0616 15.6396 20.2092 15.2712 20.2836 15.036C20.3568 14.8056 20.4324 14.4732 20.5056 14.046C20.5308 13.9009 20.5942 13.7651 20.6893 13.6527C20.7845 13.5403 20.9079 13.4552 21.0468 13.4064L23.0244 12.7044L23.1108 11.3364L21.1668 10.5036C21.0633 10.4595 20.9698 10.3949 20.8921 10.3136C20.8143 10.2324 20.7539 10.1361 20.7144 10.0308C20.5758 9.64829 20.4245 9.27048 20.2608 8.898C20.1058 8.57368 19.9377 8.25581 19.7568 7.9452C19.6941 7.83546 19.6577 7.7127 19.6504 7.58653C19.6432 7.46037 19.6652 7.33423 19.7148 7.218L20.5848 5.178L19.668 4.23L17.8824 5.1756C17.7658 5.23743 17.6364 5.27104 17.5045 5.27375C17.3725 5.27646 17.2418 5.24819 17.1228 5.1912C16.7438 5.00276 16.3562 4.83217 15.9612 4.68C15.6244 4.5669 15.281 4.47472 14.9328 4.404C14.7947 4.37471 14.6662 4.31077 14.5596 4.2182C14.453 4.12563 14.3716 4.00746 14.3232 3.8748L13.5216 1.6512L13.5228 1.6524ZM12.846 6.7692C15.768 6.7692 18.138 9.1128 18.138 12.0024C18.138 14.892 15.768 17.2344 12.846 17.2344C9.92281 17.2344 7.55401 14.892 7.55401 12.0024C7.55401 9.1128 9.92281 6.7704 12.846 6.7704V6.7692ZM12.846 8.4228C10.8456 8.4228 9.22441 10.0248 9.22441 12.0024C9.22441 13.98 10.8456 15.5832 12.846 15.5832C14.8452 15.5832 16.4664 13.98 16.4664 12.0024C16.4664 10.0248 14.8464 8.4228 12.846 8.4228Z" fill="white"/>
</g>
<defs>
<clipPath id="clip0_96_34">
<rect width="24" height="24" fill="white" transform="translate(0.817139)"/>
</clipPath>
</defs>
</svg>
