<svg width="133" height="40" viewBox="0 0 133 40" fill="none" xmlns="http://www.w3.org/2000/svg">
<g id="logo" clipPath="url(#clip0_6203_1654)">
<g id="Group">
<path id="Vector" d="M12.6953 31.7937V28.0231C17.7814 28.0231 21.9182 23.8863 21.9182 18.8003H25.6888C25.6888 25.9665 19.8586 31.7937 12.6953 31.7937Z" fill="white"/>
<path id="Vector_2" d="M35.9394 35.5643H12.6917V31.7937H32.1688V13.9544L17.9682 4.52355L3.76767 13.9544V31.7937H8.42013V35.5643H0V11.9329L17.9682 0L35.9394 11.9329V35.5643Z" fill="white"/>
<path id="Vector_3" d="M29.4659 18.8003H25.6953V40H29.4659V18.8003Z" fill="white"/>
</g>
<g id="Group_2">
<path id="Vector_4" d="M41.3281 35.7255V11.763H49.0627C53.1028 11.763 56.3373 12.7943 58.7661 14.8597C61.1948 16.9252 62.4107 19.8872 62.4107 23.7428C62.4107 27.5983 61.1948 30.5603 58.7661 32.6258C56.3344 34.6913 53.0999 35.7226 49.0627 35.7226H41.3281V35.7255ZM46.8742 30.7302H49.5783C51.8606 30.7302 53.6448 30.115 54.9369 28.8816C56.2259 27.6481 56.8705 25.9372 56.8705 23.7457C56.8705 21.5542 56.2259 19.8433 54.9369 18.6098C53.6478 17.3764 51.8606 16.7612 49.5783 16.7612H46.8742V30.7302Z" fill="white"/>
<path id="Vector_5" d="M62.8219 27.238C62.8219 24.6129 63.6833 22.4625 65.406 20.7866C67.1287 19.1079 69.2908 18.27 71.8925 18.27C74.3564 18.27 76.3633 19.0815 77.916 20.7017C79.4688 22.3218 80.2452 24.3404 80.2452 26.7604V28.5066H67.6824C67.8201 29.5115 68.2654 30.3142 69.0184 30.9207C69.7713 31.5271 70.6825 31.8289 71.7577 31.8289C73.6064 31.8289 75.0449 30.9383 76.0703 29.1599L79.7676 31.2488C78.9473 32.9158 77.878 34.1581 76.5684 34.9813C75.2558 35.8017 73.5829 36.2148 71.5526 36.2148C69.2029 36.2616 67.1492 35.4149 65.3913 33.6805C63.6335 31.9373 62.778 29.7927 62.8219 27.238ZM67.8904 24.9088H75.625C75.4199 24.065 74.9746 23.4088 74.289 22.94C73.6034 22.4713 72.7714 22.2398 71.7899 22.2398C70.8084 22.2398 70.0438 22.48 69.3582 22.9576C68.6727 23.4351 68.1863 24.0885 67.8904 24.9088Z" fill="white"/>
<path id="Vector_6" d="M85.966 35.7255L78.9492 18.7475H84.4953L88.3977 29.2214L92.3001 18.7475H97.8462L90.8294 35.7255H85.966Z" fill="white"/>
<path id="Vector_7" d="M96.8164 30.7625C96.8164 27.7507 99.0284 25.8786 103.458 25.1491L107.771 24.4635V24.1559C107.771 22.5123 106.892 21.6919 105.134 21.6919C104.358 21.6919 103.731 21.8296 103.25 22.1021C102.77 22.3746 102.532 22.7525 102.532 23.233C102.532 23.3707 102.544 23.4732 102.568 23.5406L97.9121 25.1139C97.7305 24.4518 97.6397 23.9039 97.6397 23.4703C97.6397 21.941 98.3516 20.6929 99.7784 19.7231C101.205 18.7534 102.989 18.267 105.137 18.267C110.317 18.267 112.907 20.4116 112.907 24.7037V31.5154C112.907 33.1825 113.285 34.5858 114.038 35.7255H108.834C108.333 35.2245 108.058 34.4921 108.014 33.534C106.757 35.3153 105.023 36.203 102.811 36.203C100.962 36.203 99.503 35.7079 98.4278 34.7147C97.3526 33.7245 96.8164 32.4061 96.8164 30.7625ZM107.771 28.0935V27.7858L104.144 28.4011C102.591 28.6736 101.817 29.3591 101.817 30.4548C101.817 30.9558 102.011 31.3806 102.401 31.7205C102.787 32.0633 103.279 32.2332 103.871 32.2332C105.011 32.2332 105.948 31.823 106.678 30.9998C107.405 30.1355 107.771 29.1658 107.771 28.0935Z" fill="white"/>
<path id="Vector_8" d="M115.094 35.7255V18.7475H120.23V20.9038C121.302 19.146 122.878 18.267 124.952 18.267C125.547 18.267 126.083 18.3462 126.561 18.5073L125.705 23.3326C125.228 23.1949 124.759 23.1275 124.302 23.1275C123.025 23.1275 122.026 23.567 121.308 24.4459C120.59 25.3248 120.23 26.5173 120.23 28.0231V35.7255H115.094Z" fill="white"/>
<path id="Vector_9" d="M126.633 16.7612V11.2854H132.179V16.7612H126.633ZM126.838 35.7255V18.7475H131.974V35.7255H126.838Z" fill="white"/>
</g>
</g>
<defs>
<clipPath id="clip0_6203_1654">
<rect width="132.176" height="40" fill="white"/>
</clipPath>
</defs>
</svg>
