<svg width="25" height="24" viewBox="0 0 25 24" fill="none" xmlns="http://www.w3.org/2000/svg">
<g clipPath="url(#clip0_285_30)">
<path fillRule="evenodd" clipRule="evenodd" d="M12.8171 22C18.3401 22 22.8171 17.523 22.8171 12C22.8171 6.477 18.3401 2 12.8171 2C7.29414 2 2.81714 6.477 2.81714 12C2.81714 17.523 7.29414 22 12.8171 22Z" fill="white"/>
<path fillRule="evenodd" clipRule="evenodd" d="M17.2876 20H18.6081C18.6911 19.901 18.7746 19.8 18.8591 19.6975C19.1557 19.3338 19.3175 18.8788 19.3171 18.4095C19.3171 17.397 18.5781 16.5245 17.5646 16.3845C14.0566 15.899 11.6046 15.8525 8.07714 16.368C7.05314 16.5175 6.31714 17.4035 6.31714 18.423C6.31714 18.8755 6.46464 19.323 6.74414 19.6855C6.82664 19.7925 6.90814 19.8975 6.98914 20.0005H8.27764C13.3171 23 17.2876 20 17.2876 20ZM12.8171 13.5C13.878 13.5 14.8954 13.0786 15.6456 12.3284C16.3957 11.5783 16.8171 10.5609 16.8171 9.5C16.8171 8.43913 16.3957 7.42172 15.6456 6.67157C14.8954 5.92143 13.878 5.5 12.8171 5.5C11.7563 5.5 10.7389 5.92143 9.98871 6.67157C9.23857 7.42172 8.81714 8.43913 8.81714 9.5C8.81714 10.5609 9.23857 11.5783 9.98871 12.3284C10.7389 13.0786 11.7563 13.5 12.8171 13.5Z" fill="#004439"/>
<path fillRule="evenodd" clipRule="evenodd" d="M12.8171 21C17.7876 21 21.8171 16.9705 21.8171 12C21.8171 7.0295 17.7876 3 12.8171 3C7.84664 3 3.81714 7.0295 3.81714 12C3.81714 16.9705 7.84664 21 12.8171 21ZM12.8171 22C18.3401 22 22.8171 17.523 22.8171 12C22.8171 6.477 18.3401 2 12.8171 2C7.29414 2 2.81714 6.477 2.81714 12C2.81714 17.523 7.29414 22 12.8171 22Z" fill="#004439"/>
<circle cx="21.3171" cy="3.5" r="3.5" fill="#F31E1E"/>
</g>
<defs>
<clipPath id="clip0_285_30">
<rect width="24" height="24" fill="white" transform="translate(0.817139)"/>
</clipPath>
</defs>
</svg>
