<svg width="20" height="20" viewBox="0 0 20 20" fill="none" xmlns="http://www.w3.org/2000/svg">
<path d="M17.5 10.8333V13.3333C17.5 14.2174 17.1488 15.0652 16.5237 15.6904C15.8986 16.3155 15.0507 16.6667 14.1667 16.6667H5.83333C4.94928 16.6667 4.10143 16.3155 3.47631 15.6904C2.85119 15.0652 2.5 14.2174 2.5 13.3333V11.3333C2.5 11.2007 2.55268 11.0735 2.64645 10.9798C2.74021 10.886 2.86739 10.8333 3 10.8333H17.5ZM17.5 10.8333V5.83333C17.5 4.94928 17.1488 4.10143 16.5237 3.47631C15.8986 2.85119 15.0507 2.5 14.1667 2.5H10M13.3333 16.6667L14.1667 18.3333M6.66667 16.6667L5.83333 18.3333" stroke="#151515" strokeWidth="1.25" strokeLinecap="round" strokeLinejoin="round"/>
<path d="M12.8333 6.66667H7.16667C6.89083 6.66667 6.67 6.44333 6.7 6.16833C6.82167 5.0625 7.38583 2.5 10 2.5C12.6142 2.5 13.1783 5.0625 13.3 6.16833C13.33 6.44333 13.1092 6.66667 12.8333 6.66667Z" stroke="#151515" strokeWidth="1.25" strokeLinecap="round" strokeLinejoin="round"/>
</svg>
