<svg width="20" height="20" viewBox="0 0 20 20" fill="none" xmlns="http://www.w3.org/2000/svg">
<path opacity="0.2" d="M8.125 6.25H16.25C16.913 6.25 17.5489 6.51339 18.0178 6.98223C18.4866 7.45107 18.75 8.08696 18.75 8.75V13.125H8.125V6.25Z" fill="#151515"/>
<path d="M16.25 5.625H1.875V3.75C1.875 3.58424 1.80915 3.42527 1.69194 3.30806C1.57473 3.19085 1.41576 3.125 1.25 3.125C1.08424 3.125 0.925268 3.19085 0.808058 3.30806C0.690848 3.42527 0.625 3.58424 0.625 3.75V16.25C0.625 16.4158 0.690848 16.5747 0.808058 16.6919C0.925268 16.8092 1.08424 16.875 1.25 16.875C1.41576 16.875 1.57473 16.8092 1.69194 16.6919C1.80915 16.5747 1.875 16.4158 1.875 16.25V13.75H18.125V16.25C18.125 16.4158 18.1908 16.5747 18.3081 16.6919C18.4253 16.8092 18.5842 16.875 18.75 16.875C18.9158 16.875 19.0747 16.8092 19.1919 16.6919C19.3092 16.5747 19.375 16.4158 19.375 16.25V8.75C19.375 7.9212 19.0458 7.12634 18.4597 6.54029C17.8737 5.95424 17.0788 5.625 16.25 5.625ZM1.875 6.875H7.5V12.5H1.875V6.875ZM8.75 12.5V6.875H16.25C16.7466 6.87706 17.2224 7.07526 17.5736 7.42645C17.9247 7.77763 18.1229 8.25335 18.125 8.75V12.5H8.75Z" fill="#151515"/>
</svg>
