<svg width="14" height="12" viewBox="0 0 14 12" fill="none" xmlns="http://www.w3.org/2000/svg">
<path d="M7.00001 9.66667C7.83334 9.66667 8.54179 9.37511 9.12535 8.792C9.7089 8.20889 10.0005 7.50044 10 6.66667C10 5.83333 9.70823 5.12489 9.12468 4.54133C8.54112 3.95778 7.8329 3.66622 7.00001 3.66667C6.16668 3.66667 5.45823 3.95844 4.87468 4.542C4.29112 5.12556 3.99957 5.83378 4.00001 6.66667C4.00001 7.5 4.29179 8.20844 4.87534 8.792C5.4589 9.37556 6.16712 9.66711 7.00001 9.66667ZM1.66668 12C1.30001 12 0.986011 11.8696 0.724678 11.6087C0.463345 11.3478 0.3329 11.0338 0.333345 10.6667V2.66667C0.333345 2.3 0.464011 1.986 0.725345 1.72467C0.986678 1.46333 1.30046 1.33289 1.66668 1.33333H3.76668L4.60001 0.433333C4.72223 0.288889 4.86957 0.180667 5.04201 0.108667C5.21446 0.0366667 5.3949 0.000444444 5.58334 0H8.41668C8.60557 0 8.78623 0.0362223 8.95868 0.108667C9.13112 0.181111 9.27823 0.289333 9.40001 0.433333L10.2333 1.33333H12.3333C12.7 1.33333 13.014 1.464 13.2753 1.72533C13.5367 1.98667 13.6671 2.30044 13.6667 2.66667V10.6667C13.6667 11.0333 13.536 11.3473 13.2747 11.6087C13.0133 11.87 12.6996 12.0004 12.3333 12H1.66668ZM12.3333 10.6667V2.66667H1.66668V10.6667H12.3333Z" fill="white"/>
</svg>
