<svg xmlns="http://www.w3.org/2000/svg" fill="none" viewBox="50 50 75 75">
<g filter="url(#filter0_d_328_6)">
<circle cx="87.5" cy="87.5" r="37.5" fill="#004439"/>
<circle cx="87.5" cy="87.5" r="36.5" stroke="white" strokeWidth="2"/>
</g>
<path d="M88 91C86.8449 91.001 85.7075 90.7157 84.6896 90.1697C83.6718 89.6237 82.805 88.8339 82.167 87.871L83.833 86.764C84.2891 87.4517 84.9083 88.0159 85.6353 88.4061C86.3624 88.7964 87.1748 89.0006 88 89.0006C88.8252 89.0006 89.6376 88.7964 90.3647 88.4061C91.0917 88.0159 91.7109 87.4517 92.167 86.764L93.833 87.871C93.195 88.8339 92.3283 89.6237 91.3104 90.1697C90.2925 90.7157 89.1551 91.001 88 91ZM92 80C91.6044 80 91.2178 80.1173 90.8889 80.337C90.56 80.5568 90.3036 80.8692 90.1522 81.2346C90.0009 81.6001 89.9613 82.0022 90.0384 82.3902C90.1156 82.7781 90.3061 83.1345 90.5858 83.4142C90.8655 83.6939 91.2219 83.8844 91.6098 83.9616C91.9978 84.0387 92.3999 83.9991 92.7654 83.8477C93.1308 83.6964 93.4432 83.44 93.6629 83.1111C93.8827 82.7822 94 82.3955 94 82C94.0027 81.7366 93.9528 81.4753 93.8532 81.2315C93.7536 80.9876 93.6064 80.7661 93.4202 80.5798C93.2339 80.3936 93.0124 80.2463 92.7685 80.1468C92.5247 80.0472 92.2634 79.9973 92 80ZM84 80C83.6044 80 83.2178 80.1173 82.8889 80.337C82.56 80.5568 82.3036 80.8692 82.1522 81.2346C82.0009 81.6001 81.9613 82.0022 82.0384 82.3902C82.1156 82.7781 82.3061 83.1345 82.5858 83.4142C82.8655 83.6939 83.2219 83.8844 83.6098 83.9616C83.9978 84.0387 84.3999 83.9991 84.7654 83.8477C85.1308 83.6964 85.4432 83.44 85.6629 83.1111C85.8827 82.7822 86 82.3955 86 82C86.0027 81.7366 85.9528 81.4753 85.8532 81.2315C85.7536 80.9876 85.6064 80.7661 85.4202 80.5798C85.2339 80.3936 85.0124 80.2463 84.7685 80.1468C84.5247 80.0472 84.2634 79.9973 84 80Z" fill="white"/>
<path d="M89.736 102L88 101L92 94H98C98.2628 94.0004 98.523 93.9489 98.7658 93.8486C99.0087 93.7482 99.2293 93.6009 99.4151 93.4151C99.6009 93.2293 99.7482 93.0087 99.8486 92.7658C99.9489 92.523 100 92.2628 100 92V78C100 77.7372 99.9489 77.477 99.8486 77.2342C99.7482 76.9913 99.6009 76.7707 99.4151 76.5849C99.2293 76.3991 99.0087 76.2518 98.7658 76.1514C98.523 76.0511 98.2628 75.9996 98 76H78C77.7372 75.9996 77.477 76.0511 77.2342 76.1514C76.9913 76.2518 76.7707 76.3991 76.5849 76.5849C76.3991 76.7707 76.2518 76.9913 76.1514 77.2342C76.0511 77.477 75.9996 77.7372 76 78V92C75.9996 92.2628 76.0511 92.523 76.1514 92.7658C76.2518 93.0087 76.3991 93.2293 76.5849 93.4151C76.7707 93.6009 76.9913 93.7482 77.2342 93.8486C77.477 93.9489 77.7372 94.0004 78 94H87V96H78C76.9391 96 75.9217 95.5786 75.1716 94.8284C74.4214 94.0783 74 93.0609 74 92V78C73.9999 77.4747 74.1032 76.9545 74.3042 76.4691C74.5052 75.9837 74.7998 75.5427 75.1713 75.1713C75.5427 74.7998 75.9837 74.5052 76.4691 74.3042C76.9545 74.1032 77.4747 73.9999 78 74H98C98.5253 73.9999 99.0455 74.1032 99.5309 74.3042C100.016 74.5052 100.457 74.7998 100.829 75.1713C101.2 75.5427 101.495 75.9837 101.696 76.4691C101.897 76.9545 102 77.4747 102 78V92C102 93.0609 101.579 94.0783 100.828 94.8284C100.078 95.5786 99.0609 96 98 96H93.165L89.736 102Z" fill="white"/>
<defs>
<filter id="filter0_d_328_6" x="0" y="0" width="175" height="175" filterUnits="userSpaceOnUse" color-interpolation-filters="sRGB">
<feFlood flood-opacity="0" result="BackgroundImageFix"/>
<feColorMatrix in="SourceAlpha" type="matrix" values="0 0 0 0 0 0 0 0 0 0 0 0 0 0 0 0 0 0 127 0" result="hardAlpha"/>
<feOffset/>
<feGaussianBlur stdDeviation="25"/>
<feComposite in2="hardAlpha" operator="out"/>
<feColorMatrix type="matrix" values="0 0 0 0 0 0 0 0 0 0 0 0 0 0 0 0 0 0 0.1 0"/>
<feBlend mode="normal" in2="BackgroundImageFix" result="effect1_dropShadow_328_6"/>
<feBlend mode="normal" in="SourceGraphic" in2="effect1_dropShadow_328_6" result="shape"/>
</filter>
</defs>
</svg>