<svg width="20" height="20" viewBox="0 0 20 20" fill="none" xmlns="http://www.w3.org/2000/svg">
<path d="M14.0038 2.5L11.1125 5.37125C10.3925 6.09187 10.3925 7.28688 11.1125 8.00875L10 9.1L9.20002 8.3L4.51252 3.6125L4.06252 3.1825L3.61252 3.61187C3.08109 4.14685 2.78284 4.87031 2.78284 5.62437C2.78284 6.37844 3.08109 7.1019 3.61252 7.63688L7.53877 11.5619L2.67627 16.4244L3.57439 17.3244L8.43689 12.4606L9.17939 13.1831L9.62814 13.6319L10.0581 13.1831L11.1706 12.0694L16.425 17.3238L17.325 16.4237L11.6213 10.7406L10.8981 10L11.9919 8.8875H12.0119L12.0306 8.90625C12.7544 9.59375 13.9181 9.59688 14.6281 8.8875L14.6869 8.80875L17.4994 5.99625L16.6206 5.1175L13.75 7.9875C13.4781 8.26 13.1644 8.26562 12.8906 8.00812L16.1906 4.6875L15.3125 3.80875L11.9919 7.10875C11.7344 6.83562 11.74 6.52125 12.0119 6.25L14.8825 3.37875L14.0038 2.5ZM4.23752 5.1375L10.2938 11.1912L9.62877 11.8556L4.51189 6.73688C4.04814 6.27438 4.03439 5.68937 4.23689 5.13687L4.23752 5.1375Z" fill="#151515"/>
</svg>
