<svg width="17" height="22" viewBox="0 0 17 22" fill="none" xmlns="http://www.w3.org/2000/svg">
<path d="M16.405 1.59795C16.721 1.85095 17 2.23395 17 2.74995C17 3.53395 16.5 4.04595 15.932 4.34395C15.387 4.62895 14.674 4.78595 13.922 4.88095C12.472 5.06495 10.577 5.04895 8.737 5.03395L8.494 5.03195C6.538 5.01595 4.665 5.01095 3.282 5.21495C2.584 5.31795 2.092 5.46495 1.792 5.63795C1.524 5.79395 1.5 5.90795 1.5 5.99895L1.501 6.00095C1.52113 6.03266 1.54649 6.06072 1.576 6.08395C1.686 6.18095 1.89 6.29695 2.212 6.41095C2.85 6.63695 3.746 6.78695 4.698 6.87895C4.798 6.88895 4.899 6.89795 5 6.90595V8.41095C4.85089 8.39928 4.70188 8.38628 4.553 8.37195C3.567 8.27695 2.525 8.11395 1.71 7.82495C1.305 7.68095 0.903 7.48795 0.59 7.21495C0.265 6.93195 0 6.52495 0 6.00095C0 5.21695 0.462 4.67495 1.04 4.34095C1.588 4.02295 2.306 3.84295 3.062 3.73095C4.585 3.50595 6.587 3.51595 8.506 3.53095L8.688 3.53295C10.581 3.54895 12.386 3.56295 13.734 3.39295C14.436 3.30395 14.934 3.17295 15.236 3.01495C15.43 2.91295 15.482 2.83895 15.496 2.79295C15.487 2.78459 15.4776 2.77659 15.468 2.76895C15.37 2.69095 15.181 2.59095 14.87 2.49295C14.255 2.29695 13.38 2.16895 12.41 2.09295C10.815 1.96595 9.122 1.98595 8.212 1.99695L7.75 1.99995C7.55109 1.99995 7.36032 1.92093 7.21967 1.78028C7.07902 1.63962 7 1.44886 7 1.24995C7 1.05103 7.07902 0.860268 7.21967 0.719615C7.36032 0.578963 7.55109 0.499945 7.75 0.499945L8.168 0.495946C9.062 0.484946 10.853 0.462945 12.528 0.595945C13.528 0.675945 14.542 0.812946 15.325 1.06195C15.714 1.18595 16.101 1.35395 16.405 1.59695V1.59795ZM10.995 8.32895C10.928 6.96895 10.098 6.00095 8.749 6.00095C7.342 5.99995 6.5 7.05595 6.5 8.50895V12.6769L6.241 12.5969C5.05 12.2489 4.117 12.2299 3.415 12.5809C2.462 13.0569 1.971 13.9129 1.996 15.0209C1.99903 15.1577 2.03939 15.291 2.11271 15.4064C2.18603 15.5219 2.28953 15.6151 2.412 15.6759L4.775 16.8519L4.872 16.9039L4.966 16.9619L6.85 18.2179L7.043 18.3569C7.483 18.6949 7.835 19.1349 8.07 19.6399L8.099 19.7019L8.178 19.8569C8.40044 20.2523 8.73718 20.5712 9.14406 20.7718C9.55094 20.9724 10.0089 21.0453 10.458 20.9809L12.876 20.6339L13.042 20.6039C13.4447 20.5151 13.8152 20.3172 14.113 20.0321C14.4109 19.7469 14.6247 19.3854 14.731 18.9869L15.779 15.0639L15.821 14.8839C15.909 14.4595 15.9111 14.0217 15.8273 13.5964C15.7435 13.1711 15.5755 12.7668 15.3332 12.4074C15.0908 12.048 14.779 11.7407 14.4161 11.5037C14.0532 11.2666 13.6465 11.1045 13.22 11.0269L11 10.6249V8.50795L10.996 8.32795L10.995 8.32895ZM8.003 8.36695C8.037 7.77495 8.289 7.50095 8.749 7.50095C9.245 7.50095 9.499 7.81895 9.499 8.50895V11.2509L9.507 11.3579C9.5296 11.5134 9.60044 11.6578 9.70953 11.7709C9.81862 11.8839 9.96044 11.9598 10.115 11.9879L13.02 12.5179L13.09 12.5339C13.3121 12.5933 13.5203 12.6957 13.7028 12.8356C13.8853 12.9754 14.0384 13.1498 14.1535 13.3488C14.2685 13.5478 14.3432 13.7675 14.3734 13.9954C14.4035 14.2233 14.3884 14.4549 14.329 14.6769L13.28 18.5999L13.244 18.7049C13.193 18.8225 13.1127 18.925 13.0108 19.0028C12.909 19.0805 12.7889 19.1308 12.662 19.1489L10.244 19.4959L10.136 19.5039C9.99342 19.5035 9.85392 19.4625 9.73384 19.3856C9.61376 19.3088 9.51807 19.1992 9.458 19.0699L9.428 19.0069L9.307 18.7629C8.92125 18.0403 8.36264 17.4243 7.681 16.9699L5.797 15.7139L5.623 15.6059L5.442 15.5089L3.537 14.5609L3.575 14.4409C3.665 14.2129 3.831 14.0489 4.085 13.9219C4.522 13.7039 5.503 13.8439 6.963 14.4459C7.07696 14.4931 7.20079 14.5115 7.32354 14.4994C7.44629 14.4873 7.56417 14.4451 7.66672 14.3766C7.76927 14.3081 7.85334 14.2153 7.91147 14.1065C7.96961 13.9977 8.00001 13.8763 8 13.7529V8.50995L8.004 8.36795L8.003 8.36695Z" fill="white"/>
</svg>
