<svg width="20" height="20" viewBox="0 0 20 20" fill="none" xmlns="http://www.w3.org/2000/svg">
<path d="M10.4165 5L7.9165 8.75H9.58317V11.25L12.0832 7.5H10.4165V5Z" fill="#151515"/>
<path fillRule="evenodd" clipRule="evenodd" d="M15.7958 8.03038C15.6693 9.10345 15.238 10.1178 14.5529 10.9533C14.152 11.4429 13.1333 12.8416 12.9166 13.75H7.08327C6.86661 12.8408 5.84661 11.442 5.44577 10.952C4.76097 10.1162 4.33007 9.10152 4.20411 8.02829C4.07993 6.95736 4.26682 5.87332 4.74244 4.90579C5.22253 3.93089 5.96881 3.11181 6.89494 2.54329C7.82912 1.96923 8.90431 1.66574 10.0008 1.66663C11.0999 1.66663 12.1766 1.97079 13.1066 2.54454C14.0325 3.11327 14.7785 3.9325 15.2583 4.90746C15.7337 5.87519 15.9203 6.95939 15.7958 8.03038ZM12.3262 12.9166H7.67327C7.49577 12.507 7.25869 12.0966 7.03786 11.7479C6.74727 11.2896 6.43122 10.8479 6.09119 10.425C5.50711 9.71231 5.13954 8.84717 5.03202 7.93204C4.92618 7.02003 5.0853 6.09683 5.49036 5.27288C5.90123 4.43918 6.53974 3.73884 7.33202 3.25288C8.13478 2.75974 9.05865 2.49909 10.0008 2.49996C10.9466 2.49996 11.8716 2.76204 12.6695 3.25413C13.4615 3.74019 14.0997 4.44053 14.5104 5.27413C14.9152 6.09829 15.074 7.02164 14.9679 7.93371C14.8599 8.84864 14.4921 9.71347 13.9079 10.4258C13.5677 10.8485 13.2517 11.2902 12.9616 11.7487C12.7408 12.0975 12.5037 12.507 12.3262 12.9166Z" fill="#151515"/>
<path d="M7.08325 14.9999C7.08325 14.8894 7.12715 14.7834 7.20529 14.7053C7.28343 14.6272 7.38941 14.5833 7.49992 14.5833H12.4999C12.6104 14.5833 12.7164 14.6272 12.7945 14.7053C12.8727 14.7834 12.9166 14.8894 12.9166 14.9999C12.9166 15.1104 12.8727 15.2164 12.7945 15.2945C12.7164 15.3727 12.6104 15.4166 12.4999 15.4166H7.49992C7.38941 15.4166 7.28343 15.3727 7.20529 15.2945C7.12715 15.2164 7.08325 15.1104 7.08325 14.9999Z" fill="#151515"/>
<path fillRule="evenodd" clipRule="evenodd" d="M7.08325 16.25H12.9166V17.5C12.9166 17.721 12.8288 17.933 12.6725 18.0893C12.5162 18.2455 12.3043 18.3333 12.0833 18.3333H7.91659C7.69557 18.3333 7.48361 18.2455 7.32733 18.0893C7.17105 17.933 7.08325 17.721 7.08325 17.5V16.25ZM7.91659 17.0833H12.0833V17.5H7.91659V17.0833Z" fill="#151515"/>
</svg>
