<svg width="151" height="35" viewBox="0 0 151 35" fill="none" xmlns="http://www.w3.org/2000/svg">
<g filter="url(#filter0_d_336_61)">
<path d="M140.427 12.8403H10C10.7361 10.7953 12.607 10.0947 13.4505 10H136.229C138.714 10 140.063 11.8935 140.427 12.8403Z" fill="#7A5B25"/>
</g>
<path d="M19.5434 17.2144C17.5893 11.8519 14.7149 10.1704 13.522 10L81.3487 10.1136V34.9948H40.2777C25.3377 35.2788 21.9861 23.9175 19.5434 17.2144Z" fill="url(#paint0_linear_336_61)"/>
<path d="M130.429 17.2144C132.383 11.8519 135.258 10.1704 136.451 10L68.6241 10.1136V34.9948H109.695C124.635 35.2788 127.987 23.9175 130.429 17.2144Z" fill="url(#paint1_linear_336_61)"/>
<path d="M57.5238 19.5117V22.7461H57.682C58.1859 22.7461 58.5512 22.5879 58.7777 22.2715C59.0043 21.9551 59.1488 21.4883 59.2113 20.8711H59.434V25.0312H59.2113C59.1645 24.5781 59.0648 24.207 58.9125 23.918C58.7641 23.6289 58.5902 23.4355 58.391 23.3379C58.1918 23.2363 57.9027 23.1855 57.5238 23.1855V25.4238C57.5238 25.8613 57.5414 26.1289 57.5766 26.2266C57.6156 26.3242 57.6859 26.4043 57.7875 26.4668C57.8891 26.5293 58.0531 26.5605 58.2797 26.5605H58.7543C59.4965 26.5605 60.0902 26.3887 60.5355 26.0449C60.9848 25.7012 61.307 25.1777 61.5023 24.4746H61.7191L61.3617 27H54.4945V26.7832H54.7582C54.9887 26.7832 55.1742 26.7422 55.3148 26.6602C55.4164 26.6055 55.4945 26.5117 55.5492 26.3789C55.5922 26.2852 55.6137 26.0391 55.6137 25.6406V20.4141C55.6137 20.0547 55.6039 19.834 55.5844 19.752C55.5453 19.6152 55.473 19.5098 55.3676 19.4355C55.2191 19.3262 55.016 19.2715 54.7582 19.2715H54.4945V19.0547H61.1449V21.4043H60.9223C60.809 20.8301 60.6488 20.418 60.4418 20.168C60.2387 19.918 59.9496 19.7344 59.5746 19.6172C59.3559 19.5469 58.9457 19.5117 58.3441 19.5117H57.5238ZM71.0344 24.2109L70.7355 27H63.6809V26.7832H63.9445C64.175 26.7832 64.3605 26.7422 64.5012 26.6602C64.6027 26.6055 64.6809 26.5117 64.7355 26.3789C64.7785 26.2852 64.8 26.0391 64.8 25.6406V20.4141C64.8 20.0078 64.7785 19.7539 64.7355 19.6523C64.6926 19.5508 64.6047 19.4629 64.4719 19.3887C64.343 19.3105 64.1672 19.2715 63.9445 19.2715H63.6809V19.0547H67.9172V19.2715H67.5715C67.341 19.2715 67.1555 19.3125 67.0148 19.3945C66.9133 19.4492 66.8332 19.543 66.7746 19.6758C66.7316 19.7695 66.7102 20.0156 66.7102 20.4141V25.4766C66.7102 25.8828 66.7336 26.1426 66.7805 26.2559C66.8273 26.3652 66.9191 26.4473 67.0559 26.502C67.1535 26.5371 67.3898 26.5547 67.7648 26.5547H68.427C68.8488 26.5547 69.2004 26.4805 69.4816 26.332C69.7629 26.1836 70.0051 25.9492 70.2082 25.6289C70.4152 25.3086 70.6105 24.8359 70.7941 24.2109H71.0344ZM77.0566 26.7832V27H72.9023V26.7832H73.166C73.3965 26.7832 73.582 26.7422 73.7227 26.6602C73.8242 26.6055 73.9023 26.5117 73.957 26.3789C74 26.2852 74.0215 26.0391 74.0215 25.6406V20.4141C74.0215 20.0078 74 19.7539 73.957 19.6523C73.9141 19.5508 73.8262 19.4629 73.6934 19.3887C73.5645 19.3105 73.3887 19.2715 73.166 19.2715H72.9023V19.0547H77.0566V19.2715H76.793C76.5625 19.2715 76.377 19.3125 76.2363 19.3945C76.1348 19.4492 76.0547 19.543 75.9961 19.6758C75.9531 19.7695 75.9316 20.0156 75.9316 20.4141V25.6406C75.9316 26.0469 75.9531 26.3008 75.9961 26.4023C76.043 26.5039 76.1309 26.5938 76.2598 26.6719C76.3926 26.7461 76.5703 26.7832 76.793 26.7832H77.0566ZM86.1082 19.0547V21.2051H85.8973C85.7723 20.709 85.6336 20.3535 85.4813 20.1387C85.3289 19.9199 85.1199 19.7461 84.8543 19.6172C84.7059 19.5469 84.4461 19.5117 84.075 19.5117H83.4832V25.6406C83.4832 26.0469 83.5047 26.3008 83.5477 26.4023C83.5945 26.5039 83.6824 26.5938 83.8113 26.6719C83.9441 26.7461 84.1238 26.7832 84.3504 26.7832H84.6141V27H80.4539V26.7832H80.7176C80.948 26.7832 81.1336 26.7422 81.2742 26.6602C81.3758 26.6055 81.4559 26.5117 81.5145 26.3789C81.5574 26.2852 81.5789 26.0391 81.5789 25.6406V19.5117H81.0047C80.4695 19.5117 80.0809 19.625 79.8387 19.8516C79.4988 20.168 79.284 20.6191 79.1941 21.2051H78.9715V19.0547H86.1082ZM91.0113 19.5117V22.7461H91.1695C91.6734 22.7461 92.0387 22.5879 92.2652 22.2715C92.4918 21.9551 92.6363 21.4883 92.6988 20.8711H92.9215V25.0312H92.6988C92.652 24.5781 92.5523 24.207 92.4 23.918C92.2516 23.6289 92.0777 23.4355 91.8785 23.3379C91.6793 23.2363 91.3902 23.1855 91.0113 23.1855V25.4238C91.0113 25.8613 91.0289 26.1289 91.0641 26.2266C91.1031 26.3242 91.1734 26.4043 91.275 26.4668C91.3766 26.5293 91.5406 26.5605 91.7672 26.5605H92.2418C92.984 26.5605 93.5777 26.3887 94.023 26.0449C94.4723 25.7012 94.7945 25.1777 94.9898 24.4746H95.2066L94.8492 27H87.982V26.7832H88.2457C88.4762 26.7832 88.6617 26.7422 88.8023 26.6602C88.9039 26.6055 88.982 26.5117 89.0367 26.3789C89.0797 26.2852 89.1012 26.0391 89.1012 25.6406V20.4141C89.1012 20.0547 89.0914 19.834 89.0719 19.752C89.0328 19.6152 88.9605 19.5098 88.8551 19.4355C88.7066 19.3262 88.5035 19.2715 88.2457 19.2715H87.982V19.0547H94.6324V21.4043H94.4098C94.2965 20.8301 94.1363 20.418 93.9293 20.168C93.7262 19.918 93.4371 19.7344 93.0621 19.6172C92.8434 19.5469 92.4332 19.5117 91.8316 19.5117H91.0113Z" fill="#151515"/>
<defs>
<filter id="filter0_d_336_61" x="0" y="0" width="150.427" height="22.8403" filterUnits="userSpaceOnUse" color-interpolation-filters="sRGB">
<feFlood flood-opacity="0" result="BackgroundImageFix"/>
<feColorMatrix in="SourceAlpha" type="matrix" values="0 0 0 0 0 0 0 0 0 0 0 0 0 0 0 0 0 0 127 0" result="hardAlpha"/>
<feOffset/>
<feGaussianBlur stdDeviation="5"/>
<feComposite in2="hardAlpha" operator="out"/>
<feColorMatrix type="matrix" values="0 0 0 0 0 0 0 0 0 0 0 0 0 0 0 0 0 0 0.25 0"/>
<feBlend mode="normal" in2="BackgroundImageFix" result="effect1_dropShadow_336_61"/>
<feBlend mode="normal" in="SourceGraphic" in2="effect1_dropShadow_336_61" result="shape"/>
</filter>
<linearGradient id="paint0_linear_336_61" x1="47.4353" y1="10" x2="47.4353" y2="35" gradientUnits="userSpaceOnUse">
<stop stop-color="#BC8B3C"/>
<stop offset="1" stop-color="#F5C980"/>
</linearGradient>
<linearGradient id="paint1_linear_336_61" x1="102.537" y1="10" x2="102.537" y2="35" gradientUnits="userSpaceOnUse">
<stop stop-color="#BC8B3C"/>
<stop offset="1" stop-color="#F5C980"/>
</linearGradient>
</defs>
</svg>
