<svg width="20" height="18" viewBox="0 0 20 18" fill="none" xmlns="http://www.w3.org/2000/svg">
<path d="M18.25 16.6687H9.76562L18.6437 7.79058C19.0302 7.40383 19.2472 6.87948 19.2472 6.33276C19.2472 5.78605 19.0302 5.2617 18.6437 4.87495L14.4062 0.628076C14.0166 0.243517 13.4912 0.0279498 12.9437 0.0280762C12.3992 0.0283876 11.8768 0.244075 11.4906 0.628076L6.18437 5.93433L0.878124 11.2406C0.49622 11.6297 0.282265 12.1532 0.282265 12.6984C0.282265 13.2436 0.49622 13.7671 0.878124 14.1562L4.35625 17.6343C4.46557 17.7366 4.60966 17.7936 4.75937 17.7937H18.25C18.3992 17.7937 18.5423 17.7344 18.6477 17.6289C18.7532 17.5235 18.8125 17.3804 18.8125 17.2312C18.8125 17.082 18.7532 16.9389 18.6477 16.8335C18.5423 16.728 18.3992 16.6687 18.25 16.6687ZM12.2875 1.42495C12.4632 1.25034 12.7008 1.15233 12.9484 1.15233C13.1961 1.15233 13.4337 1.25034 13.6094 1.42495L17.8563 5.67183C18.0309 5.84748 18.1289 6.08509 18.1289 6.33276C18.1289 6.58044 18.0309 6.81805 17.8563 6.9937L12.9437 11.8968L7.375 6.32808L12.2875 1.42495ZM4.99375 16.6687L1.675 13.3593C1.50039 13.1837 1.40238 12.9461 1.40238 12.6984C1.40238 12.4507 1.50039 12.2131 1.675 12.0375L6.5875 7.12495L12.1469 12.6937L8.17187 16.6687H4.99375Z" fill="white"/>
</svg>
