<svg width="15" height="11" viewBox="0 0 15 11" fill="none" xmlns="http://www.w3.org/2000/svg">
<path d="M14.9094 5.11979C13.4971 2.36432 10.7013 0.5 7.49999 0.5C4.29868 0.5 1.50207 2.36563 0.0906108 5.12005C0.0310383 5.23789 0 5.36809 0 5.50013C0 5.63217 0.0310383 5.76237 0.0906108 5.88021C1.50285 8.63568 4.29868 10.5 7.49999 10.5C10.7013 10.5 13.4979 8.63437 14.9094 5.87995C14.9689 5.76211 15 5.63191 15 5.49987C15 5.36783 14.9689 5.23763 14.9094 5.11979ZM7.49999 9.25C6.75831 9.25 6.03328 9.03007 5.4166 8.61801C4.79991 8.20596 4.31927 7.62029 4.03544 6.93506C3.75161 6.24984 3.67735 5.49584 3.82204 4.76841C3.96674 4.04098 4.32389 3.3728 4.84834 2.84835C5.37278 2.3239 6.04097 1.96675 6.7684 1.82206C7.49583 1.67736 8.24983 1.75162 8.93505 2.03545C9.62027 2.31928 10.2059 2.79993 10.618 3.41661C11.0301 4.0333 11.25 4.75832 11.25 5.5C11.2502 5.99252 11.1534 6.48027 10.965 6.93535C10.7767 7.39043 10.5004 7.80392 10.1522 8.15218C9.8039 8.50045 9.39041 8.77667 8.93533 8.96504C8.48025 9.15341 7.99251 9.25024 7.49999 9.25ZM7.49999 3C7.27684 3.00312 7.05514 3.03632 6.84087 3.0987C7.01749 3.33872 7.10225 3.63408 7.07977 3.93124C7.05729 4.22839 6.92906 4.50764 6.71834 4.71836C6.50763 4.92908 6.22837 5.0573 5.93122 5.07978C5.63407 5.10226 5.3387 5.01751 5.09868 4.84089C4.96201 5.34442 4.98668 5.87814 5.16923 6.36693C5.35177 6.85571 5.683 7.27494 6.11629 7.56561C6.54958 7.85629 7.06311 8.00377 7.58461 7.98729C8.10611 7.97082 8.60931 7.79122 9.02339 7.47378C9.43747 7.15634 9.74158 6.71703 9.89291 6.2177C10.0442 5.71838 10.0352 5.18416 9.86699 4.69025C9.69881 4.19635 9.37997 3.76761 8.95536 3.4644C8.53075 3.16119 8.02174 2.99877 7.49999 3Z" fill="#151515" fill-opacity="0.25"/>
</svg>
