<svg width="20" height="20" viewBox="0 0 20 20" fill="none" xmlns="http://www.w3.org/2000/svg">
<g clipPath="url(#clip0_1965_1240)">
<path d="M19.5328 10.1871C19.5328 9.36773 19.4664 8.7698 19.3225 8.14972H9.96582V11.848H15.458C15.3473 12.7671 14.7493 14.1512 13.4206 15.0813L13.4019 15.2051L16.3603 17.497L16.5653 17.5174C18.4477 15.779 19.5328 13.2211 19.5328 10.1871Z" fill="#4285F4"/>
<path d="M9.96517 19.9313C12.6559 19.9313 14.9147 19.0454 16.5646 17.5174L13.4199 15.0813C12.5784 15.6682 11.4489 16.0779 9.96517 16.0779C7.32983 16.0779 5.09311 14.3395 4.29578 11.9366L4.17891 11.9466L1.10273 14.3273L1.0625 14.4391C2.70128 17.6945 6.06746 19.9313 9.96517 19.9313Z" fill="#34A853"/>
<path d="M4.29626 11.9366C4.08588 11.3166 3.96412 10.6521 3.96412 9.96565C3.96412 9.27908 4.08588 8.61473 4.28519 7.99466L4.27962 7.8626L1.16489 5.44366L1.06298 5.49214C0.387557 6.84305 0 8.36008 0 9.96565C0 11.5712 0.387557 13.0882 1.06298 14.4391L4.29626 11.9366Z" fill="#FBBC05"/>
<path d="M9.96517 3.85336C11.8365 3.85336 13.0988 4.66168 13.8185 5.33718L16.631 2.59107C14.9037 0.985496 12.6559 0 9.96517 0C6.06746 0 2.70128 2.23672 1.0625 5.49214L4.28471 7.99466C5.09311 5.59183 7.32983 3.85336 9.96517 3.85336Z" fill="#EB4335"/>
</g>
<defs>
<clipPath id="clip0_1965_1240">
<rect width="19.542" height="20" fill="white"/>
</clipPath>
</defs>
</svg>
