<svg width="28" height="20" viewBox="0 0 28 20" fill="none" xmlns="http://www.w3.org/2000/svg">
<g clipPath="url(#clip0_538_642)">
<path d="M0 13.1559C0.115875 12.978 0.288031 12.9482 0.485846 12.9482C1.6537 12.9531 2.82238 12.9482 3.99023 12.9556C4.17149 12.9556 4.26585 12.9026 4.32792 12.7363C4.4049 12.5302 4.50339 12.3324 4.60851 12.0932C4.22033 12.0932 3.8636 12.0932 3.51514 12.0932C3.22711 12.0932 3.13607 11.9972 3.122 11.7075C3.122 11.6454 3.122 11.5825 3.122 11.5204V0.57852C3.122 0.0545999 3.17828 -0.000854492 3.70634 -0.000854492H23.7154C24.212 -0.000854492 24.2758 0.0620486 24.2758 0.547068V11.5693C24.2758 12.0303 24.2129 12.0923 23.7527 12.0932H22.7901C22.9143 12.3696 23.0086 12.6179 23.1386 12.8472C23.175 12.9117 23.314 12.9457 23.4067 12.9465C24.5655 12.9531 25.7242 12.9465 26.883 12.9515C26.9717 12.9469 27.0607 12.9533 27.1478 12.9705C27.3456 13.0202 27.4251 13.1526 27.3763 13.3529C27.361 13.4134 27.3382 13.4718 27.3084 13.5267C26.9649 14.164 26.8706 14.8419 26.9037 15.562C26.9392 16.3541 26.9227 17.1486 26.9037 17.9424C26.8873 18.2893 26.9581 18.6347 27.1097 18.9472C27.2025 19.1396 27.2835 19.3375 27.3523 19.5398C27.4433 19.7881 27.3365 19.9619 27.0742 19.9942C27.003 19.9983 26.9317 19.9983 26.8606 19.9942C18.0872 19.9942 9.31385 19.9942 0.540471 19.9942C0.328585 19.9942 0.126631 19.9942 0.00165192 19.7864V19.5721C0.276441 19.0051 0.534676 18.4481 0.498258 17.7793C0.452323 16.9062 0.452323 16.0312 0.498258 15.1581C0.533849 14.4885 0.271475 13.9323 0.00165192 13.3653L0 13.1559ZM23.6616 0.591763H23.3695C16.9224 0.591763 10.4756 0.589831 4.02913 0.585969C3.78083 0.585969 3.71876 0.659633 3.71958 0.900488C3.72676 4.33314 3.72868 7.76607 3.72537 11.1993C3.72537 11.2928 3.73365 11.3863 3.73862 11.4782H23.6641L23.6616 0.591763ZM2.4731 18.189H9.54064V14.7616H2.4731V18.189ZM24.9313 14.7633H17.8621V18.1882H24.9313V14.7633ZM0.773876 13.5557C0.935274 14.1458 0.935272 14.1458 1.48071 14.1458H26.0338C26.1226 14.1516 26.2117 14.15 26.3003 14.1408C26.3289 14.1366 26.3564 14.1265 26.381 14.1113C26.4056 14.096 26.4268 14.076 26.4435 14.0523C26.5171 13.8983 26.5734 13.7353 26.6446 13.5557H0.773876ZM0.75567 19.39H26.614C26.5072 18.8338 26.4766 18.8106 25.9642 18.8106H1.38222C1.29342 18.8039 1.2042 18.8056 1.11571 18.8156C1.08307 18.8199 1.05163 18.8307 1.02322 18.8474C0.994797 18.864 0.969966 18.8861 0.950172 18.9124C0.876509 19.0564 0.823537 19.2145 0.753185 19.39H0.75567ZM21.1927 12.9432C21.0956 12.7509 21.0085 12.5536 20.932 12.3522C20.8616 12.1354 20.7317 12.0882 20.5181 12.0882C15.9736 12.0948 11.4286 12.0965 6.88296 12.0932C6.82075 12.0874 6.75812 12.0874 6.69591 12.0932C6.64624 12.0991 6.60067 12.1236 6.56845 12.1619C6.44678 12.4102 6.33421 12.6643 6.20841 12.9399L21.1927 12.9432ZM17.2298 16.162V14.7633H10.1755V16.162H17.2298ZM17.2298 16.7944H10.1705V18.1849H17.2298V16.7944ZM1.09584 14.7583V18.1849H1.84075V14.7583H1.09584ZM25.5479 14.7583V18.1849H26.2928V14.7583H25.5479ZM4.87667 12.9506C5.07283 12.9506 5.22347 12.9581 5.37328 12.9506C5.44281 12.9449 5.54709 12.9225 5.57275 12.8737C5.69938 12.6336 5.80533 12.382 5.9361 12.0965C5.73746 12.0965 5.58848 12.0882 5.43949 12.0965C5.36997 12.1023 5.26651 12.1271 5.24085 12.1792C5.11504 12.416 5.00828 12.6676 4.8775 12.9506H4.87667ZM21.5031 12.1072C21.6959 12.8919 21.8664 13.0318 22.4731 12.92C22.2645 12.1246 22.1884 12.0592 21.5039 12.1072H21.5031Z" fill="#151515" stroke="#151515" strokeWidth="0.25"/>
<path d="M10.5404 9.63505C10.2549 9.63505 10.1166 9.41406 10.2168 9.22121C10.262 9.14481 10.3177 9.07516 10.3823 9.01429C12.4515 6.89764 14.5207 4.78127 16.5899 2.66518C16.6329 2.62048 16.6727 2.54847 16.7256 2.54185C16.8531 2.5253 17.0128 2.49219 17.1072 2.55013C17.2537 2.64035 17.2429 2.80836 17.1337 2.94824C17.094 2.99659 17.0515 3.04247 17.0062 3.08564C14.9436 5.19677 12.8802 7.30707 10.816 9.41654C10.7297 9.4961 10.6376 9.56914 10.5404 9.63505Z" fill="#151515" stroke="#151515" strokeWidth="0.25"/>
<path d="M13.0234 9.63164C12.7371 9.6424 12.5881 9.43217 12.6808 9.2327C12.7237 9.15453 12.7797 9.08427 12.8463 9.02496C14.0944 7.77627 15.3431 6.52813 16.5924 5.28054C16.6487 5.22426 16.7074 5.14149 16.7745 5.13073C16.8854 5.11252 17.0509 5.10177 17.1055 5.1655C17.1734 5.24164 17.1726 5.40056 17.1602 5.51891C17.1544 5.58347 17.0658 5.64307 17.0095 5.69935C15.7614 6.94859 14.5127 8.19673 13.2635 9.44376C13.188 9.51203 13.1078 9.57482 13.0234 9.63164Z" fill="#151515" stroke="#151515" strokeWidth="0.25"/>
<path d="M6.01481 15.6266C6.23948 15.6329 6.4527 15.7271 6.60858 15.889C6.76446 16.0509 6.85054 16.2676 6.84828 16.4923C6.84093 16.7166 6.74582 16.9289 6.58343 17.0837C6.42105 17.2385 6.20437 17.3234 5.98005 17.32C5.76071 17.3099 5.55358 17.2161 5.4012 17.0581C5.24881 16.9 5.16274 16.6895 5.16064 16.47C5.16516 16.2459 5.25694 16.0323 5.41646 15.8748C5.57598 15.7173 5.79064 15.6283 6.01481 15.6266ZM6.35829 16.4956C6.19938 16.369 6.10419 16.2366 6.02722 16.2473C5.97046 16.2615 5.91809 16.2894 5.87476 16.3287C5.83144 16.368 5.79851 16.4174 5.77892 16.4725C5.76402 16.5362 5.9039 16.6984 5.98336 16.7042C6.08185 16.7108 6.18613 16.5991 6.35829 16.4956Z" fill="#151515" stroke="#151515" strokeWidth="0.25"/>
<path d="M21.3989 17.3216C21.1743 17.3201 20.9594 17.2304 20.8003 17.0718C20.6413 16.9133 20.551 16.6986 20.5488 16.474C20.551 16.2496 20.6414 16.035 20.8004 15.8766C20.9594 15.7181 21.1744 15.6286 21.3989 15.6273C21.6187 15.6325 21.8282 15.7219 21.9842 15.8769C22.1402 16.032 22.2308 16.2409 22.2373 16.4608C22.2378 16.6854 22.1503 16.9013 21.9936 17.0622C21.8369 17.223 21.6234 17.3162 21.3989 17.3216ZM21.7299 16.4757C21.5818 16.3631 21.4816 16.2315 21.4104 16.2456C21.3119 16.2638 21.2333 16.3921 21.1456 16.4732C21.2284 16.556 21.3111 16.6851 21.408 16.7041C21.4791 16.719 21.5793 16.5883 21.7291 16.4757H21.7299Z" fill="#151515" stroke="#151515" strokeWidth="0.25"/>
<path d="M21.7291 16.4757C21.5793 16.5883 21.4808 16.7191 21.4071 16.7042C21.3078 16.6851 21.2309 16.5552 21.1448 16.4732C21.2325 16.3905 21.3103 16.2638 21.4096 16.2456C21.4816 16.2349 21.581 16.3632 21.7291 16.4757Z" fill="white" stroke="#151515" strokeWidth="0.25"/>
</g>
<defs>
<clipPath id="clip0_538_642">
<rect width="27.3878" height="20" fill="white"/>
</clipPath>
</defs>
</svg>
