<svg width="24" height="24" viewBox="0 0 24 24" fill="none" xmlns="http://www.w3.org/2000/svg">
<g opacity="0.5">
<rect width="24" height="24" rx="12" fill="#D5DFF0"/>
<g clipPath="url(#clip0_184_488)">
<path d="M12 20.2125C11.7875 20.2125 11.6095 20.1407 11.466 19.9972C11.322 19.8532 11.25 19.675 11.25 19.4625V18.7125C9.68748 18.5375 8.34698 17.8907 7.22848 16.7722C6.10948 15.6532 5.46248 14.3125 5.28748 12.75H4.53748C4.32498 12.75 4.14673 12.678 4.00273 12.534C3.85923 12.3905 3.78748 12.2125 3.78748 12C3.78748 11.7875 3.85923 11.6092 4.00273 11.4652C4.14673 11.3217 4.32498 11.25 4.53748 11.25H5.28748C5.46248 9.68748 6.10948 8.34673 7.22848 7.22773C8.34698 6.10923 9.68748 5.46248 11.25 5.28748V4.53748C11.25 4.32498 11.322 4.14673 11.466 4.00273C11.6095 3.85923 11.7875 3.78748 12 3.78748C12.2125 3.78748 12.3907 3.85923 12.5347 4.00273C12.6782 4.14673 12.75 4.32498 12.75 4.53748V5.28748C14.3125 5.46248 15.6532 6.10923 16.7722 7.22773C17.8907 8.34673 18.5375 9.68748 18.7125 11.25H19.4625C19.675 11.25 19.8532 11.3217 19.9972 11.4652C20.1407 11.6092 20.2125 11.7875 20.2125 12C20.2125 12.2125 20.1407 12.3905 19.9972 12.534C19.8532 12.678 19.675 12.75 19.4625 12.75H18.7125C18.5375 14.3125 17.8907 15.6532 16.7722 16.7722C15.6532 17.8907 14.3125 18.5375 12.75 18.7125V19.4625C12.75 19.675 12.6782 19.8532 12.5347 19.9972C12.3907 20.1407 12.2125 20.2125 12 20.2125ZM12 17.25C13.45 17.25 14.6875 16.7375 15.7125 15.7125C16.7375 14.6875 17.25 13.45 17.25 12C17.25 10.55 16.7375 9.31248 15.7125 8.28748C14.6875 7.26248 13.45 6.74998 12 6.74998C10.55 6.74998 9.31248 7.26248 8.28748 8.28748C7.26248 9.31248 6.74998 10.55 6.74998 12C6.74998 13.45 7.26248 14.6875 8.28748 15.7125C9.31248 16.7375 10.55 17.25 12 17.25ZM12 15C11.175 15 10.4687 14.7062 9.88123 14.1187C9.29373 13.5312 8.99998 12.825 8.99998 12C8.99998 11.175 9.29373 10.4687 9.88123 9.88123C10.4687 9.29373 11.175 8.99998 12 8.99998C12.825 8.99998 13.5312 9.29373 14.1187 9.88123C14.7062 10.4687 15 11.175 15 12C15 12.825 14.7062 13.5312 14.1187 14.1187C13.5312 14.7062 12.825 15 12 15Z" fill="#004439"/>
</g>
</g>
<defs>
<clipPath id="clip0_184_488">
<rect width="18" height="18" fill="white" transform="translate(3 3)"/>
</clipPath>
</defs>
</svg>
