<svg width="18" height="18" viewBox="0 0 18 18" fill="none" xmlns="http://www.w3.org/2000/svg">
<path d="M9.00001 17.2125C8.78751 17.2125 8.60951 17.1408 8.46601 16.9973C8.32201 16.8533 8.25001 16.675 8.25001 16.4625V15.7125C6.68751 15.5375 5.34701 14.8908 4.22851 13.7723C3.10951 12.6533 2.46251 11.3125 2.28751 9.75001H1.53751C1.32501 9.75001 1.14676 9.67801 1.00276 9.53401C0.859256 9.39051 0.787506 9.21251 0.787506 9.00001C0.787506 8.78751 0.859256 8.60926 1.00276 8.46526C1.14676 8.32176 1.32501 8.25001 1.53751 8.25001H2.28751C2.46251 6.68751 3.10951 5.34676 4.22851 4.22776C5.34701 3.10926 6.68751 2.46251 8.25001 2.28751V1.53751C8.25001 1.32501 8.32201 1.14676 8.46601 1.00276C8.60951 0.859256 8.78751 0.787506 9.00001 0.787506C9.21251 0.787506 9.39076 0.859256 9.53476 1.00276C9.67826 1.14676 9.75001 1.32501 9.75001 1.53751V2.28751C11.3125 2.46251 12.6533 3.10926 13.7723 4.22776C14.8908 5.34676 15.5375 6.68751 15.7125 8.25001H16.4625C16.675 8.25001 16.8533 8.32176 16.9973 8.46526C17.1408 8.60926 17.2125 8.78751 17.2125 9.00001C17.2125 9.21251 17.1408 9.39051 16.9973 9.53401C16.8533 9.67801 16.675 9.75001 16.4625 9.75001H15.7125C15.5375 11.3125 14.8908 12.6533 13.7723 13.7723C12.6533 14.8908 11.3125 15.5375 9.75001 15.7125V16.4625C9.75001 16.675 9.67826 16.8533 9.53476 16.9973C9.39076 17.1408 9.21251 17.2125 9.00001 17.2125ZM9.00001 14.25C10.45 14.25 11.6875 13.7375 12.7125 12.7125C13.7375 11.6875 14.25 10.45 14.25 9.00001C14.25 7.55001 13.7375 6.31251 12.7125 5.28751C11.6875 4.26251 10.45 3.75001 9.00001 3.75001C7.55001 3.75001 6.31251 4.26251 5.28751 5.28751C4.26251 6.31251 3.75001 7.55001 3.75001 9.00001C3.75001 10.45 4.26251 11.6875 5.28751 12.7125C6.31251 13.7375 7.55001 14.25 9.00001 14.25ZM9.00001 12C8.17501 12 7.46876 11.7063 6.88126 11.1188C6.29376 10.5313 6.00001 9.82501 6.00001 9.00001C6.00001 8.17501 6.29376 7.46876 6.88126 6.88126C7.46876 6.29376 8.17501 6.00001 9.00001 6.00001C9.82501 6.00001 10.5313 6.29376 11.1188 6.88126C11.7063 7.46876 12 8.17501 12 9.00001C12 9.82501 11.7063 10.5313 11.1188 11.1188C10.5313 11.7063 9.82501 12 9.00001 12Z" fill="#004439"/>
</svg>
