<svg width="20" height="20" viewBox="0 0 20 20" fill="none" xmlns="http://www.w3.org/2000/svg">
<path d="M10.8334 5.83329H8.33342C8.1124 5.83329 7.90044 5.92109 7.74416 6.07737C7.58788 6.23365 7.50008 6.44561 7.50008 6.66663V13.3333C7.50008 13.5543 7.58788 13.7663 7.74416 13.9225C7.90044 14.0788 8.1124 14.1666 8.33342 14.1666C8.55443 14.1666 8.76639 14.0788 8.92267 13.9225C9.07895 13.7663 9.16675 13.5543 9.16675 13.3333V11.6666H10.8334C11.4965 11.6666 12.1323 11.4032 12.6012 10.9344C13.07 10.4656 13.3334 9.82967 13.3334 9.16663V8.33329C13.3334 7.67025 13.07 7.03437 12.6012 6.56553C12.1323 6.09668 11.4965 5.83329 10.8334 5.83329ZM11.6668 9.16663C11.6668 9.38764 11.579 9.5996 11.4227 9.75588C11.2664 9.91216 11.0544 9.99996 10.8334 9.99996H9.16675V7.49996H10.8334C11.0544 7.49996 11.2664 7.58776 11.4227 7.74404C11.579 7.90032 11.6668 8.11228 11.6668 8.33329V9.16663ZM10.0001 1.66663C8.35191 1.66663 6.74074 2.15537 5.37033 3.07105C3.99992 3.98672 2.93182 5.28821 2.30109 6.81093C1.67036 8.33365 1.50533 10.0092 1.82687 11.6257C2.14842 13.2422 2.94209 14.7271 4.10753 15.8925C5.27297 17.058 6.75782 17.8516 8.37433 18.1732C9.99084 18.4947 11.6664 18.3297 13.1891 17.699C14.7118 17.0682 16.0133 16.0001 16.929 14.6297C17.8447 13.2593 18.3334 11.6481 18.3334 9.99996C18.3334 8.90561 18.1179 7.82198 17.6991 6.81093C17.2803 5.79988 16.6665 4.88122 15.8926 4.1074C15.1188 3.33358 14.2002 2.71975 13.1891 2.30096C12.1781 1.88217 11.0944 1.66663 10.0001 1.66663ZM10.0001 16.6666C8.68154 16.6666 7.39261 16.2756 6.29628 15.5431C5.19996 14.8105 4.34547 13.7694 3.84089 12.5512C3.3363 11.333 3.20428 9.99256 3.46152 8.69936C3.71875 7.40615 4.35369 6.21826 5.28604 5.28591C6.21839 4.35356 7.40628 3.71863 8.69948 3.46139C9.99269 3.20416 11.3331 3.33618 12.5513 3.84076C13.7695 4.34535 14.8107 5.19983 15.5432 6.29616C16.2758 7.39249 16.6668 8.68142 16.6668 9.99996C16.6668 11.7681 15.9644 13.4638 14.7141 14.714C13.4639 15.9642 11.7682 16.6666 10.0001 16.6666Z" fill="#151515"/>
</svg>
