<svg width="26" height="26" viewBox="0 0 26 26" fill="none" xmlns="http://www.w3.org/2000/svg">
<circle cx="13" cy="13" r="13" fill="white"/>
<path d="M10.5 10.325V15.675C10.5 16.0583 10.675 16.35 11.025 16.55C11.375 16.75 11.7167 16.7333 12.05 16.5L16.2 13.85C16.5167 13.65 16.675 13.3667 16.675 13C16.675 12.6333 16.5167 12.35 16.2 12.15L12.05 9.5C11.7167 9.26667 11.375 9.25 11.025 9.45C10.675 9.65 10.5 9.94167 10.5 10.325ZM13 23C11.6167 23 10.3167 22.7373 9.1 22.212C7.88333 21.6873 6.825 20.975 5.925 20.075C5.025 19.175 4.31267 18.1167 3.788 16.9C3.26267 15.6833 3 14.3833 3 13C3 11.6167 3.26267 10.3167 3.788 9.1C4.31267 7.88333 5.025 6.825 5.925 5.925C6.825 5.025 7.88333 4.31233 9.1 3.787C10.3167 3.26233 11.6167 3 13 3C14.3833 3 15.6833 3.26233 16.9 3.787C18.1167 4.31233 19.175 5.025 20.075 5.925C20.975 6.825 21.6873 7.88333 22.212 9.1C22.7373 10.3167 23 11.6167 23 13C23 14.3833 22.7373 15.6833 22.212 16.9C21.6873 18.1167 20.975 19.175 20.075 20.075C19.175 20.975 18.1167 21.6873 16.9 22.212C15.6833 22.7373 14.3833 23 13 23Z" fill="#004439"/>
</svg>
