<svg width="130" height="121" viewBox="0 0 130 121" fill="none" xmlns="http://www.w3.org/2000/svg">
<path d="M32.91 5.57711C30.524 0.274106 28.013 0.1671 25.744 0.0740997C23.886 -0.0059003 21.762 0.000102196 19.64 0.000102196C17.516 0.000102196 14.065 0.799103 11.148 3.9841C8.228 7.1721 0 14.8761 0 30.5451C0 46.2151 11.413 61.3581 13.004 63.4851C14.597 65.6081 35.037 98.7921 67.409 111.558C94.313 122.167 99.788 120.057 105.627 119.525C111.467 118.995 124.471 111.823 127.124 104.386C129.779 96.9501 129.779 90.5761 128.983 89.2441C128.187 87.9171 126.063 87.1201 122.878 85.5281C119.692 83.9351 104.034 76.2301 101.115 75.1671C98.195 74.1051 96.072 73.5751 93.948 76.7641C91.824 79.9481 85.725 87.1201 83.866 89.2441C82.009 91.3731 80.15 91.6381 76.966 90.0451C73.779 88.4471 63.522 85.0881 51.353 74.2391C41.885 65.7971 35.493 55.3721 33.635 52.1831C31.777 48.9991 33.436 47.2731 35.033 45.6861C36.464 44.2591 38.219 41.9671 39.813 40.1081C41.401 38.2481 41.931 36.9211 42.993 34.7971C44.056 32.6711 43.524 30.8111 42.729 29.2181C41.931 27.6251 35.742 11.8741 32.91 5.57711Z" fill="#004439"/>
</svg>
