<svg width="22" height="25" viewBox="0 0 22 25" fill="none" xmlns="http://www.w3.org/2000/svg">
<path d="M21.5825 9.40069C21.4698 8.09325 21.1126 6.81859 20.5295 5.64295C19.5669 3.67807 17.978 2.08921 16.0131 1.12656C14.2314 0.203192 12.2128 -0.161977 10.2205 0.0786562C8.68861 0.252562 7.20948 0.742439 5.87663 1.51731C2.15949 3.71968 0.2007 8.29189 1.15472 12.6028C1.68502 14.9802 3.18457 16.9593 4.85918 18.6694C6.70887 20.5623 8.61438 22.3891 10.4945 24.2515C10.7254 24.4849 10.9665 24.7006 11.2811 24.9975C11.5729 24.7234 11.7885 24.5306 11.9991 24.3276C16.1578 20.2121 22.2067 15.9901 21.5825 9.40069ZM16.9114 13.5974C16.911 13.9207 16.8257 14.2383 16.664 14.5184C16.5024 14.7985 16.2701 15.0312 15.9903 15.1933C15.6656 15.3949 15.2888 15.4963 14.9069 15.4851H7.65021C7.22934 15.4965 6.8156 15.3748 6.46783 15.1375C6.10204 14.8852 5.83347 14.5155 5.70664 14.0896C5.64701 13.8715 5.61881 13.6459 5.6229 13.4198C5.6229 11.8077 5.6229 10.2008 5.6229 8.59891C5.61873 8.46976 5.6445 8.34139 5.69821 8.22386C5.75191 8.10633 5.83208 8.00282 5.93245 7.92144C6.58708 7.36578 7.24424 6.80757 7.89633 6.24683C8.54841 5.68609 9.24109 5.09997 9.91348 4.524L10.7863 3.78565C10.9204 3.67127 11.0909 3.60844 11.2671 3.60844C11.4434 3.60844 11.6139 3.67127 11.7479 3.78565C12.3637 4.29311 12.976 4.81156 13.5849 5.34101L15.3433 6.83802L16.6703 7.96965C16.7515 8.03734 16.8165 8.12242 16.8604 8.2186C16.9044 8.31478 16.9261 8.41961 16.924 8.52532C16.9164 10.2101 16.9291 11.9025 16.9114 13.5974Z" fill="#004439"/>
</svg>
