<svg width="20" height="20" viewBox="0 0 20 20" fill="none" xmlns="http://www.w3.org/2000/svg">
<path d="M18.75 15V13.75H17.4369C17.3564 13.3587 17.201 12.9867 16.9794 12.6544L17.9106 11.7231L17.0269 10.8394L16.0956 11.7706C15.7633 11.549 15.3913 11.3936 15 11.3131V10H13.75V11.3131C13.3587 11.3936 12.9867 11.549 12.6544 11.7706L11.7231 10.8394L10.8394 11.7231L11.7706 12.6544C11.549 12.9867 11.3936 13.3587 11.3131 13.75H10V15H11.3131C11.3944 15.3981 11.5531 15.7681 11.7706 16.0956L10.8394 17.0269L11.7231 17.9106L12.6544 16.9794C12.9867 17.201 13.3587 17.3564 13.75 17.4369V18.75H15V17.4369C15.3913 17.3564 15.7633 17.201 16.0956 16.9794L17.0269 17.9106L17.9106 17.0269L16.9794 16.0956C17.201 15.7633 17.3564 15.3913 17.4369 15H18.75ZM14.375 16.25C13.3412 16.25 12.5 15.4087 12.5 14.375C12.5 13.3413 13.3412 12.5 14.375 12.5C15.4088 12.5 16.25 13.3413 16.25 14.375C16.25 15.4087 15.4088 16.25 14.375 16.25ZM7.5 3.75H10V5H7.5V3.75Z" fill="#151515"/>
<path d="M3.75 17.5V2.5H13.75V8.125H15V2.5C15 1.81062 14.4394 1.25 13.75 1.25H3.75C3.06062 1.25 2.5 1.81062 2.5 2.5V17.5C2.5 18.1894 3.06062 18.75 3.75 18.75H8.75V17.5H3.75Z" fill="#151515"/>
</svg>
