<svg width="20" height="20" viewBox="0 0 20 20" fill="none" xmlns="http://www.w3.org/2000/svg">
<path d="M1.66675 13.3333V15.8333M10.0001 10.8333V5.83329M10.0001 5.83329C10.0001 5.39127 10.1757 4.96734 10.4882 4.65478C10.8008 4.34222 11.2247 4.16663 11.6667 4.16663H15.0001C15.4421 4.16663 15.866 4.34222 16.1786 4.65478C16.4912 4.96734 16.6667 5.39127 16.6667 5.83329V7.49996M10.0001 5.83329C10.0001 5.39127 9.82449 4.96734 9.51193 4.65478C9.19936 4.34222 8.77544 4.16663 8.33341 4.16663H5.00008C4.55805 4.16663 4.13413 4.34222 3.82157 4.65478C3.50901 4.96734 3.33341 5.39127 3.33341 5.83329V7.49996" stroke="#151515" strokeWidth="1.25" strokeLinecap="round" strokeLinejoin="round"/>
<path d="M18.3334 13.3333V15.8333M16.6667 7.5C16.2247 7.5 15.8008 7.6756 15.4882 7.98816C15.1757 8.30072 15.0001 8.72464 15.0001 9.16667V10.8333H5.00008V9.16667C5.00008 8.72464 4.82449 8.30072 4.51193 7.98816C4.19937 7.6756 3.77544 7.5 3.33341 7.5C2.89139 7.5 2.46746 7.6756 2.1549 7.98816C1.84234 8.30072 1.66675 8.72464 1.66675 9.16667V14.1667H18.3334V9.16667C18.3334 8.72464 18.1578 8.30072 17.8453 7.98816C17.5327 7.6756 17.1088 7.5 16.6667 7.5Z" stroke="#151515" strokeWidth="1.25" strokeLinecap="round" strokeLinejoin="round"/>
</svg>
