<svg width="24" height="24" viewBox="0 0 24 24" fill="none" xmlns="http://www.w3.org/2000/svg">
<circle opacity="0.25" cx="12" cy="12" r="12" fill="#D9D9D9"/>
<g clipPath="url(#clip0_538_609)">
<path d="M7.35151 22H6.64839C6.65412 21.9162 6.66453 21.8323 6.66453 21.7485C6.66453 19.7957 6.66453 17.8429 6.66453 15.8901C6.66453 15.4084 6.74162 15.3308 7.21662 15.3302H7.6661C7.6661 14.9657 7.63328 14.6308 7.67547 14.3047C7.71766 13.9787 7.83172 13.662 7.91714 13.3459H5.00047V13.6146C5.00047 16.2445 5.00134 18.8743 5.00308 21.5042C5.00308 21.7125 4.95828 21.887 4.77026 22.0011H3.24995C3.03433 21.9094 2.99995 21.7318 2.99995 21.5209C3.00308 18.8781 3.00308 16.2356 2.99995 13.5933V13.3328C2.79683 13.3328 2.62131 13.3235 2.44735 13.3354C2.24214 13.35 2.09526 13.274 1.99787 13.0959V10.8281C2.06818 10.6849 2.14162 10.5427 2.2062 10.3974C2.22253 10.3596 2.2242 10.3171 2.21089 10.2781C2.14422 10.1339 2.0687 9.99325 1.99683 9.85159V9.46096C2.11714 9.15107 2.28589 8.88492 2.61037 8.74638C2.64318 8.73232 2.65881 8.64742 2.66245 8.59482C2.66714 8.30888 2.66245 8.0219 2.66558 7.73596C2.66922 7.46461 2.78745 7.34273 3.05881 7.33596C3.33016 7.32919 3.60568 7.33596 3.8786 7.33596C4.71818 7.33857 5.55776 7.32919 6.39683 7.3495C6.61373 7.35641 6.8219 7.43658 6.98741 7.57693C7.15293 7.71729 7.26603 7.90956 7.30828 8.12242C7.35625 8.33396 7.3323 8.55545 7.24023 8.75185C7.14816 8.94825 6.99323 9.10834 6.79995 9.2068C6.68693 9.26721 6.66141 9.33492 6.66297 9.45003C6.6687 9.85315 6.66297 10.2568 6.66297 10.6604V11.3271H7.49943C7.34995 10.9511 7.20412 10.5912 7.06558 10.2287C7.03172 10.1401 6.9911 10.0354 7.00776 9.94898C7.07391 9.60471 7.1312 9.25419 7.24735 8.92607C7.68068 7.70211 8.5036 6.83596 9.70516 6.3344C9.75724 6.31305 9.80256 6.28232 9.8562 6.25523C9.81558 6.18805 9.78589 6.13805 9.75464 6.08857C9.54081 5.7548 9.40459 5.3773 9.35603 4.9839C9.30746 4.59049 9.34779 4.1912 9.47404 3.81545C9.60029 3.43971 9.80924 3.09707 10.0855 2.8128C10.3618 2.52854 10.6983 2.30988 11.0703 2.17294C11.2687 2.09898 11.4796 2.05784 11.6848 2.00159H12.3098C12.3578 2.01768 12.4067 2.03107 12.4562 2.04169C13.9369 2.27294 14.9635 3.81721 14.5791 5.26409C14.488 5.6094 14.3187 5.9344 14.1828 6.28128C14.339 6.35419 14.5317 6.43075 14.7119 6.53075C15.9026 7.19065 16.6234 8.19742 16.9177 9.52242C16.9901 9.84898 17.0057 10.1547 16.8442 10.4646C16.7244 10.6938 16.6458 10.9443 16.5505 11.186C16.5333 11.2302 16.525 11.2776 16.5125 11.3224H17.6625V11.0964C17.6625 10.4261 17.6625 9.75627 17.6625 9.08596C17.6625 8.82867 17.7666 8.6818 17.9817 8.67867C18.6588 8.66982 19.3359 8.67086 20.013 8.67867C20.2005 8.67867 20.3083 8.80159 20.3255 8.99117C20.3343 9.09898 20.3255 9.20784 20.3255 9.33909C20.5401 9.33909 20.727 9.33909 20.9135 9.33909C21.2109 9.34273 21.3302 9.45836 21.3302 9.75107C21.3333 10.0309 21.3333 10.3108 21.3302 10.5906C21.327 10.8745 21.2098 10.9933 20.927 10.9995C20.7343 11.0037 20.5411 10.9995 20.3421 10.9995V11.337C20.7468 11.337 21.1364 11.3448 21.526 11.3334C21.7343 11.3276 21.8942 11.3854 21.9947 11.5724V13.0938C21.8973 13.2719 21.7505 13.3474 21.5453 13.3334C21.3671 13.3214 21.1875 13.3308 20.9927 13.3308V13.6146C20.9927 16.2507 20.9927 18.8867 20.9927 21.5224C20.9927 21.7334 20.9583 21.911 20.7427 22.0026H19.2265C19.0385 21.8886 18.9937 21.7162 18.9937 21.5058C18.9979 18.8627 18.9987 16.2198 18.9963 13.5771V13.3443H15.9911C16.4682 13.9547 16.2963 14.6542 16.3442 15.3328H16.802C17.25 15.3328 17.3343 15.4188 17.3343 15.8729C17.3343 17.8323 17.3343 19.7917 17.3343 21.7511C17.3343 21.8349 17.3447 21.9188 17.3505 22.0026H16.6473C16.6557 21.9509 16.661 21.8987 16.6635 21.8464C16.6635 19.961 16.6635 18.0754 16.6635 16.1896C16.6635 16.1328 16.6562 16.0761 16.6515 16.0089H15.5744C15.5654 16.0279 15.5584 16.0478 15.5536 16.0683C15.389 17.5266 15.2256 18.9849 15.0635 20.4433C15.0592 20.4941 15.0717 20.5449 15.0989 20.588C15.3041 20.8808 15.3354 21.213 15.3338 21.5552C15.3338 21.7578 15.2744 21.9094 15.0859 21.9974H12.8984C12.8229 21.8979 12.6973 21.8058 12.6817 21.6974C12.6375 21.3948 12.6296 21.0724 12.7916 20.8037C12.926 20.5792 12.9312 20.3646 12.9031 20.1198C12.7494 18.7969 12.6067 17.4729 12.463 16.149C12.451 16.0396 12.4145 15.9865 12.2947 15.9927C12.1327 16.0063 11.9698 16.0063 11.8078 15.9927C11.6036 15.9698 11.5473 16.0495 11.5296 16.2459C11.4005 17.6521 11.2578 19.0526 11.1229 20.4558C11.1126 20.5251 11.1224 20.5959 11.151 20.6599C11.3072 20.9302 11.3343 21.2214 11.3385 21.5245C11.3411 21.7328 11.2828 21.8917 11.1015 21.9985H8.91401C8.83589 21.9094 8.70568 21.8281 8.69006 21.7292C8.6437 21.4209 8.62964 21.0974 8.78224 20.8125C8.88328 20.625 8.88068 20.4448 8.86089 20.2495C8.78485 19.5058 8.71297 18.7615 8.63901 18.0172C8.57287 17.3511 8.5062 16.6849 8.43901 16.0136H7.34526C7.34162 16.0875 7.33641 16.1453 7.33641 16.2032C7.33641 18.0782 7.33641 19.9521 7.33641 21.825C7.33537 21.8844 7.34578 21.9422 7.35151 22ZM12.0031 6.66305C12.3983 6.66294 12.7846 6.54565 13.1132 6.32599C13.4418 6.10634 13.6978 5.79419 13.849 5.42902C14.0002 5.06384 14.0397 4.66204 13.9625 4.27441C13.8854 3.88679 13.695 3.53075 13.4155 3.25132C13.136 2.97188 12.7799 2.7816 12.3922 2.70453C12.0046 2.62746 11.6028 2.66707 11.2377 2.81834C10.8725 2.96961 10.5604 3.22576 10.3409 3.55439C10.1213 3.88302 10.0041 4.26938 10.0041 4.66461C10.0049 5.19446 10.2158 5.70237 10.5905 6.07699C10.9653 6.4516 11.4732 6.66236 12.0031 6.66305ZM21.3296 12.013H2.68068V12.649H21.3296V12.013ZM15.0036 11.336C15.2291 11.336 15.4359 11.3308 15.6421 11.336C15.7437 11.3401 15.7906 11.3021 15.826 11.2099C15.9661 10.8453 16.1187 10.487 16.2541 10.1219C16.2932 10.0205 16.3054 9.91068 16.2895 9.80315C16.0067 8.32398 15.1723 7.31617 13.727 6.84325C13.644 6.82195 13.5559 6.83352 13.4812 6.87554C12.4916 7.48388 11.5098 7.4844 10.5213 6.87554C10.4469 6.83274 10.3589 6.82024 10.2755 6.84065C8.82964 7.312 7.99631 8.32034 7.70933 9.79846C7.6905 9.88631 7.69517 9.97758 7.72287 10.063C7.8687 10.4526 8.02443 10.838 8.18485 11.2219C8.19734 11.2481 8.21567 11.2711 8.23841 11.2892C8.26116 11.3072 8.28773 11.3198 8.3161 11.3261C8.53537 11.3375 8.75516 11.3313 8.99631 11.3313V11.1047C8.99631 10.2259 8.99631 9.34725 8.99631 8.46878C8.99631 8.10992 9.10412 8.00003 9.45933 8.00003C11.152 8.00003 12.8444 8.00003 14.5364 8.00003C14.8937 8.00003 15.002 8.1094 15.0052 8.46617C15.0052 9.34499 15.0052 10.2236 15.0052 11.1021L15.0036 11.336ZM14.3265 8.6844H9.67703V11.3209H14.3255L14.3265 8.6844ZM15.5989 15.3334L15.6479 15.312C15.6479 14.9308 15.6817 14.5453 15.6395 14.1662C15.5833 13.6667 15.1708 13.3328 14.6416 13.3328C12.8784 13.3266 11.1151 13.3266 9.35151 13.3328C8.76141 13.336 8.35099 13.7578 8.33276 14.3474C8.32391 14.6401 8.33016 14.9334 8.33276 15.2261C8.33785 15.2601 8.34712 15.2933 8.36037 15.325L8.40724 15.3334C8.43016 15.2745 8.45933 15.2162 8.47443 15.1558C8.66401 14.4938 9.19839 14.0709 9.93276 14.0021C10.4984 13.95 11.1984 14.2985 11.3947 14.8766C11.551 15.3313 11.8036 15.3735 12.176 15.3297C12.2147 15.3248 12.2539 15.3248 12.2927 15.3297C12.3968 15.3433 12.4375 15.2927 12.4645 15.1948C12.6635 14.4787 13.2687 14.0063 13.9895 13.9969C14.6942 13.9886 15.326 14.4724 15.5322 15.1771C15.5514 15.2304 15.5737 15.2826 15.5989 15.3334ZM10.4828 20.0417C10.4926 20.0028 10.5003 19.9633 10.5057 19.9235C10.6453 18.5073 10.7869 17.0912 10.9177 15.674C10.9277 15.5252 10.9042 15.376 10.8489 15.2375C10.6802 14.8099 10.2088 14.5912 9.75516 14.7104C9.28641 14.8334 9.02599 15.2573 9.07808 15.7745C9.18224 16.7896 9.28068 17.8058 9.38172 18.8203C9.42339 19.237 9.46714 19.6537 9.50672 20.0417H10.4828ZM14.4343 20.0532C14.4562 19.8625 14.4786 19.6766 14.4994 19.4907C14.6364 18.2568 14.7692 17.0224 14.9135 15.7896C14.9598 15.3912 14.8567 15.0604 14.5208 14.8375C14.1963 14.6219 13.8437 14.6167 13.5078 14.8193C13.1718 15.0219 13.0437 15.3474 13.0859 15.7375C13.1703 16.5129 13.2548 17.2882 13.3395 18.0636C13.4135 18.7287 13.4906 19.3927 13.5661 20.0578C13.7027 20.0333 13.8406 20.017 13.9791 20.0089C14.1315 20.0158 14.2834 20.0306 14.4343 20.0532ZM3.68641 13.3375V21.3229H4.31974V13.3375H3.68641ZM20.313 21.3229V13.3443H19.6739V21.3229H20.313ZM19.651 11.3297V9.35055H18.3489V11.3297H19.651ZM3.34526 8.02294V8.66929H6.16662C6.22521 8.67122 6.28387 8.66896 6.34214 8.66253C6.55047 8.63336 6.66766 8.49898 6.65464 8.31044C6.64422 8.1318 6.52078 8.00784 6.31506 8.00679C5.34526 8.00211 4.37495 8.00679 3.40516 8.00679C3.38465 8.00991 3.36456 8.01533 3.34526 8.02294ZM5.98693 9.36878C5.97131 9.35471 5.96662 9.3469 5.96193 9.3469C4.96714 9.3443 3.97287 9.33961 2.9786 9.34325C2.79683 9.34325 2.69787 9.46877 2.67235 9.64117C2.64943 9.79742 2.76193 9.94169 2.92912 9.98232C2.99873 9.99744 3.06988 10.0043 3.1411 10.0026C4.02547 10.0026 4.90985 10.0026 5.79422 10.0026H5.98693V9.36878ZM5.99735 10.6709H3.16141C3.09643 10.6687 3.03138 10.6704 2.96662 10.6761C2.88786 10.6835 2.81448 10.7192 2.76015 10.7767C2.70582 10.8342 2.67424 10.9095 2.67131 10.9886C2.6659 11.0645 2.68837 11.1397 2.73449 11.2002C2.78061 11.2607 2.84722 11.3023 2.92183 11.3172C2.99163 11.3321 3.06299 11.3384 3.13433 11.336C4.0194 11.336 4.90394 11.336 5.78797 11.336H5.98433C5.99006 11.2703 5.99631 11.2261 5.99683 11.1797C5.99839 11.0193 5.99735 10.8573 5.99735 10.6693V10.6709ZM10.6567 21.3229C10.6296 20.9094 10.3239 20.638 9.93433 20.6724C9.59266 20.7026 9.32912 21.0005 9.36141 21.3229H10.6567ZM14.6484 21.3229C14.6508 21.2362 14.6359 21.1499 14.6044 21.069C14.5729 20.9882 14.5255 20.9144 14.465 20.8522C14.4045 20.79 14.3322 20.7405 14.2523 20.7068C14.1723 20.673 14.0865 20.6556 13.9997 20.6556C13.9129 20.6556 13.827 20.673 13.7471 20.7068C13.6672 20.7405 13.5948 20.79 13.5344 20.8522C13.4739 20.9144 13.4265 20.9882 13.395 21.069C13.3635 21.1499 13.3485 21.2362 13.351 21.3229H14.6484ZM20.3421 10.0156V10.3177H20.6588V10.0156H20.3421Z" fill="#151515"/>
<path d="M18.6568 7.65994H18.0193V6.349H18.6568V7.65994Z" fill="#151515"/>
<path d="M19.6495 7.98955H19.0078V7.01611H19.6495V7.98955Z" fill="#151515"/>
<path d="M12.9897 9.67859V10.3192H11.0105V9.67859H12.9897Z" fill="#151515"/>
</g>
<defs>
<clipPath id="clip0_538_609">
<rect width="20" height="20" fill="white" transform="translate(2 2)"/>
</clipPath>
</defs>
</svg>
