<svg width="40" height="40" viewBox="0 0 40 40" fill="none" xmlns="http://www.w3.org/2000/svg">
<path d="M20 28C20.5667 28 21.042 27.808 21.426 27.424C21.8087 27.0413 22 26.5667 22 26V19.6L23.8 21.4C24.1667 21.7667 24.6333 21.95 25.2 21.95C25.7667 21.95 26.2333 21.7667 26.6 21.4C26.9667 21.0333 27.15 20.5667 27.15 20C27.15 19.4333 26.9667 18.9667 26.6 18.6L21.4 13.4C21.2 13.2 20.9833 13.058 20.75 12.974C20.5167 12.8913 20.2667 12.85 20 12.85C19.7333 12.85 19.4833 12.8913 19.25 12.974C19.0167 13.058 18.8 13.2 18.6 13.4L13.4 18.6C13.0333 18.9667 12.85 19.4333 12.85 20C12.85 20.5667 13.0333 21.0333 13.4 21.4C13.7667 21.7667 14.2333 21.95 14.8 21.95C15.3667 21.95 15.8333 21.7667 16.2 21.4L18 19.6V26C18 26.5667 18.192 27.0413 18.576 27.424C18.9587 27.808 19.4333 28 20 28ZM20 40C17.2333 40 14.6333 39.4747 12.2 38.424C9.76667 37.3747 7.65 35.95 5.85 34.15C4.05 32.35 2.62533 30.2333 1.576 27.8C0.525334 25.3667 0 22.7667 0 20C0 17.2333 0.525334 14.6333 1.576 12.2C2.62533 9.76667 4.05 7.65 5.85 5.85C7.65 4.05 9.76667 2.62467 12.2 1.574C14.6333 0.524667 17.2333 0 20 0C22.7667 0 25.3667 0.524667 27.8 1.574C30.2333 2.62467 32.35 4.05 34.15 5.85C35.95 7.65 37.3747 9.76667 38.424 12.2C39.4747 14.6333 40 17.2333 40 20C40 22.7667 39.4747 25.3667 38.424 27.8C37.3747 30.2333 35.95 32.35 34.15 34.15C32.35 35.95 30.2333 37.3747 27.8 38.424C25.3667 39.4747 22.7667 40 20 40Z" fill="white"/>
</svg>
