<svg width="15" height="15" viewBox="0 0 15 15" fill="none" xmlns="http://www.w3.org/2000/svg">
<path d="M12 9.66671V7.33338C12 7.15657 11.9297 6.987 11.8047 6.86198C11.6797 6.73695 11.5101 6.66672 11.3333 6.66672H10.6667C12.16 5.59338 12.5067 3.51338 11.4333 2.00005C10.9139 1.28603 10.1334 0.806201 9.26179 0.665096C8.39019 0.523992 7.49814 0.733046 6.77999 1.24672C6.33332 1.56672 5.97332 2.00005 5.73332 2.48672C5.36077 2.25592 4.94626 2.10108 4.51363 2.03112C4.081 1.96116 3.63881 1.97746 3.21251 2.07908C2.7862 2.1807 2.38421 2.36563 2.02966 2.62323C1.67512 2.88083 1.37502 3.20601 1.14665 3.58005C0.683552 4.3333 0.538576 5.23964 0.743606 6.09977C0.948635 6.95989 1.48688 7.70337 2.23999 8.16672C2.37999 8.24672 2.51999 8.33338 2.66665 8.38671V14C2.66665 14.1769 2.73689 14.3464 2.86192 14.4715C2.98694 14.5965 3.15651 14.6667 3.33332 14.6667H11.3333C11.5101 14.6667 11.6797 14.5965 11.8047 14.4715C11.9297 14.3464 12 14.1769 12 14V11.6667L14.6667 14.3334V7.00005L12 9.66671ZM8.66665 2.66672C9.02028 2.66672 9.35941 2.80719 9.60946 3.05724C9.85951 3.30729 9.99999 3.64643 9.99999 4.00005C9.99999 4.35367 9.85951 4.69281 9.60946 4.94286C9.35941 5.19291 9.02028 5.33338 8.66665 5.33338C8.31303 5.33338 7.97389 5.19291 7.72384 4.94286C7.4738 4.69281 7.33332 4.35367 7.33332 4.00005C7.33332 3.64643 7.4738 3.30729 7.72384 3.05724C7.97389 2.80719 8.31303 2.66672 8.66665 2.66672ZM3.99999 4.00005C4.35361 4.00005 4.69275 4.14052 4.9428 4.39057C5.19284 4.64062 5.33332 4.97976 5.33332 5.33338C5.33332 5.687 5.19284 6.02614 4.9428 6.27619C4.69275 6.52624 4.35361 6.66672 3.99999 6.66672C3.64637 6.66672 3.30723 6.52624 3.05718 6.27619C2.80713 6.02614 2.66665 5.687 2.66665 5.33338C2.66665 4.97976 2.80713 4.64062 3.05718 4.39057C3.30723 4.14052 3.64637 4.00005 3.99999 4.00005Z" fill="white"/>
</svg>
