<svg width="20" height="20" viewBox="0 0 20 20" fill="none" xmlns="http://www.w3.org/2000/svg">
<path d="M4.18774 3.35217V5.00523H14.1169L14.2958 3.35217H4.18774ZM6.0858 15.1913L6.22469 16.6586H12.2019L12.3664 15.1913H6.0858Z" fill="#D0CFCE"/>
<path d="M11.6934 16.7161H13.7275L13.8706 15.1242H11.86L11.6934 16.7161ZM15.7025 3.41333H13.5942L13.4197 4.9725H15.7025V3.41333Z" fill="#9B9B9A"/>
<path d="M5.93899 13.998L4.93705 6.1144M15.0732 6.10634L14.0295 13.9938M11.2712 6.13579L13.5415 8.91912M8.44927 6.14718L13.2137 11.8811M6.20899 6.7369L12.2823 14.0069M6.63955 10.2766L9.9801 14.0638M7.0326 13.7211L7.41121 14.098M6.45233 8.67606L8.83705 6.13968M6.83621 11.6338L11.9037 6.14718M7.46816 14.0638L13.7173 7.42079M10.1595 14.0638L13.3659 10.7455M12.2823 14.098L12.8732 13.6M4.14038 3.34106H15.8195V4.99273H4.14038V3.34106Z" stroke="#151515" stroke-miterlimit="10" strokeLinecap="round" strokeLinejoin="round"/>
<path d="M11.9038 15.1122H13.9235" stroke="#151515" strokeWidth="0.5" stroke-miterlimit="10"/>
<path d="M13.9234 15.1122L13.7268 16.6572H6.23067L6.0415 15.1122H13.9234Z" stroke="#151515" stroke-miterlimit="10" strokeLinecap="round" strokeLinejoin="round"/>
</svg>
