<svg width="242" height="242" viewBox="0 0 242 242" fill="none" xmlns="http://www.w3.org/2000/svg">
<path d="M206.187 35.3292C195.109 24.1391 181.914 15.2668 167.371 9.22979C152.829 3.19276 137.229 0.11182 121.483 0.166674C55.5083 0.166674 1.73748 53.9375 1.73748 119.913C1.73748 141.058 7.29581 161.6 17.6875 179.725L0.770813 241.833L64.2083 225.158C81.7292 234.704 101.425 239.779 121.483 239.779C187.458 239.779 241.229 186.008 241.229 120.033C241.229 88.0125 228.783 57.925 206.187 35.3292ZM121.483 219.479C103.6 219.479 86.0792 214.646 70.7333 205.583L67.1083 203.408L29.4083 213.317L39.4375 176.583L37.0208 172.838C27.0852 156.972 21.8096 138.633 21.7958 119.913C21.7958 65.0542 66.5041 20.3458 121.362 20.3458C147.946 20.3458 172.958 30.7375 191.687 49.5875C200.961 58.8187 208.311 69.7988 213.309 81.8914C218.308 93.9839 220.857 106.948 220.808 120.033C221.05 174.892 176.342 219.479 121.483 219.479ZM176.1 145.046C173.079 143.596 158.337 136.346 155.679 135.258C152.9 134.292 150.967 133.808 148.912 136.708C146.858 139.729 141.179 146.496 139.487 148.429C137.796 150.483 135.983 150.725 132.962 149.154C129.942 147.704 120.275 144.442 108.917 134.292C99.975 126.317 94.0541 116.529 92.2416 113.508C90.55 110.488 92 108.917 93.5708 107.346C94.9 106.017 96.5917 103.842 98.0417 102.15C99.4917 100.458 100.096 99.1292 101.062 97.1958C102.029 95.1417 101.546 93.45 100.821 92C100.096 90.55 94.0541 75.8083 91.6375 69.7667C89.2208 63.9667 86.6833 64.6917 84.8708 64.5708H79.0708C77.0166 64.5708 73.875 65.2958 71.0958 68.3167C68.4375 71.3375 60.7041 78.5875 60.7041 93.3292C60.7041 108.071 71.4583 122.329 72.9083 124.263C74.3583 126.317 94.0541 156.525 124.021 169.454C131.15 172.596 136.708 174.408 141.058 175.738C148.187 178.033 154.712 177.671 159.908 176.946C165.708 176.1 177.671 169.696 180.087 162.688C182.625 155.679 182.625 149.758 181.779 148.429C180.933 147.1 179.121 146.496 176.1 145.046Z" fill="#004439"/>
</svg>
