<svg width="80" height="80" viewBox="0 0 80 80" fill="none" xmlns="http://www.w3.org/2000/svg">
<path d="M30 29.3V50.7C30 52.2333 30.7 53.4 32.1 54.2C33.5 55 34.8667 54.9333 36.2 54L52.8 43.4C54.0667 42.6 54.7 41.4667 54.7 40C54.7 38.5333 54.0667 37.4 52.8 36.6L36.2 26C34.8667 25.0667 33.5 25 32.1 25.8C30.7 26.6 30 27.7667 30 29.3ZM40 80C34.4667 80 29.2667 78.9493 24.4 76.848C19.5333 74.7467 15.3 71.8973 11.7 68.3C8.1 64.7 5.25067 60.4667 3.152 55.6C1.05333 50.7333 0.00266667 45.5333 0 40C0 34.4667 1.05067 29.2667 3.152 24.4C5.25333 19.5333 8.10267 15.3 11.7 11.7C15.3 8.1 19.5333 5.25067 24.4 3.152C29.2667 1.05333 34.4667 0.00266667 40 0C45.5333 0 50.7333 1.05067 55.6 3.152C60.4667 5.25333 64.7 8.10267 68.3 11.7C71.9 15.3 74.7507 19.5333 76.852 24.4C78.9533 29.2667 80.0027 34.4667 80 40C80 45.5333 78.9493 50.7333 76.848 55.6C74.7467 60.4667 71.8973 64.7 68.3 68.3C64.7 71.9 60.4667 74.7507 55.6 76.852C50.7333 78.9533 45.5333 80.0027 40 80Z" fill="white"/>
</svg>
