<svg width="80" height="80" viewBox="0 0 80 80" fill="none" xmlns="http://www.w3.org/2000/svg">
<g clipPath="url(#clip0_346_21)">
<path d="M7.30006e-06 40.0043C-0.0122942 46.634 1.63646 53.1612 4.79572 58.9898C5.51292 60.3286 6.30933 61.6235 7.1807 62.8676C9.67992 66.4644 12.7587 69.6215 16.2917 72.2102C16.2917 72.2102 16.3346 72.2102 16.3518 72.2616C16.5834 72.4332 16.815 72.6048 17.0552 72.7592C24.4409 77.9365 33.3603 80.4642 42.3642 79.9315C51.368 79.3989 59.9272 75.8372 66.651 69.8252C68.0448 68.5743 69.3518 67.23 70.563 65.8016C71.135 65.161 71.6583 64.5004 72.133 63.8198C75.8994 58.7358 78.406 52.8308 79.4467 46.5898C80.4874 40.3488 80.0326 33.95 78.1197 27.9189C76.2067 21.8879 72.8902 16.3967 68.4426 11.8965C63.995 7.39636 58.5432 4.01557 52.535 2.0319C46.5269 0.0482374 40.1338 -0.481687 33.881 0.485635C27.6282 1.45296 21.6942 3.88993 16.5663 7.59637C11.4384 11.3028 7.26299 16.173 4.38312 21.8067C1.50326 27.4405 0.00109489 33.6771 7.30006e-06 40.0043Z" fill="#F7F5FF"/>
<path d="M27.8906 30.5158C28.5083 27.719 30.6274 25.8059 32.6006 26.2262L33.63 26.3807C33.7569 26.3894 33.883 26.4066 34.0075 26.4322C35.9807 26.8783 37.0788 29.5035 36.4526 32.3002C35.8263 35.097 33.7158 37.0016 31.7426 36.5898L30.7046 36.4354C30.5799 36.428 30.4563 36.4078 30.3357 36.3753C28.3539 35.9378 27.2643 33.3126 27.8906 30.5158Z" fill="#FFAF45"/>
<path d="M4.79572 58.9898C5.51292 60.3287 6.30933 61.6236 7.1807 62.8676C9.67992 66.4644 12.7587 69.6215 16.2917 72.2102C16.2917 72.2102 16.3346 72.2102 16.3518 72.2617C16.5834 72.4333 16.815 72.6049 17.0552 72.7593C24.4409 77.9366 33.3603 80.4643 42.3642 79.9316C51.368 79.3989 59.9272 75.8372 66.651 69.8252C68.0448 68.5744 69.3518 67.2301 70.563 65.8016C71.135 65.1611 71.6583 64.5005 72.133 63.8199C65.7759 56.1673 60.1823 54.6231 60.1823 54.6231C60.3625 54.4258 62.3271 52.1094 60.1823 47.94C57.3598 42.4322 48.592 39.0263 48.592 39.0263L33.1496 38.1083C28.7671 38.6645 24.7377 40.7996 21.8166 44.1137C17.8273 48.6778 18.5394 51.5775 18.9169 52.4612C18.9505 52.561 18.9966 52.6561 19.0542 52.7443C14.1456 54.4506 9.37817 56.5389 4.79572 58.9898Z" fill="#8758E7"/>
<path d="M18.8825 52.4697C23.6906 55.4148 28.9738 57.5019 34.4965 58.6381C48.0686 61.6322 60.1823 54.6231 60.1823 54.6231C60.3624 54.4258 62.3271 52.118 60.1823 47.94C57.3598 42.4322 48.5919 39.0263 48.5919 39.0263L33.1496 38.1083C28.7675 38.666 24.7387 40.8009 21.8166 44.1137C17.793 48.6864 18.5051 51.5861 18.8825 52.4697Z" fill="#ADA4F7"/>
<path d="M46.3442 49.1925C46.3442 49.1925 52.4783 45.9925 52.1094 44.1222C51.7405 42.252 45.7952 40.9994 41.9861 41.7201C38.177 42.4407 29.1174 42.578 29.1174 45.8295C29.1174 48.7292 33.2611 51.5174 33.2611 51.5174L41.9517 49.0123L46.3442 49.1925Z" fill="#8758E7"/>
<path d="M46.5587 39.6011L46.3443 49.1925C46.3443 49.1925 44.5512 51.9206 38.9319 52.2466C34.7368 52.4954 33.2955 51.5174 33.2955 51.5174L33.9818 46.6702L34.6595 41.9431L44.8515 39.9356L46.5587 39.6011Z" fill="#FC8165"/>
<path d="M44.8515 39.9357C44.7991 40.2552 44.6978 40.5649 44.5512 40.8536C42.2949 45.6065 36.4011 46.5073 33.9818 46.6703L34.6595 41.9432L44.8515 39.9357Z" fill="black"/>
<path d="M33.0123 20.0236C33.0123 20.0236 27.7018 31.94 29.5807 38.666C31.4595 45.392 37.5421 44.3797 41.2139 43.1099C43.2887 42.4429 45.1464 41.2311 46.593 39.6011C47.6339 39.9179 48.7483 39.8968 49.7764 39.5407C50.8045 39.1846 51.6933 38.512 52.3152 37.6193C54.623 34.4536 53.2418 30.7561 51.2943 29.941C49.3469 29.126 47.0048 30.4901 47.0048 30.4901L48.8493 27.0585C48.8493 27.0585 41.2825 9.31691 33.0123 20.0236Z" fill="#FC8165"/>
<path d="M33.4585 35.2601C33.3667 35.2606 33.2773 35.2318 33.2031 35.1777C33.129 35.1237 33.0742 35.0473 33.0467 34.9598C32.2488 32.3861 34.0676 29.7609 34.1448 29.6494C34.2103 29.5581 34.309 29.4962 34.4197 29.4769C34.5304 29.4577 34.6442 29.4826 34.7367 29.5464C34.83 29.6122 34.8938 29.7118 34.9146 29.824C34.9355 29.9362 34.9117 30.0521 34.8483 30.1469C34.8483 30.1469 33.2011 32.5319 33.8702 34.711C33.9024 34.8191 33.8908 34.9355 33.8378 35.035C33.7848 35.1346 33.6948 35.2093 33.5871 35.2429C33.5458 35.257 33.5021 35.2628 33.4585 35.2601Z" fill="black"/>
<path d="M47.4853 36.1266C47.3805 36.1252 47.2797 36.0855 47.2022 36.015C47.1638 35.9768 47.1333 35.9313 47.1125 35.8813C47.0917 35.8312 47.0811 35.7775 47.0811 35.7233C47.0811 35.6691 47.0917 35.6155 47.1125 35.5654C47.1333 35.5154 47.1638 35.4699 47.2022 35.4317L50.4451 32C50.4827 31.9606 50.528 31.9292 50.5781 31.9077C50.6283 31.8862 50.6822 31.8752 50.7368 31.8752C50.7913 31.8752 50.8452 31.8862 50.8954 31.9077C50.9455 31.9292 50.9908 31.9606 51.0284 32C51.1039 32.0784 51.1461 32.1829 51.1461 32.2917C51.1461 32.4005 51.1039 32.505 51.0284 32.5834L47.777 36.015C47.7382 36.0521 47.6924 36.081 47.6424 36.1002C47.5923 36.1193 47.5389 36.1283 47.4853 36.1266Z" fill="black"/>
<path d="M50.9255 35.1657H50.8654L48.6177 34.8225C48.5642 34.8141 48.5128 34.7952 48.4666 34.7669C48.4204 34.7386 48.3802 34.7015 48.3484 34.6576C48.3165 34.6138 48.2936 34.5642 48.2809 34.5115C48.2682 34.4588 48.2661 34.4042 48.2745 34.3506C48.283 34.2971 48.3019 34.2458 48.3302 34.1996C48.3584 34.1534 48.3956 34.1132 48.4394 34.0813C48.4832 34.0495 48.5329 34.0266 48.5855 34.0139C48.6382 34.0012 48.6928 33.999 48.7464 34.0075L50.9855 34.3506C51.0398 34.358 51.0922 34.3761 51.1394 34.4039C51.1866 34.4317 51.2278 34.4687 51.2606 34.5126C51.2933 34.5566 51.317 34.6066 51.3302 34.6598C51.3433 34.7131 51.3457 34.7684 51.3373 34.8225C51.3209 34.9194 51.2704 35.0073 51.1948 35.0703C51.1193 35.1332 51.0238 35.167 50.9255 35.1657Z" fill="black"/>
<path d="M46.9791 30.4901C46.8025 30.6004 46.6049 30.6726 46.3988 30.7021C46.1927 30.7315 45.9827 30.7175 45.7823 30.6609C45.5819 30.6044 45.3956 30.5065 45.2353 30.3737C45.075 30.2408 44.9443 30.0759 44.8515 29.8895C43.9507 28.4911 45.9153 24.3475 45.9153 24.3475C45.9153 24.3475 42.2177 25.2054 39.9099 23.9614C37.6021 22.7174 36.4783 19.363 36.4783 19.363C36.4783 19.363 34.7625 22.8718 29.7437 21.3276C24.7249 19.7834 23.7384 12.9115 29.1174 11.5046C34.4965 10.0976 37.4649 12.4911 37.4649 12.4911C37.4649 12.4911 38.1512 7.49811 44.8172 9.9603C50.8912 12.208 51.9206 19.8177 51.9206 19.8177C53.0081 19.9127 54.031 20.3746 54.8213 21.1276C55.6117 21.8805 56.1226 22.8798 56.2703 23.9614C56.9737 27.9249 52.3325 30.8247 52.3325 30.8247C51.5184 30.3821 50.6175 30.1229 49.6928 30.0651C48.7681 30.0073 47.8419 30.1523 46.9791 30.4901Z" fill="black"/>
<path d="M38.8804 30.8075H38.7861C38.7299 30.8012 38.6755 30.7837 38.6263 30.7559C38.577 30.7281 38.5339 30.6906 38.4994 30.6458C38.465 30.6009 38.4399 30.5496 38.4258 30.4948C38.4117 30.4401 38.4087 30.383 38.4172 30.3271L38.7003 28.0965C38.7151 27.9828 38.7744 27.8795 38.8653 27.8095C38.9562 27.7395 39.0712 27.7085 39.185 27.7233C39.2988 27.7381 39.402 27.7975 39.472 27.8884C39.542 27.9793 39.573 28.0943 39.5582 28.2081L39.2751 30.4386C39.2616 30.536 39.215 30.6258 39.1431 30.693C39.0713 30.7601 38.9785 30.8006 38.8804 30.8075Z" fill="black"/>
<path d="M32.266 30.2756H32.1974C32.1416 30.2672 32.088 30.2479 32.0396 30.2188C31.9913 30.1897 31.9492 30.1513 31.9157 30.1059C31.8822 30.0604 31.8581 30.0089 31.8446 29.9541C31.8311 29.8993 31.8285 29.8424 31.837 29.7866L32.163 27.5646C32.184 27.4539 32.246 27.3552 32.3367 27.2884C32.4275 27.2215 32.5401 27.1915 32.652 27.2043C32.7637 27.2233 32.8637 27.2849 32.9309 27.3761C32.9981 27.4673 33.0273 27.581 33.0123 27.6933L32.6864 29.9153C32.6702 30.0153 32.619 30.1064 32.5421 30.1723C32.4651 30.2383 32.3673 30.2749 32.266 30.2756Z" fill="black"/>
<path d="M40.948 26.5351C40.87 26.5345 40.7936 26.5126 40.7271 26.4718C40.6605 26.431 40.6064 26.3728 40.5705 26.3035C40.0386 25.274 38.5888 25.5743 38.5716 25.5743C38.5164 25.5869 38.4592 25.5885 38.4034 25.5789C38.3475 25.5694 38.2942 25.5488 38.2463 25.5185C38.1984 25.4882 38.157 25.4487 38.1245 25.4023C38.092 25.3559 38.069 25.3036 38.0568 25.2483C38.0361 25.1359 38.0593 25.02 38.1215 24.9242C38.1838 24.8284 38.2804 24.7602 38.3914 24.7335C38.4772 24.7335 40.5105 24.296 41.3341 25.9088C41.3604 25.9588 41.3765 26.0135 41.3812 26.0698C41.386 26.126 41.3794 26.1827 41.3617 26.2363C41.3441 26.29 41.3159 26.3395 41.2787 26.382C41.2415 26.4245 41.1962 26.4591 41.1453 26.4837C41.0852 26.5178 41.0171 26.5355 40.948 26.5351Z" fill="black"/>
<path d="M34.4965 25.1539C34.4275 25.1558 34.3591 25.1403 34.2976 25.1088C34.2362 25.0773 34.1836 25.0309 34.1448 24.9738C34.0699 24.847 33.9681 24.7382 33.8465 24.6552C33.7249 24.5722 33.5866 24.5169 33.4413 24.4933C32.9181 24.5046 32.4161 24.7024 32.0257 25.051C31.9866 25.0909 31.9399 25.1227 31.8883 25.1443C31.8368 25.166 31.7814 25.1772 31.7255 25.1772C31.6695 25.1772 31.6142 25.166 31.5626 25.1443C31.5111 25.1227 31.4644 25.0909 31.4252 25.051C31.3842 25.0125 31.3515 24.9659 31.3291 24.9143C31.3067 24.8627 31.2952 24.807 31.2952 24.7507C31.2952 24.6944 31.3067 24.6388 31.3291 24.5871C31.3515 24.5355 31.3842 24.489 31.4252 24.4504C31.9998 23.9425 32.7431 23.6672 33.5099 23.6783C33.7768 23.7173 34.0319 23.8143 34.2572 23.9625C34.4825 24.1108 34.6725 24.3066 34.8139 24.5362C34.8464 24.5828 34.8693 24.6355 34.8813 24.691C34.8933 24.7466 34.8941 24.8039 34.8838 24.8598C34.8734 24.9157 34.852 24.9689 34.8209 25.0165C34.7897 25.064 34.7495 25.1049 34.7024 25.1368C34.6356 25.1563 34.5656 25.1622 34.4965 25.1539Z" fill="black"/>
<path d="M39.7126 60.1309C39.5988 60.1309 39.4897 60.0857 39.4093 60.0052C39.3288 59.9248 39.2836 59.8157 39.2836 59.7019C39.2836 59.5881 39.3288 59.479 39.4093 59.3986C39.4897 59.3181 39.5988 59.2729 39.7126 59.2729C52.1523 58.578 57.111 55.6697 57.1539 55.644C57.2023 55.6147 57.2561 55.5952 57.312 55.5867C57.368 55.5782 57.4251 55.5808 57.4801 55.5943C57.535 55.6079 57.5868 55.6321 57.6324 55.6656C57.678 55.6992 57.7166 55.7414 57.7458 55.7898C57.7751 55.8383 57.7946 55.892 57.8031 55.948C57.8117 56.0039 57.8091 56.061 57.7955 56.116C57.782 56.171 57.7577 56.2228 57.7242 56.2684C57.6906 56.314 57.6484 56.3525 57.6 56.3818C57.3941 56.5019 52.4525 59.4188 39.7555 60.1309H39.7126Z" fill="#50447E"/>
<path d="M22.5802 71.4895C22.5022 71.487 22.4259 71.4664 22.3571 71.4295C22.2591 71.3705 22.1881 71.2756 22.1592 71.165C22.1304 71.0544 22.146 70.9368 22.2027 70.8375L27.3502 62.1555C27.3784 62.106 27.4161 62.0626 27.4613 62.0279C27.5064 61.9932 27.558 61.9678 27.6131 61.9532C27.6681 61.9386 27.7255 61.9351 27.7819 61.943C27.8384 61.9508 27.8927 61.9699 27.9416 61.9989C27.9906 62.028 28.0333 62.0665 28.0673 62.1122C28.1012 62.1579 28.1257 62.21 28.1393 62.2653C28.153 62.3206 28.1554 62.3781 28.1466 62.4343C28.1378 62.4906 28.1178 62.5445 28.0879 62.593L22.9405 71.2751C22.9032 71.3381 22.8507 71.3908 22.7877 71.4283C22.7247 71.4657 22.6534 71.4868 22.5802 71.4895Z" fill="#50447E"/>
<path d="M39.2922 73.9518C39.1968 73.9522 39.104 73.9202 39.0291 73.861C38.9543 73.8017 38.9018 73.7188 38.8804 73.6257L36.4697 63.8284C36.4555 63.7738 36.4523 63.7169 36.4601 63.661C36.468 63.6051 36.4868 63.5513 36.5155 63.5027C36.5442 63.454 36.5822 63.4115 36.6273 63.3776C36.6725 63.3437 36.7239 63.3191 36.7785 63.3051C36.89 63.2791 37.0071 63.2978 37.105 63.3571C37.2028 63.4164 37.2735 63.5117 37.3019 63.6225L39.7126 73.4199C39.7386 73.5313 39.7199 73.6484 39.6606 73.7463C39.6013 73.8441 39.506 73.9148 39.3952 73.9432L39.2922 73.9518Z" fill="#50447E"/>
<path d="M22.5801 55.052C22.5084 55.0513 22.4379 55.0337 22.3742 55.0005L18.8225 53.1303C18.7224 53.0757 18.6475 52.9842 18.6138 52.8752C18.5802 52.7662 18.5904 52.6485 18.6423 52.5469C18.6985 52.4484 18.79 52.3749 18.8984 52.3414C19.0068 52.3079 19.1238 52.317 19.2257 52.3667L22.7775 54.237C22.8776 54.2916 22.9525 54.3831 22.9861 54.4921C23.0198 54.601 23.0095 54.7188 22.9576 54.8204C22.9217 54.8897 22.8676 54.9479 22.8011 54.9887C22.7346 55.0295 22.6582 55.0514 22.5801 55.052Z" fill="#50447E"/>
<path d="M44.3453 34.0161C43.9764 36.8557 45.3148 39.3694 47.3223 39.6268C49.3298 39.8842 51.2601 37.7909 51.6118 34.9426C51.9636 32.0943 50.6424 29.5893 48.6263 29.3319C46.6102 29.0745 44.7057 31.1678 44.3453 34.0161Z" fill="#FFAF45"/>
<path d="M48.6434 29.3319L50.0332 29.615L48.7121 39.9099L47.3222 39.6268L45.8037 37.9882L45.3662 32.2831L48.6434 29.3319Z" fill="#FFAF45"/>
<path d="M45.7352 34.3078C45.3748 37.156 46.7046 39.6697 48.7207 39.9271C50.7368 40.1844 52.6499 38.0911 53.0102 35.2429C53.3705 32.3946 52.0408 29.8895 50.0247 29.6322C48.0086 29.3748 46.1041 31.4509 45.7352 34.3078Z" fill="#80BAFF"/>
<path d="M51.0456 16.5834C51.8978 17.6024 52.5629 18.7642 53.0102 20.015C53.4391 21.6365 50.9255 31.8627 50.9255 31.8627L47.7512 31.1421L51.0456 16.5834Z" fill="#80BAFF"/>
<path d="M36.3067 38.5973C36.0347 38.5951 35.764 38.5605 35.5003 38.4944C35.3865 38.4659 35.2887 38.3935 35.2283 38.2929C35.168 38.1924 35.1501 38.072 35.1785 37.9582C35.207 37.8444 35.2795 37.7466 35.38 37.6863C35.4806 37.6259 35.601 37.608 35.7147 37.6365C36.2541 37.7422 36.813 37.6776 37.3141 37.4516C37.8152 37.2257 38.2336 36.8496 38.5115 36.3754C38.5391 36.3263 38.5762 36.2832 38.6207 36.2488C38.6652 36.2143 38.7161 36.1891 38.7705 36.1747C38.8249 36.1603 38.8817 36.157 38.9374 36.1649C38.9931 36.1728 39.0467 36.1919 39.0949 36.2209C39.1929 36.2799 39.2639 36.3748 39.2928 36.4854C39.3216 36.5961 39.306 36.7136 39.2493 36.8129C38.9437 37.3296 38.5151 37.7628 38.0018 38.0741C37.4884 38.3854 36.9062 38.5651 36.3067 38.5973Z" fill="black"/>
<path d="M1.49995 40.0071L1.49995 40.0045C1.50099 33.9147 2.94682 27.9119 5.71868 22.4895C8.49054 17.067 12.5093 12.3795 17.4449 8.81206C22.3805 5.24462 28.092 2.89904 34.1103 1.968C40.1285 1.03696 46.2819 1.54701 52.0647 3.45628C57.8475 5.36555 63.0949 8.61955 67.3757 12.951C71.6565 17.2824 74.8486 22.5676 76.6898 28.3725C78.531 34.1773 78.9687 40.3362 77.967 46.3431C76.9654 52.35 74.5528 58.0336 70.9276 62.9269L70.9149 62.9441L70.9026 62.9617C70.4634 63.5915 69.9775 64.2051 69.4441 64.8026L69.4313 64.8169L69.4189 64.8315C68.2518 66.2079 66.9924 67.5032 65.6494 68.7085C59.1782 74.494 50.9408 77.9215 42.2755 78.4342C33.6095 78.9468 25.0248 76.514 17.9162 71.531L17.8916 71.5137L17.8663 71.4975C17.7136 71.3993 17.5605 71.2893 17.3836 71.1591C17.2869 71.0641 17.1801 70.9837 17.0674 70.9187C13.7147 68.4435 10.7908 65.4345 8.41248 62.0116L8.40923 62.007C7.57207 60.8118 6.80693 59.5678 6.1179 58.2815L6.11439 58.275C3.07454 52.6667 1.48811 46.3862 1.49995 40.0071Z" stroke="url(#paint0_linear_346_21)" strokeWidth="3"/>
</g>
<defs>
<linearGradient id="paint0_linear_346_21" x1="63.7333" y1="6.39998" x2="17.8667" y2="73.6" gradientUnits="userSpaceOnUse">
<stop stop-color="#B0B0B0"/>
<stop offset="1" stop-color="#DFDFDF"/>
</linearGradient>
<clipPath id="clip0_346_21">
<rect width="80" height="80" fill="white"/>
</clipPath>
</defs>
</svg>
