<svg width="50" height="50" viewBox="0 0 50 50" fill="none" xmlns="http://www.w3.org/2000/svg">
<g filter="url(#filter0_d_222_2)">
<circle cx="29" cy="21" r="15" fill="white"/>
<circle cx="29" cy="21" r="14.5" stroke="#151515" stroke-opacity="0.25"/>
</g>
<path d="M26.4125 20.2125L29.3375 17.2875C29.6938 16.9312 30.1014 16.8517 30.5604 17.049C31.0201 17.2455 31.25 17.5969 31.25 18.1031L31.25 23.8969C31.25 24.4031 31.0201 24.7545 30.5604 24.951C30.1014 25.1482 29.6937 25.0687 29.3375 24.7125L26.4125 21.7875C26.3 21.675 26.2156 21.5531 26.1594 21.4219C26.1031 21.2906 26.075 21.15 26.075 21C26.075 20.85 26.1031 20.7094 26.1594 20.5781C26.2156 20.4469 26.3 20.325 26.4125 20.2125Z" fill="#004439"/>
<defs>
<filter id="filter0_d_222_2" x="0" y="0" width="50" height="50" filterUnits="userSpaceOnUse" color-interpolation-filters="sRGB">
<feFlood flood-opacity="0" result="BackgroundImageFix"/>
<feColorMatrix in="SourceAlpha" type="matrix" values="0 0 0 0 0 0 0 0 0 0 0 0 0 0 0 0 0 0 127 0" result="hardAlpha"/>
<feOffset dx="-4" dy="4"/>
<feGaussianBlur stdDeviation="5"/>
<feComposite in2="hardAlpha" operator="out"/>
<feColorMatrix type="matrix" values="0 0 0 0 0 0 0 0 0 0 0 0 0 0 0 0 0 0 0.1 0"/>
<feBlend mode="normal" in2="BackgroundImageFix" result="effect1_dropShadow_222_2"/>
<feBlend mode="normal" in="SourceGraphic" in2="effect1_dropShadow_222_2" result="shape"/>
</filter>
</defs>
</svg>
