<svg width="50" height="50" viewBox="0 0 50 50" fill="none" xmlns="http://www.w3.org/2000/svg">
<g filter="url(#filter0_d_222_6)">
<circle cx="29" cy="21" r="15" transform="rotate(-180 29 21)" fill="white"/>
<circle cx="29" cy="21" r="14.5" transform="rotate(-180 29 21)" stroke="#151515" stroke-opacity="0.25"/>
</g>
<path d="M31.5875 21.7875L28.6625 24.7125C28.3062 25.0688 27.8986 25.1483 27.4396 24.951C26.9799 24.7545 26.75 24.4031 26.75 23.8969L26.75 18.1031C26.75 17.5969 26.9799 17.2455 27.4396 17.049C27.8986 16.8518 28.3063 16.9313 28.6625 17.2875L31.5875 20.2125C31.7 20.325 31.7844 20.4469 31.8406 20.5781C31.8969 20.7094 31.925 20.85 31.925 21C31.925 21.15 31.8969 21.2906 31.8406 21.4219C31.7844 21.5531 31.7 21.675 31.5875 21.7875Z" fill="#004439"/>
<defs>
<filter id="filter0_d_222_6" x="0" y="0" width="50" height="50" filterUnits="userSpaceOnUse" color-interpolation-filters="sRGB">
<feFlood flood-opacity="0" result="BackgroundImageFix"/>
<feColorMatrix in="SourceAlpha" type="matrix" values="0 0 0 0 0 0 0 0 0 0 0 0 0 0 0 0 0 0 127 0" result="hardAlpha"/>
<feOffset dx="-4" dy="4"/>
<feGaussianBlur stdDeviation="5"/>
<feComposite in2="hardAlpha" operator="out"/>
<feColorMatrix type="matrix" values="0 0 0 0 0 0 0 0 0 0 0 0 0 0 0 0 0 0 0.1 0"/>
<feBlend mode="normal" in2="BackgroundImageFix" result="effect1_dropShadow_222_6"/>
<feBlend mode="normal" in="SourceGraphic" in2="effect1_dropShadow_222_6" result="shape"/>
</filter>
</defs>
</svg>
