<svg width="24" height="24" viewBox="0 0 24 24" fill="none" xmlns="http://www.w3.org/2000/svg">
<g opacity="0.5">
<path d="M17 9H19V7H17V9ZM17 13H19V11H17V13ZM17 17H19V15H17V17ZM17 21V19H21V5H12V6.4L10 4.95C10 4.41667 10.196 3.95833 10.588 3.575C10.98 3.19167 11.4507 3 12 3H21C21.55 3 22.021 3.196 22.413 3.588C22.805 3.98 23.0007 4.45067 23 5V19C23 19.55 22.804 20.021 22.412 20.413C22.02 20.805 21.5493 21.0007 21 21H17ZM1 20V12.025C1 11.6917 1.075 11.3833 1.225 11.1C1.375 10.8167 1.58334 10.5833 1.85 10.4L6.85 6.825C7.2 6.575 7.58334 6.45 8 6.45C8.41667 6.45 8.8 6.575 9.15 6.825L14.15 10.4C14.4167 10.5833 14.625 10.8167 14.775 11.1C14.925 11.3833 15 11.6917 15 12.025V20C15 20.2833 14.904 20.521 14.712 20.713C14.52 20.905 14.2827 21.0007 14 21H9V16H7V21H2C1.71667 21 1.479 20.904 1.287 20.712C1.095 20.52 0.999337 20.2827 1 20ZM3 19H5V14H11V19H13V12L8 8.45L3 12V19Z" fill="#151515"/>
</g>
</svg>
